%TF.GenerationSoftware,KiCad,Pcbnew,7.0.0-da2b9df05c~171~ubuntu20.04.1*%
%TF.CreationDate,2023-03-04T21:27:30-05:00*%
%TF.ProjectId,Logitech Unifying 2242,4c6f6769-7465-4636-9820-556e69667969,B*%
%TF.SameCoordinates,Original*%
%TF.FileFunction,Paste,Top*%
%TF.FilePolarity,Positive*%
%FSLAX46Y46*%
G04 Gerber Fmt 4.6, Leading zero omitted, Abs format (unit mm)*
G04 Created by KiCad (PCBNEW 7.0.0-da2b9df05c~171~ubuntu20.04.1) date 2023-03-04 21:27:30*
%MOMM*%
%LPD*%
G01*
G04 APERTURE LIST*
G04 Aperture macros list*
%AMRoundRect*
0 Rectangle with rounded corners*
0 $1 Rounding radius*
0 $2 $3 $4 $5 $6 $7 $8 $9 X,Y pos of 4 corners*
0 Add a 4 corners polygon primitive as box body*
4,1,4,$2,$3,$4,$5,$6,$7,$8,$9,$2,$3,0*
0 Add four circle primitives for the rounded corners*
1,1,$1+$1,$2,$3*
1,1,$1+$1,$4,$5*
1,1,$1+$1,$6,$7*
1,1,$1+$1,$8,$9*
0 Add four rect primitives between the rounded corners*
20,1,$1+$1,$2,$3,$4,$5,0*
20,1,$1+$1,$4,$5,$6,$7,0*
20,1,$1+$1,$6,$7,$8,$9,0*
20,1,$1+$1,$8,$9,$2,$3,0*%
%AMFreePoly0*
4,1,15,-0.175000,0.812500,-0.168339,0.845985,-0.149372,0.874372,-0.120985,0.893339,-0.087500,0.900000,0.087500,0.900000,0.120985,0.893339,0.149372,0.874372,0.168339,0.845985,0.175000,0.812500,0.175000,-0.760000,0.035000,-0.900000,-0.035000,-0.900000,-0.175000,-0.760000,-0.175000,0.812500,-0.175000,0.812500,$1*%
G04 Aperture macros list end*
%ADD10RoundRect,0.150000X-0.512500X-0.150000X0.512500X-0.150000X0.512500X0.150000X-0.512500X0.150000X0*%
%ADD11RoundRect,0.155000X-0.212500X-0.155000X0.212500X-0.155000X0.212500X0.155000X-0.212500X0.155000X0*%
%ADD12R,1.250000X3.000000*%
%ADD13RoundRect,0.237500X-0.287500X-0.237500X0.287500X-0.237500X0.287500X0.237500X-0.287500X0.237500X0*%
%ADD14RoundRect,0.155000X0.212500X0.155000X-0.212500X0.155000X-0.212500X-0.155000X0.212500X-0.155000X0*%
%ADD15RoundRect,0.250001X-0.462499X-0.849999X0.462499X-0.849999X0.462499X0.849999X-0.462499X0.849999X0*%
%ADD16FreePoly0,0.000000*%
%ADD17RoundRect,0.112500X0.187500X0.112500X-0.187500X0.112500X-0.187500X-0.112500X0.187500X-0.112500X0*%
%ADD18RoundRect,0.160000X-0.197500X-0.160000X0.197500X-0.160000X0.197500X0.160000X-0.197500X0.160000X0*%
G04 APERTURE END LIST*
D10*
%TO.C,U1*%
X9662500Y6850000D03*
X9662500Y5900000D03*
X9662500Y4950000D03*
X11937500Y4950000D03*
X11937500Y6850000D03*
%TD*%
D11*
%TO.C,C2*%
X16032500Y6800000D03*
X17167500Y6800000D03*
%TD*%
D12*
%TO.C,USB1*%
X14499999Y10119999D03*
X11999999Y10119999D03*
X9999999Y10119999D03*
X7499999Y10119999D03*
%TD*%
D13*
%TO.C,F1*%
X1525000Y4900000D03*
X3275000Y4900000D03*
%TD*%
D14*
%TO.C,C3.3*%
X3567500Y8500000D03*
X2432500Y8500000D03*
%TD*%
D15*
%TO.C,L1*%
X5237500Y5700000D03*
X7562500Y5700000D03*
%TD*%
D11*
%TO.C,C1.2*%
X18432500Y5700000D03*
X19567500Y5700000D03*
%TD*%
%TO.C,C1.1*%
X18032500Y4600000D03*
X19167500Y4600000D03*
%TD*%
D16*
%TO.C,J1*%
X20249999Y1099999D03*
X19749999Y1099999D03*
X19249999Y1099999D03*
X18749999Y1099999D03*
X18249999Y1099999D03*
X17749999Y1099999D03*
X15249999Y1099999D03*
X13749999Y1099999D03*
X12249999Y1099999D03*
X10749999Y1099999D03*
X9249999Y1099999D03*
X7749999Y1099999D03*
X6249999Y1099999D03*
X3249999Y1099999D03*
X2749999Y1099999D03*
X2249999Y1099999D03*
X1749999Y1099999D03*
%TD*%
D14*
%TO.C,C3.1*%
X3567500Y6300000D03*
X2432500Y6300000D03*
%TD*%
%TO.C,C3.2*%
X3567500Y7400000D03*
X2432500Y7400000D03*
%TD*%
D17*
%TO.C,D1*%
X15750000Y5100000D03*
X13650000Y5100000D03*
%TD*%
D18*
%TO.C,R1*%
X13602500Y6800000D03*
X14797500Y6800000D03*
%TD*%
D11*
%TO.C,C1.3*%
X18432500Y6800000D03*
X19567500Y6800000D03*
%TD*%
M02*
