%TF.GenerationSoftware,KiCad,Pcbnew,6.0.10-86aedd382b~118~ubuntu20.04.1*%
%TF.CreationDate,2023-01-28T15:04:09-05:00*%
%TF.ProjectId,Logitech Unifying 2242,4c6f6769-7465-4636-9820-556e69667969,A*%
%TF.SameCoordinates,Original*%
%TF.FileFunction,Copper,L2,Bot*%
%TF.FilePolarity,Positive*%
%FSLAX46Y46*%
G04 Gerber Fmt 4.6, Leading zero omitted, Abs format (unit mm)*
G04 Created by KiCad (PCBNEW 6.0.10-86aedd382b~118~ubuntu20.04.1) date 2023-01-28 15:04:09*
%MOMM*%
%LPD*%
G01*
G04 APERTURE LIST*
%TA.AperFunction,ComponentPad*%
%ADD10C,3.000000*%
%TD*%
%TA.AperFunction,SMDPad,CuDef*%
%ADD11R,0.350000X2.500000*%
%TD*%
%TA.AperFunction,ComponentPad*%
%ADD12C,5.500000*%
%TD*%
%TA.AperFunction,ViaPad*%
%ADD13C,0.800000*%
%TD*%
%TA.AperFunction,Conductor*%
%ADD14C,0.250000*%
%TD*%
G04 APERTURE END LIST*
D10*
%TO.P,USB,5*%
%TO.N,N/C*%
X132008000Y-104984000D03*
X145148000Y-104984000D03*
%TD*%
D11*
%TO.P,J1,2,3.3V*%
%TO.N,+3V3*%
X147600000Y-119950000D03*
D12*
%TO.P,J1,3,GND*%
%TO.N,GND*%
X138600000Y-79200000D03*
D11*
%TO.P,J1,4,3.3V*%
%TO.N,+3V3*%
X147100000Y-119950000D03*
%TO.P,J1,6,~{FULL_CARD_POWER_OFF}*%
%TO.N,unconnected-(J1-Pad6)*%
X146600000Y-119950000D03*
%TO.P,J1,8,~{W_DISABLE1}*%
%TO.N,unconnected-(J1-Pad8)*%
X146100000Y-119950000D03*
%TO.P,J1,10,GPIO_9/DAS/~{DSS}/~{LED1}*%
%TO.N,unconnected-(J1-Pad10)*%
X145600000Y-119950000D03*
%TO.P,J1,20,GPIO_5*%
%TO.N,unconnected-(J1-Pad20)*%
X143100000Y-119950000D03*
%TO.P,J1,22,GPIO_6*%
%TO.N,unconnected-(J1-Pad22)*%
X142600000Y-119950000D03*
%TO.P,J1,24,GPIO_7*%
%TO.N,unconnected-(J1-Pad24)*%
X142100000Y-119950000D03*
%TO.P,J1,26,GPIO_10*%
%TO.N,unconnected-(J1-Pad26)*%
X141600000Y-119950000D03*
%TO.P,J1,28,GPIO_8*%
%TO.N,unconnected-(J1-Pad28)*%
X141100000Y-119950000D03*
%TO.P,J1,30,UIM-RESET*%
%TO.N,unconnected-(J1-Pad30)*%
X140600000Y-119950000D03*
%TO.P,J1,32,UIM-CLK*%
%TO.N,unconnected-(J1-Pad32)*%
X140100000Y-119950000D03*
%TO.P,J1,34,UIM-DATA*%
%TO.N,unconnected-(J1-Pad34)*%
X139600000Y-119950000D03*
%TO.P,J1,36,UIM-PWR*%
%TO.N,unconnected-(J1-Pad36)*%
X139100000Y-119950000D03*
%TO.P,J1,38,DEVSLP*%
%TO.N,unconnected-(J1-Pad38)*%
X138600000Y-119950000D03*
%TO.P,J1,40,GPIO_0*%
%TO.N,unconnected-(J1-Pad40)*%
X138100000Y-119950000D03*
%TO.P,J1,42,GPIO_1*%
%TO.N,unconnected-(J1-Pad42)*%
X137600000Y-119950000D03*
%TO.P,J1,44,GPIO_2*%
%TO.N,unconnected-(J1-Pad44)*%
X137100000Y-119950000D03*
%TO.P,J1,46,GPIO_3*%
%TO.N,unconnected-(J1-Pad46)*%
X136600000Y-119950000D03*
%TO.P,J1,48,GPIO_4*%
%TO.N,unconnected-(J1-Pad48)*%
X136100000Y-119950000D03*
%TO.P,J1,50,~{PERST}*%
%TO.N,unconnected-(J1-Pad50)*%
X135600000Y-119950000D03*
%TO.P,J1,52,~{CLKREQ}*%
%TO.N,unconnected-(J1-Pad52)*%
X135100000Y-119950000D03*
%TO.P,J1,54,~{PEWAKE}*%
%TO.N,unconnected-(J1-Pad54)*%
X134600000Y-119950000D03*
%TO.P,J1,56,NC*%
%TO.N,unconnected-(J1-Pad56)*%
X134100000Y-119950000D03*
%TO.P,J1,58,NC*%
%TO.N,unconnected-(J1-Pad58)*%
X133600000Y-119950000D03*
%TO.P,J1,68,SUSCLK*%
%TO.N,unconnected-(J1-Pad68)*%
X131100000Y-119950000D03*
%TO.P,J1,70,3.3V*%
%TO.N,+3V3*%
X130600000Y-119950000D03*
%TO.P,J1,72,3.3V*%
X130100000Y-119950000D03*
%TO.P,J1,74,3.3V*%
X129600000Y-119950000D03*
%TD*%
D13*
%TO.N,GND*%
X128600000Y-110600000D03*
X133400000Y-117400000D03*
X146100000Y-116000000D03*
X146300000Y-108900000D03*
X143800000Y-117024500D03*
X147700000Y-117200000D03*
X133500000Y-109700000D03*
%TO.N,+3V3*%
X130100000Y-117500000D03*
X132700000Y-116300000D03*
%TD*%
D14*
%TO.N,+3V3*%
X130100000Y-119950000D02*
X130100000Y-117800000D01*
X147100000Y-119950000D02*
X147100000Y-118375000D01*
X145025000Y-116300000D02*
X132700000Y-116300000D01*
X147100000Y-118375000D02*
X145025000Y-116300000D01*
X147100000Y-119950000D02*
X147600000Y-119950000D01*
X130600000Y-119950000D02*
X130100000Y-119950000D01*
X130100000Y-119950000D02*
X129600000Y-119950000D01*
X130100000Y-117800000D02*
X130100000Y-117500000D01*
%TD*%
%TA.AperFunction,Conductor*%
%TO.N,GND*%
G36*
X135301282Y-79470502D02*
G01*
X135347775Y-79524158D01*
X135357575Y-79556572D01*
X135410363Y-79886141D01*
X135411802Y-79892796D01*
X135503122Y-80226604D01*
X135505271Y-80233065D01*
X135632110Y-80555067D01*
X135634941Y-80561250D01*
X135795815Y-80867670D01*
X135799298Y-80873513D01*
X135992321Y-81160761D01*
X135996424Y-81166205D01*
X136111911Y-81303351D01*
X136124650Y-81311794D01*
X136135094Y-81305696D01*
X137953385Y-79487405D01*
X138015697Y-79453379D01*
X138042480Y-79450500D01*
X138404520Y-79450500D01*
X138472641Y-79470502D01*
X138519134Y-79524158D01*
X138529238Y-79594432D01*
X138499744Y-79659012D01*
X138493615Y-79665595D01*
X136492422Y-81666788D01*
X136485541Y-81679389D01*
X136493678Y-81690395D01*
X136753938Y-81890099D01*
X136759537Y-81893933D01*
X137055261Y-82073736D01*
X137061251Y-82076948D01*
X137374657Y-82223758D01*
X137380961Y-82226305D01*
X137708384Y-82338406D01*
X137714935Y-82340260D01*
X138052539Y-82416342D01*
X138059258Y-82417479D01*
X138403113Y-82456657D01*
X138409903Y-82457060D01*
X138755973Y-82458872D01*
X138762774Y-82458540D01*
X139107020Y-82422966D01*
X139113748Y-82421900D01*
X139452144Y-82349353D01*
X139458693Y-82347574D01*
X139787278Y-82238905D01*
X139793620Y-82236419D01*
X140108523Y-82092910D01*
X140114577Y-82089745D01*
X140412128Y-81913073D01*
X140417809Y-81909270D01*
X140694547Y-81701489D01*
X140699771Y-81697105D01*
X140706238Y-81691053D01*
X140714307Y-81677373D01*
X140714280Y-81676649D01*
X140709136Y-81668346D01*
X138706385Y-79665595D01*
X138672359Y-79603283D01*
X138677424Y-79532468D01*
X138719971Y-79475632D01*
X138786491Y-79450821D01*
X138795480Y-79450500D01*
X139157520Y-79450500D01*
X139225641Y-79470502D01*
X139246615Y-79487405D01*
X141063553Y-81304343D01*
X141077150Y-81311768D01*
X141086761Y-81305068D01*
X141182845Y-81193360D01*
X141187003Y-81187960D01*
X141383023Y-80902751D01*
X141386570Y-80896940D01*
X141550634Y-80592238D01*
X141553541Y-80586060D01*
X141683744Y-80265411D01*
X141685958Y-80258981D01*
X141780769Y-79926143D01*
X141782276Y-79919513D01*
X141840587Y-79578379D01*
X141841372Y-79571593D01*
X141841543Y-79568799D01*
X141865671Y-79502028D01*
X141922067Y-79458902D01*
X141967307Y-79450500D01*
X149223500Y-79450500D01*
X149291621Y-79470502D01*
X149338114Y-79524158D01*
X149349500Y-79576500D01*
X149349500Y-116862738D01*
X149329498Y-116930859D01*
X149275842Y-116977352D01*
X149248468Y-116986239D01*
X149207713Y-116994479D01*
X149017630Y-117065284D01*
X148840963Y-117164952D01*
X148682063Y-117291030D01*
X148544842Y-117440413D01*
X148542106Y-117444536D01*
X148542105Y-117444537D01*
X148460707Y-117567191D01*
X148432679Y-117609424D01*
X148348336Y-117793899D01*
X148347009Y-117798662D01*
X148347007Y-117798667D01*
X148342266Y-117815683D01*
X148293890Y-117989298D01*
X148271564Y-118183150D01*
X148269759Y-118190774D01*
X148271739Y-118203025D01*
X148272886Y-118210123D01*
X148274500Y-118230225D01*
X148274500Y-118647833D01*
X148254498Y-118715954D01*
X148200842Y-118762447D01*
X148130568Y-118772551D01*
X148065988Y-118743057D01*
X148027604Y-118683331D01*
X148024921Y-118672415D01*
X148013387Y-118614431D01*
X148010966Y-118602260D01*
X147955601Y-118519399D01*
X147872740Y-118464034D01*
X147799674Y-118449500D01*
X147599821Y-118449500D01*
X147531700Y-118429498D01*
X147485207Y-118375842D01*
X147476800Y-118343591D01*
X147475500Y-118343807D01*
X147472372Y-118325013D01*
X147471535Y-118319137D01*
X147466800Y-118279133D01*
X147465576Y-118268790D01*
X147461654Y-118260623D01*
X147460167Y-118251687D01*
X147455223Y-118242525D01*
X147455222Y-118242521D01*
X147436094Y-118207071D01*
X147433398Y-118201780D01*
X147414897Y-118163251D01*
X147414896Y-118163250D01*
X147411463Y-118156100D01*
X147407906Y-118151869D01*
X147405974Y-118149937D01*
X147404255Y-118148063D01*
X147404181Y-118147926D01*
X147404291Y-118147826D01*
X147403868Y-118147346D01*
X147400806Y-118141671D01*
X147372947Y-118115918D01*
X147361633Y-118105460D01*
X147358067Y-118102030D01*
X145328348Y-116072311D01*
X145313623Y-116054080D01*
X145312222Y-116052540D01*
X145306572Y-116043790D01*
X145280535Y-116023264D01*
X145276168Y-116019383D01*
X145276102Y-116019461D01*
X145272144Y-116016107D01*
X145268462Y-116012425D01*
X145264231Y-116009402D01*
X145264228Y-116009399D01*
X145259409Y-116005956D01*
X145252948Y-116001339D01*
X145248212Y-115997783D01*
X145208400Y-115966397D01*
X145199851Y-115963395D01*
X145192481Y-115958128D01*
X145159203Y-115948176D01*
X145143930Y-115943608D01*
X145138286Y-115941774D01*
X145097935Y-115927604D01*
X145097929Y-115927603D01*
X145090452Y-115924977D01*
X145084945Y-115924500D01*
X145082238Y-115924500D01*
X145079665Y-115924389D01*
X145079506Y-115924341D01*
X145079512Y-115924197D01*
X145078892Y-115924158D01*
X145072713Y-115922310D01*
X145019445Y-115924403D01*
X145014498Y-115924500D01*
X133297577Y-115924500D01*
X133229456Y-115904498D01*
X133201853Y-115877736D01*
X133200856Y-115878615D01*
X133195837Y-115872922D01*
X133191531Y-115866657D01*
X133164492Y-115842566D01*
X133079648Y-115766972D01*
X133079645Y-115766970D01*
X133073976Y-115761919D01*
X132934831Y-115688245D01*
X132918122Y-115684048D01*
X132789498Y-115651740D01*
X132789496Y-115651740D01*
X132782128Y-115649889D01*
X132774530Y-115649849D01*
X132774528Y-115649849D01*
X132707319Y-115649497D01*
X132624684Y-115649065D01*
X132617305Y-115650837D01*
X132617301Y-115650837D01*
X132478967Y-115684048D01*
X132478963Y-115684049D01*
X132471588Y-115685820D01*
X132331679Y-115758032D01*
X132325957Y-115763024D01*
X132325955Y-115763025D01*
X132218759Y-115856538D01*
X132218756Y-115856541D01*
X132213034Y-115861533D01*
X132201029Y-115878615D01*
X132138153Y-115968078D01*
X132122501Y-115990348D01*
X132065309Y-116137039D01*
X132044758Y-116293138D01*
X132062035Y-116449633D01*
X132116143Y-116597490D01*
X132203958Y-116728172D01*
X132320410Y-116834135D01*
X132349425Y-116849889D01*
X132452099Y-116905637D01*
X132452101Y-116905638D01*
X132458776Y-116909262D01*
X132466125Y-116911190D01*
X132603719Y-116947287D01*
X132603721Y-116947287D01*
X132611069Y-116949215D01*
X132694380Y-116950524D01*
X132760898Y-116951569D01*
X132760901Y-116951569D01*
X132768495Y-116951688D01*
X132921968Y-116916538D01*
X133062625Y-116845795D01*
X133088869Y-116823381D01*
X133176574Y-116748474D01*
X133176576Y-116748471D01*
X133182348Y-116743542D01*
X133186777Y-116737378D01*
X133186780Y-116737375D01*
X133193536Y-116727973D01*
X133249531Y-116684326D01*
X133295858Y-116675500D01*
X144817273Y-116675500D01*
X144885394Y-116695502D01*
X144906368Y-116712405D01*
X146435119Y-118241156D01*
X146469145Y-118303468D01*
X146464080Y-118374283D01*
X146421533Y-118431119D01*
X146355013Y-118455930D01*
X146321441Y-118453830D01*
X146305739Y-118450706D01*
X146305734Y-118450706D01*
X146299674Y-118449500D01*
X145900326Y-118449500D01*
X145894266Y-118450706D01*
X145894261Y-118450706D01*
X145878721Y-118453798D01*
X145874582Y-118454621D01*
X145825418Y-118454621D01*
X145821279Y-118453798D01*
X145805739Y-118450706D01*
X145805734Y-118450706D01*
X145799674Y-118449500D01*
X145400326Y-118449500D01*
X145327260Y-118464034D01*
X145316943Y-118470928D01*
X145316942Y-118470928D01*
X145271501Y-118501290D01*
X145203747Y-118522504D01*
X145135281Y-118503720D01*
X145087838Y-118450902D01*
X145075500Y-118396524D01*
X145075500Y-118337085D01*
X145077921Y-118312504D01*
X145077986Y-118312175D01*
X145080408Y-118300000D01*
X145079935Y-118297623D01*
X145061497Y-118122197D01*
X145055519Y-118103797D01*
X145027397Y-118017249D01*
X145006250Y-117952165D01*
X144916859Y-117797335D01*
X144797230Y-117664474D01*
X144652593Y-117559388D01*
X144646565Y-117556704D01*
X144646563Y-117556703D01*
X144495298Y-117489356D01*
X144495297Y-117489356D01*
X144489267Y-117486671D01*
X144401829Y-117468085D01*
X144320848Y-117450872D01*
X144320844Y-117450872D01*
X144314391Y-117449500D01*
X144135609Y-117449500D01*
X144129156Y-117450872D01*
X144129152Y-117450872D01*
X144048171Y-117468085D01*
X143960733Y-117486671D01*
X143954703Y-117489356D01*
X143954702Y-117489356D01*
X143803438Y-117556703D01*
X143803436Y-117556704D01*
X143797408Y-117559388D01*
X143792067Y-117563268D01*
X143792066Y-117563269D01*
X143722340Y-117613928D01*
X143652770Y-117664474D01*
X143533141Y-117797335D01*
X143443750Y-117952165D01*
X143422603Y-118017249D01*
X143394482Y-118103797D01*
X143388503Y-118122197D01*
X143387813Y-118128760D01*
X143387813Y-118128761D01*
X143381101Y-118192618D01*
X143370065Y-118297623D01*
X143369592Y-118300000D01*
X143372014Y-118312174D01*
X143372013Y-118323506D01*
X143352007Y-118391626D01*
X143298349Y-118438116D01*
X143246013Y-118449500D01*
X142900326Y-118449500D01*
X142894266Y-118450706D01*
X142894261Y-118450706D01*
X142878721Y-118453798D01*
X142874582Y-118454621D01*
X142825418Y-118454621D01*
X142821279Y-118453798D01*
X142805739Y-118450706D01*
X142805734Y-118450706D01*
X142799674Y-118449500D01*
X142400326Y-118449500D01*
X142394266Y-118450706D01*
X142394261Y-118450706D01*
X142378721Y-118453798D01*
X142374582Y-118454621D01*
X142325418Y-118454621D01*
X142321279Y-118453798D01*
X142305739Y-118450706D01*
X142305734Y-118450706D01*
X142299674Y-118449500D01*
X141900326Y-118449500D01*
X141894266Y-118450706D01*
X141894261Y-118450706D01*
X141878721Y-118453798D01*
X141874582Y-118454621D01*
X141825418Y-118454621D01*
X141821279Y-118453798D01*
X141805739Y-118450706D01*
X141805734Y-118450706D01*
X141799674Y-118449500D01*
X141400326Y-118449500D01*
X141394266Y-118450706D01*
X141394261Y-118450706D01*
X141378721Y-118453798D01*
X141374582Y-118454621D01*
X141325418Y-118454621D01*
X141321279Y-118453798D01*
X141305739Y-118450706D01*
X141305734Y-118450706D01*
X141299674Y-118449500D01*
X140900326Y-118449500D01*
X140894266Y-118450706D01*
X140894261Y-118450706D01*
X140878721Y-118453798D01*
X140874582Y-118454621D01*
X140825418Y-118454621D01*
X140821279Y-118453798D01*
X140805739Y-118450706D01*
X140805734Y-118450706D01*
X140799674Y-118449500D01*
X140400326Y-118449500D01*
X140394266Y-118450706D01*
X140394261Y-118450706D01*
X140378721Y-118453798D01*
X140374582Y-118454621D01*
X140325418Y-118454621D01*
X140321279Y-118453798D01*
X140305739Y-118450706D01*
X140305734Y-118450706D01*
X140299674Y-118449500D01*
X139900326Y-118449500D01*
X139894266Y-118450706D01*
X139894261Y-118450706D01*
X139878721Y-118453798D01*
X139874582Y-118454621D01*
X139825418Y-118454621D01*
X139821279Y-118453798D01*
X139805739Y-118450706D01*
X139805734Y-118450706D01*
X139799674Y-118449500D01*
X139400326Y-118449500D01*
X139394266Y-118450706D01*
X139394261Y-118450706D01*
X139378721Y-118453798D01*
X139374582Y-118454621D01*
X139325418Y-118454621D01*
X139321279Y-118453798D01*
X139305739Y-118450706D01*
X139305734Y-118450706D01*
X139299674Y-118449500D01*
X138900326Y-118449500D01*
X138894266Y-118450706D01*
X138894261Y-118450706D01*
X138878721Y-118453798D01*
X138874582Y-118454621D01*
X138825418Y-118454621D01*
X138821279Y-118453798D01*
X138805739Y-118450706D01*
X138805734Y-118450706D01*
X138799674Y-118449500D01*
X138400326Y-118449500D01*
X138394266Y-118450706D01*
X138394261Y-118450706D01*
X138378721Y-118453798D01*
X138374582Y-118454621D01*
X138325418Y-118454621D01*
X138321279Y-118453798D01*
X138305739Y-118450706D01*
X138305734Y-118450706D01*
X138299674Y-118449500D01*
X137900326Y-118449500D01*
X137894266Y-118450706D01*
X137894261Y-118450706D01*
X137878721Y-118453798D01*
X137874582Y-118454621D01*
X137825418Y-118454621D01*
X137821279Y-118453798D01*
X137805739Y-118450706D01*
X137805734Y-118450706D01*
X137799674Y-118449500D01*
X137400326Y-118449500D01*
X137394266Y-118450706D01*
X137394261Y-118450706D01*
X137378721Y-118453798D01*
X137374582Y-118454621D01*
X137325418Y-118454621D01*
X137321279Y-118453798D01*
X137305739Y-118450706D01*
X137305734Y-118450706D01*
X137299674Y-118449500D01*
X136900326Y-118449500D01*
X136894266Y-118450706D01*
X136894261Y-118450706D01*
X136878721Y-118453798D01*
X136874582Y-118454621D01*
X136825418Y-118454621D01*
X136821279Y-118453798D01*
X136805739Y-118450706D01*
X136805734Y-118450706D01*
X136799674Y-118449500D01*
X136400326Y-118449500D01*
X136394266Y-118450706D01*
X136394261Y-118450706D01*
X136378721Y-118453798D01*
X136374582Y-118454621D01*
X136325418Y-118454621D01*
X136321279Y-118453798D01*
X136305739Y-118450706D01*
X136305734Y-118450706D01*
X136299674Y-118449500D01*
X135900326Y-118449500D01*
X135894266Y-118450706D01*
X135894261Y-118450706D01*
X135878721Y-118453798D01*
X135874582Y-118454621D01*
X135825418Y-118454621D01*
X135821279Y-118453798D01*
X135805739Y-118450706D01*
X135805734Y-118450706D01*
X135799674Y-118449500D01*
X135400326Y-118449500D01*
X135394266Y-118450706D01*
X135394261Y-118450706D01*
X135378721Y-118453798D01*
X135374582Y-118454621D01*
X135325418Y-118454621D01*
X135321279Y-118453798D01*
X135305739Y-118450706D01*
X135305734Y-118450706D01*
X135299674Y-118449500D01*
X134900326Y-118449500D01*
X134894266Y-118450706D01*
X134894261Y-118450706D01*
X134878721Y-118453798D01*
X134874582Y-118454621D01*
X134825418Y-118454621D01*
X134821279Y-118453798D01*
X134805739Y-118450706D01*
X134805734Y-118450706D01*
X134799674Y-118449500D01*
X134400326Y-118449500D01*
X134394266Y-118450706D01*
X134394261Y-118450706D01*
X134378721Y-118453798D01*
X134374582Y-118454621D01*
X134325418Y-118454621D01*
X134321279Y-118453798D01*
X134305739Y-118450706D01*
X134305734Y-118450706D01*
X134299674Y-118449500D01*
X133900326Y-118449500D01*
X133894266Y-118450706D01*
X133894261Y-118450706D01*
X133878721Y-118453798D01*
X133874582Y-118454621D01*
X133825418Y-118454621D01*
X133821279Y-118453798D01*
X133805739Y-118450706D01*
X133805734Y-118450706D01*
X133799674Y-118449500D01*
X133453987Y-118449500D01*
X133385866Y-118429498D01*
X133339373Y-118375842D01*
X133327987Y-118323506D01*
X133327986Y-118312174D01*
X133330408Y-118300000D01*
X133329935Y-118297623D01*
X133311497Y-118122197D01*
X133305519Y-118103797D01*
X133277397Y-118017249D01*
X133256250Y-117952165D01*
X133166859Y-117797335D01*
X133047230Y-117664474D01*
X132902593Y-117559388D01*
X132896565Y-117556704D01*
X132896563Y-117556703D01*
X132745298Y-117489356D01*
X132745297Y-117489356D01*
X132739267Y-117486671D01*
X132651829Y-117468085D01*
X132570848Y-117450872D01*
X132570844Y-117450872D01*
X132564391Y-117449500D01*
X132385609Y-117449500D01*
X132379156Y-117450872D01*
X132379152Y-117450872D01*
X132298171Y-117468085D01*
X132210733Y-117486671D01*
X132204703Y-117489356D01*
X132204702Y-117489356D01*
X132053438Y-117556703D01*
X132053436Y-117556704D01*
X132047408Y-117559388D01*
X132042067Y-117563268D01*
X132042066Y-117563269D01*
X131972340Y-117613928D01*
X131902770Y-117664474D01*
X131783141Y-117797335D01*
X131693750Y-117952165D01*
X131672603Y-118017249D01*
X131644482Y-118103797D01*
X131638503Y-118122197D01*
X131637813Y-118128760D01*
X131637813Y-118128761D01*
X131631101Y-118192618D01*
X131620065Y-118297623D01*
X131619592Y-118300000D01*
X131622014Y-118312175D01*
X131622079Y-118312504D01*
X131624500Y-118337085D01*
X131624500Y-118396524D01*
X131604498Y-118464645D01*
X131550842Y-118511138D01*
X131480568Y-118521242D01*
X131428499Y-118501290D01*
X131383058Y-118470928D01*
X131383057Y-118470928D01*
X131372740Y-118464034D01*
X131299674Y-118449500D01*
X130900326Y-118449500D01*
X130894266Y-118450706D01*
X130894261Y-118450706D01*
X130878721Y-118453798D01*
X130874582Y-118454621D01*
X130825418Y-118454621D01*
X130821279Y-118453798D01*
X130805739Y-118450706D01*
X130805734Y-118450706D01*
X130799674Y-118449500D01*
X130601500Y-118449500D01*
X130533379Y-118429498D01*
X130486886Y-118375842D01*
X130475500Y-118323500D01*
X130475500Y-118092886D01*
X130495502Y-118024765D01*
X130519669Y-117997075D01*
X130576576Y-117948472D01*
X130576577Y-117948471D01*
X130582348Y-117943542D01*
X130674224Y-117815683D01*
X130732950Y-117669598D01*
X130742101Y-117605298D01*
X130754553Y-117517807D01*
X130754553Y-117517804D01*
X130755134Y-117513723D01*
X130755278Y-117500000D01*
X130736363Y-117343694D01*
X130680710Y-117196412D01*
X130591531Y-117066657D01*
X130544971Y-117025174D01*
X130479648Y-116966972D01*
X130479645Y-116966970D01*
X130473976Y-116961919D01*
X130454429Y-116951569D01*
X130374525Y-116909262D01*
X130334831Y-116888245D01*
X130318122Y-116884048D01*
X130189498Y-116851740D01*
X130189496Y-116851740D01*
X130182128Y-116849889D01*
X130174530Y-116849849D01*
X130174528Y-116849849D01*
X130107319Y-116849497D01*
X130024684Y-116849065D01*
X130017305Y-116850837D01*
X130017301Y-116850837D01*
X129878967Y-116884048D01*
X129878963Y-116884049D01*
X129871588Y-116885820D01*
X129731679Y-116958032D01*
X129725957Y-116963024D01*
X129725955Y-116963025D01*
X129618759Y-117056538D01*
X129618756Y-117056541D01*
X129613034Y-117061533D01*
X129608667Y-117067747D01*
X129540350Y-117164952D01*
X129522501Y-117190348D01*
X129465309Y-117337039D01*
X129464318Y-117344568D01*
X129449846Y-117454493D01*
X129444758Y-117493138D01*
X129462035Y-117649633D01*
X129516143Y-117797490D01*
X129520380Y-117803796D01*
X129520382Y-117803799D01*
X129560709Y-117863811D01*
X129603958Y-117928172D01*
X129609573Y-117933281D01*
X129609578Y-117933287D01*
X129683300Y-118000369D01*
X129720222Y-118061009D01*
X129724500Y-118093562D01*
X129724500Y-118323500D01*
X129704498Y-118391621D01*
X129650842Y-118438114D01*
X129598500Y-118449500D01*
X129400326Y-118449500D01*
X129327260Y-118464034D01*
X129244399Y-118519399D01*
X129189034Y-118602260D01*
X129186613Y-118614431D01*
X129175079Y-118672415D01*
X129142171Y-118735324D01*
X129080476Y-118770456D01*
X129009581Y-118766656D01*
X128951995Y-118725130D01*
X128926001Y-118659063D01*
X128925500Y-118647833D01*
X128925500Y-118230225D01*
X128927114Y-118210123D01*
X128928261Y-118203025D01*
X128930241Y-118190774D01*
X128928436Y-118183150D01*
X128927254Y-118172880D01*
X128913795Y-118056027D01*
X128906110Y-117989298D01*
X128857734Y-117815683D01*
X128852993Y-117798667D01*
X128852991Y-117798662D01*
X128851664Y-117793899D01*
X128767321Y-117609424D01*
X128739294Y-117567191D01*
X128657895Y-117444537D01*
X128657894Y-117444536D01*
X128655158Y-117440413D01*
X128517937Y-117291030D01*
X128359037Y-117164952D01*
X128182370Y-117065284D01*
X127992287Y-116994479D01*
X127951531Y-116986239D01*
X127888725Y-116953134D01*
X127853787Y-116891329D01*
X127850500Y-116862738D01*
X127850500Y-104938049D01*
X130253194Y-104938049D01*
X130265677Y-105197930D01*
X130316435Y-105453112D01*
X130404355Y-105697989D01*
X130527504Y-105927180D01*
X130530299Y-105930923D01*
X130530301Y-105930926D01*
X130680385Y-106131913D01*
X130680390Y-106131919D01*
X130683177Y-106135651D01*
X130686486Y-106138931D01*
X130686491Y-106138937D01*
X130787503Y-106239071D01*
X130867954Y-106318823D01*
X130871716Y-106321581D01*
X130871719Y-106321584D01*
X130984332Y-106404155D01*
X131077775Y-106472670D01*
X131081910Y-106474846D01*
X131081914Y-106474848D01*
X131207774Y-106541066D01*
X131308033Y-106593815D01*
X131553667Y-106679594D01*
X131558260Y-106680466D01*
X131804693Y-106727253D01*
X131804696Y-106727253D01*
X131809282Y-106728124D01*
X131939273Y-106733232D01*
X132064595Y-106738156D01*
X132064601Y-106738156D01*
X132069263Y-106738339D01*
X132170489Y-106727253D01*
X132323245Y-106710524D01*
X132323250Y-106710523D01*
X132327898Y-106710014D01*
X132332422Y-106708823D01*
X132574982Y-106644962D01*
X132574984Y-106644961D01*
X132579505Y-106643771D01*
X132818557Y-106541066D01*
X133039803Y-106404155D01*
X133238382Y-106236046D01*
X133409931Y-106040431D01*
X133550683Y-105821608D01*
X133657544Y-105584385D01*
X133658814Y-105579882D01*
X133726898Y-105338476D01*
X133726899Y-105338473D01*
X133728168Y-105333972D01*
X133744891Y-105202518D01*
X133760604Y-105079001D01*
X133760604Y-105078997D01*
X133761002Y-105075871D01*
X133763408Y-104984000D01*
X133759993Y-104938049D01*
X143393194Y-104938049D01*
X143405677Y-105197930D01*
X143456435Y-105453112D01*
X143544355Y-105697989D01*
X143667504Y-105927180D01*
X143670299Y-105930923D01*
X143670301Y-105930926D01*
X143820385Y-106131913D01*
X143820390Y-106131919D01*
X143823177Y-106135651D01*
X143826486Y-106138931D01*
X143826491Y-106138937D01*
X143927503Y-106239071D01*
X144007954Y-106318823D01*
X144011716Y-106321581D01*
X144011719Y-106321584D01*
X144124332Y-106404155D01*
X144217775Y-106472670D01*
X144221910Y-106474846D01*
X144221914Y-106474848D01*
X144347774Y-106541066D01*
X144448033Y-106593815D01*
X144693667Y-106679594D01*
X144698260Y-106680466D01*
X144944693Y-106727253D01*
X144944696Y-106727253D01*
X144949282Y-106728124D01*
X145079273Y-106733232D01*
X145204595Y-106738156D01*
X145204601Y-106738156D01*
X145209263Y-106738339D01*
X145310489Y-106727253D01*
X145463245Y-106710524D01*
X145463250Y-106710523D01*
X145467898Y-106710014D01*
X145472422Y-106708823D01*
X145714982Y-106644962D01*
X145714984Y-106644961D01*
X145719505Y-106643771D01*
X145958557Y-106541066D01*
X146179803Y-106404155D01*
X146378382Y-106236046D01*
X146549931Y-106040431D01*
X146690683Y-105821608D01*
X146797544Y-105584385D01*
X146798814Y-105579882D01*
X146866898Y-105338476D01*
X146866899Y-105338473D01*
X146868168Y-105333972D01*
X146884891Y-105202518D01*
X146900604Y-105079001D01*
X146900604Y-105078997D01*
X146901002Y-105075871D01*
X146903408Y-104984000D01*
X146884126Y-104724534D01*
X146826705Y-104470768D01*
X146825012Y-104466414D01*
X146734098Y-104232630D01*
X146734097Y-104232628D01*
X146732405Y-104228277D01*
X146603299Y-104002388D01*
X146442223Y-103798064D01*
X146252714Y-103619792D01*
X146038937Y-103471489D01*
X146034747Y-103469423D01*
X146034744Y-103469421D01*
X145809775Y-103358479D01*
X145809772Y-103358478D01*
X145805587Y-103356414D01*
X145557792Y-103277094D01*
X145417569Y-103254257D01*
X145305606Y-103236023D01*
X145305605Y-103236023D01*
X145300994Y-103235272D01*
X145170914Y-103233569D01*
X145045512Y-103231927D01*
X145045509Y-103231927D01*
X145040835Y-103231866D01*
X144783030Y-103266952D01*
X144533243Y-103339758D01*
X144528990Y-103341718D01*
X144528989Y-103341719D01*
X144492634Y-103358479D01*
X144296961Y-103448686D01*
X144293056Y-103451246D01*
X144293051Y-103451249D01*
X144083288Y-103588775D01*
X144083283Y-103588779D01*
X144079375Y-103591341D01*
X143885265Y-103764591D01*
X143718895Y-103964629D01*
X143583920Y-104187061D01*
X143582111Y-104191375D01*
X143582110Y-104191377D01*
X143568338Y-104224221D01*
X143483305Y-104427001D01*
X143419261Y-104679177D01*
X143393194Y-104938049D01*
X133759993Y-104938049D01*
X133744126Y-104724534D01*
X133686705Y-104470768D01*
X133685012Y-104466414D01*
X133594098Y-104232630D01*
X133594097Y-104232628D01*
X133592405Y-104228277D01*
X133463299Y-104002388D01*
X133302223Y-103798064D01*
X133112714Y-103619792D01*
X132898937Y-103471489D01*
X132894747Y-103469423D01*
X132894744Y-103469421D01*
X132669775Y-103358479D01*
X132669772Y-103358478D01*
X132665587Y-103356414D01*
X132417792Y-103277094D01*
X132277569Y-103254257D01*
X132165606Y-103236023D01*
X132165605Y-103236023D01*
X132160994Y-103235272D01*
X132030914Y-103233569D01*
X131905512Y-103231927D01*
X131905509Y-103231927D01*
X131900835Y-103231866D01*
X131643030Y-103266952D01*
X131393243Y-103339758D01*
X131388990Y-103341718D01*
X131388989Y-103341719D01*
X131352634Y-103358479D01*
X131156961Y-103448686D01*
X131153056Y-103451246D01*
X131153051Y-103451249D01*
X130943288Y-103588775D01*
X130943283Y-103588779D01*
X130939375Y-103591341D01*
X130745265Y-103764591D01*
X130578895Y-103964629D01*
X130443920Y-104187061D01*
X130442111Y-104191375D01*
X130442110Y-104191377D01*
X130428338Y-104224221D01*
X130343305Y-104427001D01*
X130279261Y-104679177D01*
X130253194Y-104938049D01*
X127850500Y-104938049D01*
X127850500Y-79576500D01*
X127870502Y-79508379D01*
X127924158Y-79461886D01*
X127976500Y-79450500D01*
X135233161Y-79450500D01*
X135301282Y-79470502D01*
G37*
%TD.AperFunction*%
%TD*%
M02*
