%TF.GenerationSoftware,KiCad,Pcbnew,6.0.10-86aedd382b~118~ubuntu20.04.1*%
%TF.CreationDate,2023-02-01T16:29:48-05:00*%
%TF.ProjectId,Logitech Unifying 2242,4c6f6769-7465-4636-9820-556e69667969,A*%
%TF.SameCoordinates,Original*%
%TF.FileFunction,Copper,L2,Bot*%
%TF.FilePolarity,Positive*%
%FSLAX46Y46*%
G04 Gerber Fmt 4.6, Leading zero omitted, Abs format (unit mm)*
G04 Created by KiCad (PCBNEW 6.0.10-86aedd382b~118~ubuntu20.04.1) date 2023-02-01 16:29:48*
%MOMM*%
%LPD*%
G01*
G04 APERTURE LIST*
%TA.AperFunction,SMDPad,CuDef*%
%ADD10R,0.350000X2.500000*%
%TD*%
%TA.AperFunction,ComponentPad*%
%ADD11C,5.500000*%
%TD*%
%TA.AperFunction,ComponentPad*%
%ADD12C,3.000000*%
%TD*%
%TA.AperFunction,ViaPad*%
%ADD13C,0.800000*%
%TD*%
%TA.AperFunction,Conductor*%
%ADD14C,0.250000*%
%TD*%
G04 APERTURE END LIST*
D10*
%TO.P,J1,2,3.3V*%
%TO.N,+3V3*%
X147600000Y-119950000D03*
D11*
%TO.P,J1,3,GND*%
%TO.N,GND*%
X138600000Y-79200000D03*
D10*
%TO.P,J1,4,3.3V*%
%TO.N,+3V3*%
X147100000Y-119950000D03*
%TO.P,J1,6,~{FULL_CARD_POWER_OFF}*%
%TO.N,unconnected-(J1-Pad6)*%
X146600000Y-119950000D03*
%TO.P,J1,8,~{W_DISABLE1}*%
%TO.N,unconnected-(J1-Pad8)*%
X146100000Y-119950000D03*
%TO.P,J1,10,GPIO_9/DAS/~{DSS}/~{LED1}*%
%TO.N,unconnected-(J1-Pad10)*%
X145600000Y-119950000D03*
%TO.P,J1,20,GPIO_5*%
%TO.N,unconnected-(J1-Pad20)*%
X143100000Y-119950000D03*
%TO.P,J1,22,GPIO_6*%
%TO.N,unconnected-(J1-Pad22)*%
X142600000Y-119950000D03*
%TO.P,J1,24,GPIO_7*%
%TO.N,unconnected-(J1-Pad24)*%
X142100000Y-119950000D03*
%TO.P,J1,26,GPIO_10*%
%TO.N,unconnected-(J1-Pad26)*%
X141600000Y-119950000D03*
%TO.P,J1,28,GPIO_8*%
%TO.N,unconnected-(J1-Pad28)*%
X141100000Y-119950000D03*
%TO.P,J1,30,UIM-RESET*%
%TO.N,unconnected-(J1-Pad30)*%
X140600000Y-119950000D03*
%TO.P,J1,32,UIM-CLK*%
%TO.N,unconnected-(J1-Pad32)*%
X140100000Y-119950000D03*
%TO.P,J1,34,UIM-DATA*%
%TO.N,unconnected-(J1-Pad34)*%
X139600000Y-119950000D03*
%TO.P,J1,36,UIM-PWR*%
%TO.N,unconnected-(J1-Pad36)*%
X139100000Y-119950000D03*
%TO.P,J1,38,DEVSLP*%
%TO.N,unconnected-(J1-Pad38)*%
X138600000Y-119950000D03*
%TO.P,J1,40,GPIO_0*%
%TO.N,unconnected-(J1-Pad40)*%
X138100000Y-119950000D03*
%TO.P,J1,42,GPIO_1*%
%TO.N,unconnected-(J1-Pad42)*%
X137600000Y-119950000D03*
%TO.P,J1,44,GPIO_2*%
%TO.N,unconnected-(J1-Pad44)*%
X137100000Y-119950000D03*
%TO.P,J1,46,GPIO_3*%
%TO.N,unconnected-(J1-Pad46)*%
X136600000Y-119950000D03*
%TO.P,J1,48,GPIO_4*%
%TO.N,unconnected-(J1-Pad48)*%
X136100000Y-119950000D03*
%TO.P,J1,50,~{PERST}*%
%TO.N,unconnected-(J1-Pad50)*%
X135600000Y-119950000D03*
%TO.P,J1,52,~{CLKREQ}*%
%TO.N,unconnected-(J1-Pad52)*%
X135100000Y-119950000D03*
%TO.P,J1,54,~{PEWAKE}*%
%TO.N,unconnected-(J1-Pad54)*%
X134600000Y-119950000D03*
%TO.P,J1,56,NC*%
%TO.N,unconnected-(J1-Pad56)*%
X134100000Y-119950000D03*
%TO.P,J1,58,NC*%
%TO.N,unconnected-(J1-Pad58)*%
X133600000Y-119950000D03*
%TO.P,J1,68,SUSCLK*%
%TO.N,unconnected-(J1-Pad68)*%
X131100000Y-119950000D03*
%TO.P,J1,70,3.3V*%
%TO.N,+3V3*%
X130600000Y-119950000D03*
%TO.P,J1,72,3.3V*%
X130100000Y-119950000D03*
%TO.P,J1,74,3.3V*%
X129600000Y-119950000D03*
%TD*%
D12*
%TO.P,USB,5*%
%TO.N,N/C*%
X145148000Y-104984000D03*
X132008000Y-104984000D03*
%TD*%
D13*
%TO.N,GND*%
X128600000Y-110600000D03*
X133400000Y-117400000D03*
X146100000Y-116000000D03*
X146300000Y-108900000D03*
X143800000Y-117024500D03*
X147700000Y-117200000D03*
X133500000Y-109700000D03*
%TO.N,+3V3*%
X130100000Y-117500000D03*
X132700000Y-116300000D03*
%TD*%
D14*
%TO.N,+3V3*%
X130100000Y-119950000D02*
X130100000Y-117800000D01*
X147100000Y-119950000D02*
X147100000Y-118375000D01*
X145025000Y-116300000D02*
X132700000Y-116300000D01*
X147100000Y-118375000D02*
X145025000Y-116300000D01*
X147100000Y-119950000D02*
X147600000Y-119950000D01*
X130600000Y-119950000D02*
X130100000Y-119950000D01*
X130100000Y-119950000D02*
X129600000Y-119950000D01*
X130100000Y-117800000D02*
X130100000Y-117500000D01*
%TD*%
%TA.AperFunction,Conductor*%
%TO.N,GND*%
G36*
X135301282Y-79470502D02*
G01*
X135347775Y-79524158D01*
X135357575Y-79556572D01*
X135410363Y-79886141D01*
X135411802Y-79892796D01*
X135503122Y-80226604D01*
X135505271Y-80233065D01*
X135632110Y-80555067D01*
X135634941Y-80561250D01*
X135795815Y-80867670D01*
X135799298Y-80873513D01*
X135992321Y-81160761D01*
X135996424Y-81166205D01*
X136111911Y-81303351D01*
X136124650Y-81311794D01*
X136135094Y-81305696D01*
X137953385Y-79487405D01*
X138015697Y-79453379D01*
X138042480Y-79450500D01*
X138404520Y-79450500D01*
X138472641Y-79470502D01*
X138519134Y-79524158D01*
X138529238Y-79594432D01*
X138499744Y-79659012D01*
X138493615Y-79665595D01*
X136492422Y-81666788D01*
X136485541Y-81679389D01*
X136493678Y-81690395D01*
X136753938Y-81890099D01*
X136759537Y-81893933D01*
X137055261Y-82073736D01*
X137061251Y-82076948D01*
X137374657Y-82223758D01*
X137380961Y-82226305D01*
X137708384Y-82338406D01*
X137714935Y-82340260D01*
X138052539Y-82416342D01*
X138059258Y-82417479D01*
X138403113Y-82456657D01*
X138409903Y-82457060D01*
X138755973Y-82458872D01*
X138762774Y-82458540D01*
X139107020Y-82422966D01*
X139113748Y-82421900D01*
X139452144Y-82349353D01*
X139458693Y-82347574D01*
X139787278Y-82238905D01*
X139793620Y-82236419D01*
X140108523Y-82092910D01*
X140114577Y-82089745D01*
X140412128Y-81913073D01*
X140417809Y-81909270D01*
X140694547Y-81701489D01*
X140699771Y-81697105D01*
X140706238Y-81691053D01*
X140714307Y-81677373D01*
X140714280Y-81676649D01*
X140709136Y-81668346D01*
X138706385Y-79665595D01*
X138672359Y-79603283D01*
X138677424Y-79532468D01*
X138719971Y-79475632D01*
X138786491Y-79450821D01*
X138795480Y-79450500D01*
X139157520Y-79450500D01*
X139225641Y-79470502D01*
X139246615Y-79487405D01*
X141063553Y-81304343D01*
X141077150Y-81311768D01*
X141086761Y-81305068D01*
X141182845Y-81193360D01*
X141187003Y-81187960D01*
X141383023Y-80902751D01*
X141386570Y-80896940D01*
X141550634Y-80592238D01*
X141553541Y-80586060D01*
X141683744Y-80265411D01*
X141685958Y-80258981D01*
X141780769Y-79926143D01*
X141782276Y-79919513D01*
X141840587Y-79578379D01*
X141841372Y-79571593D01*
X141841543Y-79568799D01*
X141865671Y-79502028D01*
X141922067Y-79458902D01*
X141967307Y-79450500D01*
X149223500Y-79450500D01*
X149291621Y-79470502D01*
X149338114Y-79524158D01*
X149349500Y-79576500D01*
X149349500Y-116862738D01*
X149329498Y-116930859D01*
X149275842Y-116977352D01*
X149248468Y-116986239D01*
X149207713Y-116994479D01*
X149017630Y-117065284D01*
X148840963Y-117164952D01*
X148682063Y-117291030D01*
X148544842Y-117440413D01*
X148542106Y-117444536D01*
X148542105Y-117444537D01*
X148460707Y-117567191D01*
X148432679Y-117609424D01*
X148348336Y-117793899D01*
X148347009Y-117798662D01*
X148347007Y-117798667D01*
X148342266Y-117815683D01*
X148293890Y-117989298D01*
X148271564Y-118183150D01*
X148269759Y-118190774D01*
X148271739Y-118203025D01*
X148272886Y-118210123D01*
X148274500Y-118230225D01*
X148274500Y-120823500D01*
X148254498Y-120891621D01*
X148200842Y-120938114D01*
X148148500Y-120949500D01*
X147911500Y-120949500D01*
X147843379Y-120929498D01*
X147796886Y-120875842D01*
X147785500Y-120823500D01*
X147785500Y-120347469D01*
X147805502Y-120279348D01*
X147829958Y-120252625D01*
X147833329Y-120250806D01*
X147868594Y-120212657D01*
X147911118Y-120166654D01*
X147918185Y-120159009D01*
X147939878Y-120109942D01*
X147964520Y-120054201D01*
X147968732Y-120044674D01*
X147979518Y-119920131D01*
X147949382Y-119798809D01*
X147912050Y-119740991D01*
X147887220Y-119702537D01*
X147881572Y-119693790D01*
X147873398Y-119687346D01*
X147873395Y-119687343D01*
X147833494Y-119655888D01*
X147792381Y-119598006D01*
X147785500Y-119556938D01*
X147785500Y-118698964D01*
X147784891Y-118695903D01*
X147782570Y-118692430D01*
X147779097Y-118690109D01*
X147776036Y-118689500D01*
X147601500Y-118689500D01*
X147533379Y-118669498D01*
X147486886Y-118615842D01*
X147475500Y-118563500D01*
X147475500Y-118428497D01*
X147477979Y-118405209D01*
X147478078Y-118403111D01*
X147480269Y-118392934D01*
X147476373Y-118360016D01*
X147476029Y-118354179D01*
X147475928Y-118354187D01*
X147475500Y-118349008D01*
X147475500Y-118343807D01*
X147474382Y-118337085D01*
X147472372Y-118325013D01*
X147471535Y-118319137D01*
X147466800Y-118279133D01*
X147465576Y-118268790D01*
X147461654Y-118260623D01*
X147460167Y-118251687D01*
X147455223Y-118242525D01*
X147455222Y-118242521D01*
X147436094Y-118207071D01*
X147433398Y-118201780D01*
X147414897Y-118163251D01*
X147414896Y-118163250D01*
X147411463Y-118156100D01*
X147407906Y-118151869D01*
X147405974Y-118149937D01*
X147404255Y-118148063D01*
X147404181Y-118147926D01*
X147404291Y-118147826D01*
X147403868Y-118147346D01*
X147400806Y-118141671D01*
X147372947Y-118115918D01*
X147361633Y-118105460D01*
X147358067Y-118102030D01*
X145328348Y-116072311D01*
X145313623Y-116054080D01*
X145312222Y-116052540D01*
X145306572Y-116043790D01*
X145280535Y-116023264D01*
X145276168Y-116019383D01*
X145276102Y-116019461D01*
X145272144Y-116016107D01*
X145268462Y-116012425D01*
X145264231Y-116009402D01*
X145264228Y-116009399D01*
X145259409Y-116005956D01*
X145252948Y-116001339D01*
X145248212Y-115997783D01*
X145208400Y-115966397D01*
X145199851Y-115963395D01*
X145192481Y-115958128D01*
X145159203Y-115948176D01*
X145143930Y-115943608D01*
X145138286Y-115941774D01*
X145097935Y-115927604D01*
X145097929Y-115927603D01*
X145090452Y-115924977D01*
X145084945Y-115924500D01*
X145082238Y-115924500D01*
X145079665Y-115924389D01*
X145079506Y-115924341D01*
X145079512Y-115924197D01*
X145078892Y-115924158D01*
X145072713Y-115922310D01*
X145019445Y-115924403D01*
X145014498Y-115924500D01*
X133297577Y-115924500D01*
X133229456Y-115904498D01*
X133201853Y-115877736D01*
X133200856Y-115878615D01*
X133195837Y-115872922D01*
X133191531Y-115866657D01*
X133164492Y-115842566D01*
X133079648Y-115766972D01*
X133079645Y-115766970D01*
X133073976Y-115761919D01*
X132934831Y-115688245D01*
X132918122Y-115684048D01*
X132789498Y-115651740D01*
X132789496Y-115651740D01*
X132782128Y-115649889D01*
X132774530Y-115649849D01*
X132774528Y-115649849D01*
X132707319Y-115649497D01*
X132624684Y-115649065D01*
X132617305Y-115650837D01*
X132617301Y-115650837D01*
X132478967Y-115684048D01*
X132478963Y-115684049D01*
X132471588Y-115685820D01*
X132331679Y-115758032D01*
X132325957Y-115763024D01*
X132325955Y-115763025D01*
X132218759Y-115856538D01*
X132218756Y-115856541D01*
X132213034Y-115861533D01*
X132201029Y-115878615D01*
X132138153Y-115968078D01*
X132122501Y-115990348D01*
X132065309Y-116137039D01*
X132044758Y-116293138D01*
X132062035Y-116449633D01*
X132116143Y-116597490D01*
X132203958Y-116728172D01*
X132320410Y-116834135D01*
X132349425Y-116849889D01*
X132452099Y-116905637D01*
X132452101Y-116905638D01*
X132458776Y-116909262D01*
X132466125Y-116911190D01*
X132603719Y-116947287D01*
X132603721Y-116947287D01*
X132611069Y-116949215D01*
X132694380Y-116950524D01*
X132760898Y-116951569D01*
X132760901Y-116951569D01*
X132768495Y-116951688D01*
X132921968Y-116916538D01*
X133062625Y-116845795D01*
X133088869Y-116823381D01*
X133176574Y-116748474D01*
X133176576Y-116748471D01*
X133182348Y-116743542D01*
X133186777Y-116737378D01*
X133186780Y-116737375D01*
X133193536Y-116727973D01*
X133249531Y-116684326D01*
X133295858Y-116675500D01*
X144817273Y-116675500D01*
X144885394Y-116695502D01*
X144906368Y-116712405D01*
X146668368Y-118474405D01*
X146702394Y-118536717D01*
X146697329Y-118607532D01*
X146654782Y-118664368D01*
X146588262Y-118689179D01*
X146579273Y-118689500D01*
X146423964Y-118689500D01*
X146420903Y-118690109D01*
X146417430Y-118692430D01*
X146415823Y-118694835D01*
X146399117Y-118701756D01*
X146397465Y-118697768D01*
X146352247Y-118711926D01*
X146302697Y-118697377D01*
X146300883Y-118701756D01*
X146284177Y-118694835D01*
X146282570Y-118692430D01*
X146279097Y-118690109D01*
X146276036Y-118689500D01*
X145923964Y-118689500D01*
X145920903Y-118690109D01*
X145917430Y-118692430D01*
X145915823Y-118694835D01*
X145899117Y-118701756D01*
X145897465Y-118697768D01*
X145852247Y-118711926D01*
X145802697Y-118697377D01*
X145800883Y-118701756D01*
X145784177Y-118694835D01*
X145782570Y-118692430D01*
X145779097Y-118690109D01*
X145776036Y-118689500D01*
X145423964Y-118689500D01*
X145420903Y-118690109D01*
X145417430Y-118692430D01*
X145415109Y-118695903D01*
X145414500Y-118698964D01*
X145414500Y-120823500D01*
X145394498Y-120891621D01*
X145340842Y-120938114D01*
X145288500Y-120949500D01*
X145201500Y-120949500D01*
X145133379Y-120929498D01*
X145086886Y-120875842D01*
X145075500Y-120823500D01*
X145075500Y-118337085D01*
X145077921Y-118312504D01*
X145077986Y-118312175D01*
X145080408Y-118300000D01*
X145079935Y-118297623D01*
X145061497Y-118122197D01*
X145055519Y-118103797D01*
X145027397Y-118017249D01*
X145006250Y-117952165D01*
X144916859Y-117797335D01*
X144797230Y-117664474D01*
X144652593Y-117559388D01*
X144646565Y-117556704D01*
X144646563Y-117556703D01*
X144495298Y-117489356D01*
X144495297Y-117489356D01*
X144489267Y-117486671D01*
X144401829Y-117468085D01*
X144320848Y-117450872D01*
X144320844Y-117450872D01*
X144314391Y-117449500D01*
X144135609Y-117449500D01*
X144129156Y-117450872D01*
X144129152Y-117450872D01*
X144048171Y-117468085D01*
X143960733Y-117486671D01*
X143954703Y-117489356D01*
X143954702Y-117489356D01*
X143803438Y-117556703D01*
X143803436Y-117556704D01*
X143797408Y-117559388D01*
X143792067Y-117563268D01*
X143792066Y-117563269D01*
X143722340Y-117613928D01*
X143652770Y-117664474D01*
X143533141Y-117797335D01*
X143443750Y-117952165D01*
X143422603Y-118017249D01*
X143394482Y-118103797D01*
X143388503Y-118122197D01*
X143387813Y-118128760D01*
X143387813Y-118128761D01*
X143381101Y-118192618D01*
X143370065Y-118297623D01*
X143369592Y-118300000D01*
X143372014Y-118312175D01*
X143372079Y-118312504D01*
X143374500Y-118337085D01*
X143374500Y-118563500D01*
X143354498Y-118631621D01*
X143300842Y-118678114D01*
X143248500Y-118689500D01*
X142923964Y-118689500D01*
X142920903Y-118690109D01*
X142917430Y-118692430D01*
X142915823Y-118694835D01*
X142899117Y-118701756D01*
X142897465Y-118697768D01*
X142852247Y-118711926D01*
X142802697Y-118697377D01*
X142800883Y-118701756D01*
X142784177Y-118694835D01*
X142782570Y-118692430D01*
X142779097Y-118690109D01*
X142776036Y-118689500D01*
X142423964Y-118689500D01*
X142420903Y-118690109D01*
X142417430Y-118692430D01*
X142415823Y-118694835D01*
X142399117Y-118701756D01*
X142397465Y-118697768D01*
X142352247Y-118711926D01*
X142302697Y-118697377D01*
X142300883Y-118701756D01*
X142284177Y-118694835D01*
X142282570Y-118692430D01*
X142279097Y-118690109D01*
X142276036Y-118689500D01*
X141923964Y-118689500D01*
X141920903Y-118690109D01*
X141917430Y-118692430D01*
X141915823Y-118694835D01*
X141899117Y-118701756D01*
X141897465Y-118697768D01*
X141852247Y-118711926D01*
X141802697Y-118697377D01*
X141800883Y-118701756D01*
X141784177Y-118694835D01*
X141782570Y-118692430D01*
X141779097Y-118690109D01*
X141776036Y-118689500D01*
X141423964Y-118689500D01*
X141420903Y-118690109D01*
X141417430Y-118692430D01*
X141415823Y-118694835D01*
X141399117Y-118701756D01*
X141397465Y-118697768D01*
X141352247Y-118711926D01*
X141302697Y-118697377D01*
X141300883Y-118701756D01*
X141284177Y-118694835D01*
X141282570Y-118692430D01*
X141279097Y-118690109D01*
X141276036Y-118689500D01*
X140923964Y-118689500D01*
X140920903Y-118690109D01*
X140917430Y-118692430D01*
X140915823Y-118694835D01*
X140899117Y-118701756D01*
X140897465Y-118697768D01*
X140852247Y-118711926D01*
X140802697Y-118697377D01*
X140800883Y-118701756D01*
X140784177Y-118694835D01*
X140782570Y-118692430D01*
X140779097Y-118690109D01*
X140776036Y-118689500D01*
X140423964Y-118689500D01*
X140420903Y-118690109D01*
X140417430Y-118692430D01*
X140415823Y-118694835D01*
X140399117Y-118701756D01*
X140397465Y-118697768D01*
X140352247Y-118711926D01*
X140302697Y-118697377D01*
X140300883Y-118701756D01*
X140284177Y-118694835D01*
X140282570Y-118692430D01*
X140279097Y-118690109D01*
X140276036Y-118689500D01*
X139923964Y-118689500D01*
X139920903Y-118690109D01*
X139917430Y-118692430D01*
X139915823Y-118694835D01*
X139899117Y-118701756D01*
X139897465Y-118697768D01*
X139852247Y-118711926D01*
X139802697Y-118697377D01*
X139800883Y-118701756D01*
X139784177Y-118694835D01*
X139782570Y-118692430D01*
X139779097Y-118690109D01*
X139776036Y-118689500D01*
X139423964Y-118689500D01*
X139420903Y-118690109D01*
X139417430Y-118692430D01*
X139415823Y-118694835D01*
X139399117Y-118701756D01*
X139397465Y-118697768D01*
X139352247Y-118711926D01*
X139302697Y-118697377D01*
X139300883Y-118701756D01*
X139284177Y-118694835D01*
X139282570Y-118692430D01*
X139279097Y-118690109D01*
X139276036Y-118689500D01*
X138923964Y-118689500D01*
X138920903Y-118690109D01*
X138917430Y-118692430D01*
X138915823Y-118694835D01*
X138899117Y-118701756D01*
X138897465Y-118697768D01*
X138852247Y-118711926D01*
X138802697Y-118697377D01*
X138800883Y-118701756D01*
X138784177Y-118694835D01*
X138782570Y-118692430D01*
X138779097Y-118690109D01*
X138776036Y-118689500D01*
X138423964Y-118689500D01*
X138420903Y-118690109D01*
X138417430Y-118692430D01*
X138415823Y-118694835D01*
X138399117Y-118701756D01*
X138397465Y-118697768D01*
X138352247Y-118711926D01*
X138302697Y-118697377D01*
X138300883Y-118701756D01*
X138284177Y-118694835D01*
X138282570Y-118692430D01*
X138279097Y-118690109D01*
X138276036Y-118689500D01*
X137923964Y-118689500D01*
X137920903Y-118690109D01*
X137917430Y-118692430D01*
X137915823Y-118694835D01*
X137899117Y-118701756D01*
X137897465Y-118697768D01*
X137852247Y-118711926D01*
X137802697Y-118697377D01*
X137800883Y-118701756D01*
X137784177Y-118694835D01*
X137782570Y-118692430D01*
X137779097Y-118690109D01*
X137776036Y-118689500D01*
X137423964Y-118689500D01*
X137420903Y-118690109D01*
X137417430Y-118692430D01*
X137415823Y-118694835D01*
X137399117Y-118701756D01*
X137397465Y-118697768D01*
X137352247Y-118711926D01*
X137302697Y-118697377D01*
X137300883Y-118701756D01*
X137284177Y-118694835D01*
X137282570Y-118692430D01*
X137279097Y-118690109D01*
X137276036Y-118689500D01*
X136923964Y-118689500D01*
X136920903Y-118690109D01*
X136917430Y-118692430D01*
X136915823Y-118694835D01*
X136899117Y-118701756D01*
X136897465Y-118697768D01*
X136852247Y-118711926D01*
X136802697Y-118697377D01*
X136800883Y-118701756D01*
X136784177Y-118694835D01*
X136782570Y-118692430D01*
X136779097Y-118690109D01*
X136776036Y-118689500D01*
X136423964Y-118689500D01*
X136420903Y-118690109D01*
X136417430Y-118692430D01*
X136415823Y-118694835D01*
X136399117Y-118701756D01*
X136397465Y-118697768D01*
X136352247Y-118711926D01*
X136302697Y-118697377D01*
X136300883Y-118701756D01*
X136284177Y-118694835D01*
X136282570Y-118692430D01*
X136279097Y-118690109D01*
X136276036Y-118689500D01*
X135923964Y-118689500D01*
X135920903Y-118690109D01*
X135917430Y-118692430D01*
X135915823Y-118694835D01*
X135899117Y-118701756D01*
X135897465Y-118697768D01*
X135852247Y-118711926D01*
X135802697Y-118697377D01*
X135800883Y-118701756D01*
X135784177Y-118694835D01*
X135782570Y-118692430D01*
X135779097Y-118690109D01*
X135776036Y-118689500D01*
X135423964Y-118689500D01*
X135420903Y-118690109D01*
X135417430Y-118692430D01*
X135415823Y-118694835D01*
X135399117Y-118701756D01*
X135397465Y-118697768D01*
X135352247Y-118711926D01*
X135302697Y-118697377D01*
X135300883Y-118701756D01*
X135284177Y-118694835D01*
X135282570Y-118692430D01*
X135279097Y-118690109D01*
X135276036Y-118689500D01*
X134923964Y-118689500D01*
X134920903Y-118690109D01*
X134917430Y-118692430D01*
X134915823Y-118694835D01*
X134899117Y-118701756D01*
X134897465Y-118697768D01*
X134852247Y-118711926D01*
X134802697Y-118697377D01*
X134800883Y-118701756D01*
X134784177Y-118694835D01*
X134782570Y-118692430D01*
X134779097Y-118690109D01*
X134776036Y-118689500D01*
X134423964Y-118689500D01*
X134420903Y-118690109D01*
X134417430Y-118692430D01*
X134415823Y-118694835D01*
X134399117Y-118701756D01*
X134397465Y-118697768D01*
X134352247Y-118711926D01*
X134302697Y-118697377D01*
X134300883Y-118701756D01*
X134284177Y-118694835D01*
X134282570Y-118692430D01*
X134279097Y-118690109D01*
X134276036Y-118689500D01*
X133923964Y-118689500D01*
X133920903Y-118690109D01*
X133917430Y-118692430D01*
X133915823Y-118694835D01*
X133899117Y-118701756D01*
X133897465Y-118697768D01*
X133852247Y-118711926D01*
X133802697Y-118697377D01*
X133800883Y-118701756D01*
X133784177Y-118694835D01*
X133782570Y-118692430D01*
X133779097Y-118690109D01*
X133776036Y-118689500D01*
X133451500Y-118689500D01*
X133383379Y-118669498D01*
X133336886Y-118615842D01*
X133325500Y-118563500D01*
X133325500Y-118337085D01*
X133327921Y-118312504D01*
X133327986Y-118312175D01*
X133330408Y-118300000D01*
X133329935Y-118297623D01*
X133311497Y-118122197D01*
X133305519Y-118103797D01*
X133277397Y-118017249D01*
X133256250Y-117952165D01*
X133166859Y-117797335D01*
X133047230Y-117664474D01*
X132902593Y-117559388D01*
X132896565Y-117556704D01*
X132896563Y-117556703D01*
X132745298Y-117489356D01*
X132745297Y-117489356D01*
X132739267Y-117486671D01*
X132651829Y-117468085D01*
X132570848Y-117450872D01*
X132570844Y-117450872D01*
X132564391Y-117449500D01*
X132385609Y-117449500D01*
X132379156Y-117450872D01*
X132379152Y-117450872D01*
X132298171Y-117468085D01*
X132210733Y-117486671D01*
X132204703Y-117489356D01*
X132204702Y-117489356D01*
X132053438Y-117556703D01*
X132053436Y-117556704D01*
X132047408Y-117559388D01*
X132042067Y-117563268D01*
X132042066Y-117563269D01*
X131972340Y-117613928D01*
X131902770Y-117664474D01*
X131783141Y-117797335D01*
X131693750Y-117952165D01*
X131672603Y-118017249D01*
X131644482Y-118103797D01*
X131638503Y-118122197D01*
X131637813Y-118128760D01*
X131637813Y-118128761D01*
X131631101Y-118192618D01*
X131620065Y-118297623D01*
X131619592Y-118300000D01*
X131622014Y-118312175D01*
X131622079Y-118312504D01*
X131624500Y-118337085D01*
X131624500Y-120823500D01*
X131604498Y-120891621D01*
X131550842Y-120938114D01*
X131498500Y-120949500D01*
X131411500Y-120949500D01*
X131343379Y-120929498D01*
X131296886Y-120875842D01*
X131285500Y-120823500D01*
X131285500Y-118698964D01*
X131284891Y-118695903D01*
X131282570Y-118692430D01*
X131279097Y-118690109D01*
X131276036Y-118689500D01*
X130923964Y-118689500D01*
X130920903Y-118690109D01*
X130917430Y-118692430D01*
X130915823Y-118694835D01*
X130899117Y-118701756D01*
X130897465Y-118697768D01*
X130852247Y-118711926D01*
X130802697Y-118697377D01*
X130800883Y-118701756D01*
X130784177Y-118694835D01*
X130782570Y-118692430D01*
X130779097Y-118690109D01*
X130776036Y-118689500D01*
X130601500Y-118689500D01*
X130533379Y-118669498D01*
X130486886Y-118615842D01*
X130475500Y-118563500D01*
X130475500Y-118092886D01*
X130495502Y-118024765D01*
X130519669Y-117997075D01*
X130576576Y-117948472D01*
X130576577Y-117948471D01*
X130582348Y-117943542D01*
X130674224Y-117815683D01*
X130732950Y-117669598D01*
X130742101Y-117605298D01*
X130754553Y-117517807D01*
X130754553Y-117517804D01*
X130755134Y-117513723D01*
X130755278Y-117500000D01*
X130736363Y-117343694D01*
X130680710Y-117196412D01*
X130591531Y-117066657D01*
X130544971Y-117025174D01*
X130479648Y-116966972D01*
X130479645Y-116966970D01*
X130473976Y-116961919D01*
X130454429Y-116951569D01*
X130374525Y-116909262D01*
X130334831Y-116888245D01*
X130318122Y-116884048D01*
X130189498Y-116851740D01*
X130189496Y-116851740D01*
X130182128Y-116849889D01*
X130174530Y-116849849D01*
X130174528Y-116849849D01*
X130107319Y-116849497D01*
X130024684Y-116849065D01*
X130017305Y-116850837D01*
X130017301Y-116850837D01*
X129878967Y-116884048D01*
X129878963Y-116884049D01*
X129871588Y-116885820D01*
X129731679Y-116958032D01*
X129725957Y-116963024D01*
X129725955Y-116963025D01*
X129618759Y-117056538D01*
X129618756Y-117056541D01*
X129613034Y-117061533D01*
X129608667Y-117067747D01*
X129540350Y-117164952D01*
X129522501Y-117190348D01*
X129465309Y-117337039D01*
X129464318Y-117344568D01*
X129449846Y-117454493D01*
X129444758Y-117493138D01*
X129462035Y-117649633D01*
X129516143Y-117797490D01*
X129520380Y-117803796D01*
X129520382Y-117803799D01*
X129560709Y-117863811D01*
X129603958Y-117928172D01*
X129609573Y-117933281D01*
X129609578Y-117933287D01*
X129683300Y-118000369D01*
X129720222Y-118061009D01*
X129724500Y-118093562D01*
X129724500Y-118563500D01*
X129704498Y-118631621D01*
X129650842Y-118678114D01*
X129598500Y-118689500D01*
X129423964Y-118689500D01*
X129420903Y-118690109D01*
X129417430Y-118692430D01*
X129415109Y-118695903D01*
X129414500Y-118698964D01*
X129414500Y-119552531D01*
X129394498Y-119620652D01*
X129370042Y-119647375D01*
X129366671Y-119649194D01*
X129359603Y-119656840D01*
X129359602Y-119656841D01*
X129325447Y-119693790D01*
X129281815Y-119740991D01*
X129277605Y-119750513D01*
X129277604Y-119750515D01*
X129256254Y-119798809D01*
X129231268Y-119855326D01*
X129220482Y-119979869D01*
X129250618Y-120101191D01*
X129256267Y-120109940D01*
X129256268Y-120109942D01*
X129290524Y-120162995D01*
X129318428Y-120206210D01*
X129326602Y-120212654D01*
X129326605Y-120212657D01*
X129366506Y-120244112D01*
X129407619Y-120301994D01*
X129414500Y-120343062D01*
X129414500Y-120823500D01*
X129394498Y-120891621D01*
X129340842Y-120938114D01*
X129288500Y-120949500D01*
X129051500Y-120949500D01*
X128983379Y-120929498D01*
X128936886Y-120875842D01*
X128925500Y-120823500D01*
X128925500Y-118230225D01*
X128927114Y-118210123D01*
X128928261Y-118203025D01*
X128930241Y-118190774D01*
X128928436Y-118183150D01*
X128927254Y-118172880D01*
X128913795Y-118056027D01*
X128906110Y-117989298D01*
X128857734Y-117815683D01*
X128852993Y-117798667D01*
X128852991Y-117798662D01*
X128851664Y-117793899D01*
X128767321Y-117609424D01*
X128739294Y-117567191D01*
X128657895Y-117444537D01*
X128657894Y-117444536D01*
X128655158Y-117440413D01*
X128517937Y-117291030D01*
X128359037Y-117164952D01*
X128182370Y-117065284D01*
X127992287Y-116994479D01*
X127951531Y-116986239D01*
X127888725Y-116953134D01*
X127853787Y-116891329D01*
X127850500Y-116862738D01*
X127850500Y-104938049D01*
X130253194Y-104938049D01*
X130265677Y-105197930D01*
X130316435Y-105453112D01*
X130404355Y-105697989D01*
X130527504Y-105927180D01*
X130530299Y-105930923D01*
X130530301Y-105930926D01*
X130680385Y-106131913D01*
X130680390Y-106131919D01*
X130683177Y-106135651D01*
X130686486Y-106138931D01*
X130686491Y-106138937D01*
X130787503Y-106239071D01*
X130867954Y-106318823D01*
X130871716Y-106321581D01*
X130871719Y-106321584D01*
X130984332Y-106404155D01*
X131077775Y-106472670D01*
X131081910Y-106474846D01*
X131081914Y-106474848D01*
X131207774Y-106541066D01*
X131308033Y-106593815D01*
X131553667Y-106679594D01*
X131558260Y-106680466D01*
X131804693Y-106727253D01*
X131804696Y-106727253D01*
X131809282Y-106728124D01*
X131939273Y-106733232D01*
X132064595Y-106738156D01*
X132064601Y-106738156D01*
X132069263Y-106738339D01*
X132170489Y-106727253D01*
X132323245Y-106710524D01*
X132323250Y-106710523D01*
X132327898Y-106710014D01*
X132332422Y-106708823D01*
X132574982Y-106644962D01*
X132574984Y-106644961D01*
X132579505Y-106643771D01*
X132818557Y-106541066D01*
X133039803Y-106404155D01*
X133238382Y-106236046D01*
X133409931Y-106040431D01*
X133550683Y-105821608D01*
X133657544Y-105584385D01*
X133658814Y-105579882D01*
X133726898Y-105338476D01*
X133726899Y-105338473D01*
X133728168Y-105333972D01*
X133744891Y-105202518D01*
X133760604Y-105079001D01*
X133760604Y-105078997D01*
X133761002Y-105075871D01*
X133763408Y-104984000D01*
X133759993Y-104938049D01*
X143393194Y-104938049D01*
X143405677Y-105197930D01*
X143456435Y-105453112D01*
X143544355Y-105697989D01*
X143667504Y-105927180D01*
X143670299Y-105930923D01*
X143670301Y-105930926D01*
X143820385Y-106131913D01*
X143820390Y-106131919D01*
X143823177Y-106135651D01*
X143826486Y-106138931D01*
X143826491Y-106138937D01*
X143927503Y-106239071D01*
X144007954Y-106318823D01*
X144011716Y-106321581D01*
X144011719Y-106321584D01*
X144124332Y-106404155D01*
X144217775Y-106472670D01*
X144221910Y-106474846D01*
X144221914Y-106474848D01*
X144347774Y-106541066D01*
X144448033Y-106593815D01*
X144693667Y-106679594D01*
X144698260Y-106680466D01*
X144944693Y-106727253D01*
X144944696Y-106727253D01*
X144949282Y-106728124D01*
X145079273Y-106733232D01*
X145204595Y-106738156D01*
X145204601Y-106738156D01*
X145209263Y-106738339D01*
X145310489Y-106727253D01*
X145463245Y-106710524D01*
X145463250Y-106710523D01*
X145467898Y-106710014D01*
X145472422Y-106708823D01*
X145714982Y-106644962D01*
X145714984Y-106644961D01*
X145719505Y-106643771D01*
X145958557Y-106541066D01*
X146179803Y-106404155D01*
X146378382Y-106236046D01*
X146549931Y-106040431D01*
X146690683Y-105821608D01*
X146797544Y-105584385D01*
X146798814Y-105579882D01*
X146866898Y-105338476D01*
X146866899Y-105338473D01*
X146868168Y-105333972D01*
X146884891Y-105202518D01*
X146900604Y-105079001D01*
X146900604Y-105078997D01*
X146901002Y-105075871D01*
X146903408Y-104984000D01*
X146884126Y-104724534D01*
X146826705Y-104470768D01*
X146825012Y-104466414D01*
X146734098Y-104232630D01*
X146734097Y-104232628D01*
X146732405Y-104228277D01*
X146603299Y-104002388D01*
X146442223Y-103798064D01*
X146252714Y-103619792D01*
X146038937Y-103471489D01*
X146034747Y-103469423D01*
X146034744Y-103469421D01*
X145809775Y-103358479D01*
X145809772Y-103358478D01*
X145805587Y-103356414D01*
X145557792Y-103277094D01*
X145417569Y-103254257D01*
X145305606Y-103236023D01*
X145305605Y-103236023D01*
X145300994Y-103235272D01*
X145170914Y-103233569D01*
X145045512Y-103231927D01*
X145045509Y-103231927D01*
X145040835Y-103231866D01*
X144783030Y-103266952D01*
X144533243Y-103339758D01*
X144528990Y-103341718D01*
X144528989Y-103341719D01*
X144492634Y-103358479D01*
X144296961Y-103448686D01*
X144293056Y-103451246D01*
X144293051Y-103451249D01*
X144083288Y-103588775D01*
X144083283Y-103588779D01*
X144079375Y-103591341D01*
X143885265Y-103764591D01*
X143718895Y-103964629D01*
X143583920Y-104187061D01*
X143582111Y-104191375D01*
X143582110Y-104191377D01*
X143568338Y-104224221D01*
X143483305Y-104427001D01*
X143419261Y-104679177D01*
X143393194Y-104938049D01*
X133759993Y-104938049D01*
X133744126Y-104724534D01*
X133686705Y-104470768D01*
X133685012Y-104466414D01*
X133594098Y-104232630D01*
X133594097Y-104232628D01*
X133592405Y-104228277D01*
X133463299Y-104002388D01*
X133302223Y-103798064D01*
X133112714Y-103619792D01*
X132898937Y-103471489D01*
X132894747Y-103469423D01*
X132894744Y-103469421D01*
X132669775Y-103358479D01*
X132669772Y-103358478D01*
X132665587Y-103356414D01*
X132417792Y-103277094D01*
X132277569Y-103254257D01*
X132165606Y-103236023D01*
X132165605Y-103236023D01*
X132160994Y-103235272D01*
X132030914Y-103233569D01*
X131905512Y-103231927D01*
X131905509Y-103231927D01*
X131900835Y-103231866D01*
X131643030Y-103266952D01*
X131393243Y-103339758D01*
X131388990Y-103341718D01*
X131388989Y-103341719D01*
X131352634Y-103358479D01*
X131156961Y-103448686D01*
X131153056Y-103451246D01*
X131153051Y-103451249D01*
X130943288Y-103588775D01*
X130943283Y-103588779D01*
X130939375Y-103591341D01*
X130745265Y-103764591D01*
X130578895Y-103964629D01*
X130443920Y-104187061D01*
X130442111Y-104191375D01*
X130442110Y-104191377D01*
X130428338Y-104224221D01*
X130343305Y-104427001D01*
X130279261Y-104679177D01*
X130253194Y-104938049D01*
X127850500Y-104938049D01*
X127850500Y-101400000D01*
X129844592Y-101400000D01*
X129846314Y-101408659D01*
X129861076Y-101596226D01*
X129862230Y-101601033D01*
X129862231Y-101601039D01*
X129882826Y-101686821D01*
X129907026Y-101787621D01*
X129908919Y-101792192D01*
X129908920Y-101792194D01*
X129918947Y-101816400D01*
X129982351Y-101969471D01*
X130085196Y-102137298D01*
X130213029Y-102286971D01*
X130362702Y-102414804D01*
X130530529Y-102517649D01*
X130535099Y-102519542D01*
X130535103Y-102519544D01*
X130707806Y-102591080D01*
X130712379Y-102592974D01*
X130779531Y-102609096D01*
X130898961Y-102637769D01*
X130898967Y-102637770D01*
X130903774Y-102638924D01*
X130977558Y-102644731D01*
X131082466Y-102652988D01*
X131082472Y-102652988D01*
X131091341Y-102653686D01*
X131100000Y-102655408D01*
X131112199Y-102652982D01*
X131112504Y-102652921D01*
X131137085Y-102650500D01*
X146062915Y-102650500D01*
X146087496Y-102652921D01*
X146087801Y-102652982D01*
X146100000Y-102655408D01*
X146108659Y-102653686D01*
X146117528Y-102652988D01*
X146117534Y-102652988D01*
X146222442Y-102644731D01*
X146296226Y-102638924D01*
X146301033Y-102637770D01*
X146301039Y-102637769D01*
X146420469Y-102609096D01*
X146487621Y-102592974D01*
X146492194Y-102591080D01*
X146664897Y-102519544D01*
X146664901Y-102519542D01*
X146669471Y-102517649D01*
X146837298Y-102414804D01*
X146986971Y-102286971D01*
X147114804Y-102137298D01*
X147217649Y-101969471D01*
X147281054Y-101816400D01*
X147291080Y-101792194D01*
X147291081Y-101792192D01*
X147292974Y-101787621D01*
X147317174Y-101686821D01*
X147337769Y-101601039D01*
X147337770Y-101601033D01*
X147338924Y-101596226D01*
X147353686Y-101408659D01*
X147355408Y-101400000D01*
X147352921Y-101387496D01*
X147350500Y-101362915D01*
X147350500Y-85237085D01*
X147352921Y-85212504D01*
X147352987Y-85212171D01*
X147355408Y-85200000D01*
X147353686Y-85191341D01*
X147338924Y-85003774D01*
X147337770Y-84998967D01*
X147337769Y-84998961D01*
X147294129Y-84817191D01*
X147292974Y-84812379D01*
X147291080Y-84807806D01*
X147219544Y-84635103D01*
X147219542Y-84635099D01*
X147217649Y-84630529D01*
X147114804Y-84462702D01*
X146986971Y-84313029D01*
X146837298Y-84185196D01*
X146669471Y-84082351D01*
X146664901Y-84080458D01*
X146664897Y-84080456D01*
X146492194Y-84008920D01*
X146492192Y-84008919D01*
X146487621Y-84007026D01*
X146420469Y-83990904D01*
X146301039Y-83962231D01*
X146301033Y-83962230D01*
X146296226Y-83961076D01*
X146222442Y-83955269D01*
X146117534Y-83947012D01*
X146117528Y-83947012D01*
X146108659Y-83946314D01*
X146100000Y-83944592D01*
X146087829Y-83947013D01*
X146087496Y-83947079D01*
X146062915Y-83949500D01*
X131137085Y-83949500D01*
X131112504Y-83947079D01*
X131112171Y-83947013D01*
X131100000Y-83944592D01*
X131091341Y-83946314D01*
X131082472Y-83947012D01*
X131082466Y-83947012D01*
X130977558Y-83955269D01*
X130903774Y-83961076D01*
X130898967Y-83962230D01*
X130898961Y-83962231D01*
X130779531Y-83990904D01*
X130712379Y-84007026D01*
X130707808Y-84008919D01*
X130707806Y-84008920D01*
X130535103Y-84080456D01*
X130535099Y-84080458D01*
X130530529Y-84082351D01*
X130362702Y-84185196D01*
X130213029Y-84313029D01*
X130085196Y-84462702D01*
X129982351Y-84630529D01*
X129980458Y-84635099D01*
X129980456Y-84635103D01*
X129908920Y-84807806D01*
X129907026Y-84812379D01*
X129905871Y-84817191D01*
X129862231Y-84998961D01*
X129862230Y-84998967D01*
X129861076Y-85003774D01*
X129846314Y-85191341D01*
X129844592Y-85200000D01*
X129847013Y-85212171D01*
X129847079Y-85212504D01*
X129849500Y-85237085D01*
X129849500Y-101362915D01*
X129847079Y-101387496D01*
X129844592Y-101400000D01*
X127850500Y-101400000D01*
X127850500Y-79576500D01*
X127870502Y-79508379D01*
X127924158Y-79461886D01*
X127976500Y-79450500D01*
X135233161Y-79450500D01*
X135301282Y-79470502D01*
G37*
%TD.AperFunction*%
%TD*%
M02*
