%TF.GenerationSoftware,KiCad,Pcbnew,7.0.0-da2b9df05c~171~ubuntu20.04.1*%
%TF.CreationDate,2023-03-04T21:27:30-05:00*%
%TF.ProjectId,Logitech Unifying 2242,4c6f6769-7465-4636-9820-556e69667969,B*%
%TF.SameCoordinates,Original*%
%TF.FileFunction,Legend,Bot*%
%TF.FilePolarity,Positive*%
%FSLAX46Y46*%
G04 Gerber Fmt 4.6, Leading zero omitted, Abs format (unit mm)*
G04 Created by KiCad (PCBNEW 7.0.0-da2b9df05c~171~ubuntu20.04.1) date 2023-03-04 21:27:30*
%MOMM*%
%LPD*%
G01*
G04 APERTURE LIST*
G04 Aperture macros list*
%AMFreePoly0*
4,1,33,0.102133,0.973559,0.135618,0.966898,0.162652,0.955700,0.191039,0.936733,0.211733,0.916039,0.230700,0.887652,0.241898,0.860618,0.248559,0.827133,0.250000,0.812500,0.250000,-0.760000,0.244291,-0.788701,0.228033,-0.813033,0.088033,-0.953033,0.063701,-0.969291,0.035000,-0.975000,-0.035000,-0.975000,-0.063701,-0.969291,-0.088033,-0.953033,-0.228033,-0.813033,-0.244291,-0.788701,
-0.250000,-0.760000,-0.250000,0.812500,-0.248559,0.827133,-0.241898,0.860618,-0.230700,0.887652,-0.211733,0.916039,-0.191039,0.936733,-0.162652,0.955700,-0.135618,0.966898,-0.102133,0.973559,-0.087500,0.975000,0.087500,0.975000,0.102133,0.973559,0.102133,0.973559,$1*%
G04 Aperture macros list end*
%ADD10C,0.200000*%
%ADD11C,0.100000*%
%ADD12C,0.120000*%
%ADD13C,3.000000*%
%ADD14FreePoly0,0.000000*%
%ADD15C,5.500000*%
%ADD16O,6.000000X8.000000*%
%ADD17C,1.000000*%
G04 APERTURE END LIST*
D10*
X18957143Y10452620D02*
X19433333Y10452620D01*
X19433333Y10452620D02*
X19433333Y11452620D01*
X18480952Y10452620D02*
X18576190Y10500239D01*
X18576190Y10500239D02*
X18623809Y10547858D01*
X18623809Y10547858D02*
X18671428Y10643096D01*
X18671428Y10643096D02*
X18671428Y10928810D01*
X18671428Y10928810D02*
X18623809Y11024048D01*
X18623809Y11024048D02*
X18576190Y11071667D01*
X18576190Y11071667D02*
X18480952Y11119286D01*
X18480952Y11119286D02*
X18338095Y11119286D01*
X18338095Y11119286D02*
X18242857Y11071667D01*
X18242857Y11071667D02*
X18195238Y11024048D01*
X18195238Y11024048D02*
X18147619Y10928810D01*
X18147619Y10928810D02*
X18147619Y10643096D01*
X18147619Y10643096D02*
X18195238Y10547858D01*
X18195238Y10547858D02*
X18242857Y10500239D01*
X18242857Y10500239D02*
X18338095Y10452620D01*
X18338095Y10452620D02*
X18480952Y10452620D01*
X17290476Y11119286D02*
X17290476Y10309762D01*
X17290476Y10309762D02*
X17338095Y10214524D01*
X17338095Y10214524D02*
X17385714Y10166905D01*
X17385714Y10166905D02*
X17480952Y10119286D01*
X17480952Y10119286D02*
X17623809Y10119286D01*
X17623809Y10119286D02*
X17719047Y10166905D01*
X17290476Y10500239D02*
X17385714Y10452620D01*
X17385714Y10452620D02*
X17576190Y10452620D01*
X17576190Y10452620D02*
X17671428Y10500239D01*
X17671428Y10500239D02*
X17719047Y10547858D01*
X17719047Y10547858D02*
X17766666Y10643096D01*
X17766666Y10643096D02*
X17766666Y10928810D01*
X17766666Y10928810D02*
X17719047Y11024048D01*
X17719047Y11024048D02*
X17671428Y11071667D01*
X17671428Y11071667D02*
X17576190Y11119286D01*
X17576190Y11119286D02*
X17385714Y11119286D01*
X17385714Y11119286D02*
X17290476Y11071667D01*
X16814285Y10452620D02*
X16814285Y11119286D01*
X16814285Y11452620D02*
X16861904Y11405000D01*
X16861904Y11405000D02*
X16814285Y11357381D01*
X16814285Y11357381D02*
X16766666Y11405000D01*
X16766666Y11405000D02*
X16814285Y11452620D01*
X16814285Y11452620D02*
X16814285Y11357381D01*
X16480952Y11119286D02*
X16100000Y11119286D01*
X16338095Y11452620D02*
X16338095Y10595477D01*
X16338095Y10595477D02*
X16290476Y10500239D01*
X16290476Y10500239D02*
X16195238Y10452620D01*
X16195238Y10452620D02*
X16100000Y10452620D01*
X15385714Y10500239D02*
X15480952Y10452620D01*
X15480952Y10452620D02*
X15671428Y10452620D01*
X15671428Y10452620D02*
X15766666Y10500239D01*
X15766666Y10500239D02*
X15814285Y10595477D01*
X15814285Y10595477D02*
X15814285Y10976429D01*
X15814285Y10976429D02*
X15766666Y11071667D01*
X15766666Y11071667D02*
X15671428Y11119286D01*
X15671428Y11119286D02*
X15480952Y11119286D01*
X15480952Y11119286D02*
X15385714Y11071667D01*
X15385714Y11071667D02*
X15338095Y10976429D01*
X15338095Y10976429D02*
X15338095Y10881191D01*
X15338095Y10881191D02*
X15814285Y10785953D01*
X14480952Y10500239D02*
X14576190Y10452620D01*
X14576190Y10452620D02*
X14766666Y10452620D01*
X14766666Y10452620D02*
X14861904Y10500239D01*
X14861904Y10500239D02*
X14909523Y10547858D01*
X14909523Y10547858D02*
X14957142Y10643096D01*
X14957142Y10643096D02*
X14957142Y10928810D01*
X14957142Y10928810D02*
X14909523Y11024048D01*
X14909523Y11024048D02*
X14861904Y11071667D01*
X14861904Y11071667D02*
X14766666Y11119286D01*
X14766666Y11119286D02*
X14576190Y11119286D01*
X14576190Y11119286D02*
X14480952Y11071667D01*
X14052380Y10452620D02*
X14052380Y11452620D01*
X13623809Y10452620D02*
X13623809Y10976429D01*
X13623809Y10976429D02*
X13671428Y11071667D01*
X13671428Y11071667D02*
X13766666Y11119286D01*
X13766666Y11119286D02*
X13909523Y11119286D01*
X13909523Y11119286D02*
X14004761Y11071667D01*
X14004761Y11071667D02*
X14052380Y11024048D01*
X12547618Y11452620D02*
X12547618Y10643096D01*
X12547618Y10643096D02*
X12499999Y10547858D01*
X12499999Y10547858D02*
X12452380Y10500239D01*
X12452380Y10500239D02*
X12357142Y10452620D01*
X12357142Y10452620D02*
X12166666Y10452620D01*
X12166666Y10452620D02*
X12071428Y10500239D01*
X12071428Y10500239D02*
X12023809Y10547858D01*
X12023809Y10547858D02*
X11976190Y10643096D01*
X11976190Y10643096D02*
X11976190Y11452620D01*
X11499999Y11119286D02*
X11499999Y10452620D01*
X11499999Y11024048D02*
X11452380Y11071667D01*
X11452380Y11071667D02*
X11357142Y11119286D01*
X11357142Y11119286D02*
X11214285Y11119286D01*
X11214285Y11119286D02*
X11119047Y11071667D01*
X11119047Y11071667D02*
X11071428Y10976429D01*
X11071428Y10976429D02*
X11071428Y10452620D01*
X10595237Y10452620D02*
X10595237Y11119286D01*
X10595237Y11452620D02*
X10642856Y11405000D01*
X10642856Y11405000D02*
X10595237Y11357381D01*
X10595237Y11357381D02*
X10547618Y11405000D01*
X10547618Y11405000D02*
X10595237Y11452620D01*
X10595237Y11452620D02*
X10595237Y11357381D01*
X10261904Y11119286D02*
X9880952Y11119286D01*
X10119047Y10452620D02*
X10119047Y11309762D01*
X10119047Y11309762D02*
X10071428Y11405000D01*
X10071428Y11405000D02*
X9976190Y11452620D01*
X9976190Y11452620D02*
X9880952Y11452620D01*
X9642856Y11119286D02*
X9404761Y10452620D01*
X9166666Y11119286D02*
X9404761Y10452620D01*
X9404761Y10452620D02*
X9499999Y10214524D01*
X9499999Y10214524D02*
X9547618Y10166905D01*
X9547618Y10166905D02*
X9642856Y10119286D01*
X8785713Y10452620D02*
X8785713Y11119286D01*
X8785713Y11452620D02*
X8833332Y11405000D01*
X8833332Y11405000D02*
X8785713Y11357381D01*
X8785713Y11357381D02*
X8738094Y11405000D01*
X8738094Y11405000D02*
X8785713Y11452620D01*
X8785713Y11452620D02*
X8785713Y11357381D01*
X8309523Y11119286D02*
X8309523Y10452620D01*
X8309523Y11024048D02*
X8261904Y11071667D01*
X8261904Y11071667D02*
X8166666Y11119286D01*
X8166666Y11119286D02*
X8023809Y11119286D01*
X8023809Y11119286D02*
X7928571Y11071667D01*
X7928571Y11071667D02*
X7880952Y10976429D01*
X7880952Y10976429D02*
X7880952Y10452620D01*
X6976190Y11119286D02*
X6976190Y10309762D01*
X6976190Y10309762D02*
X7023809Y10214524D01*
X7023809Y10214524D02*
X7071428Y10166905D01*
X7071428Y10166905D02*
X7166666Y10119286D01*
X7166666Y10119286D02*
X7309523Y10119286D01*
X7309523Y10119286D02*
X7404761Y10166905D01*
X6976190Y10500239D02*
X7071428Y10452620D01*
X7071428Y10452620D02*
X7261904Y10452620D01*
X7261904Y10452620D02*
X7357142Y10500239D01*
X7357142Y10500239D02*
X7404761Y10547858D01*
X7404761Y10547858D02*
X7452380Y10643096D01*
X7452380Y10643096D02*
X7452380Y10928810D01*
X7452380Y10928810D02*
X7404761Y11024048D01*
X7404761Y11024048D02*
X7357142Y11071667D01*
X7357142Y11071667D02*
X7261904Y11119286D01*
X7261904Y11119286D02*
X7071428Y11119286D01*
X7071428Y11119286D02*
X6976190Y11071667D01*
X5947618Y11357381D02*
X5899999Y11405000D01*
X5899999Y11405000D02*
X5804761Y11452620D01*
X5804761Y11452620D02*
X5566666Y11452620D01*
X5566666Y11452620D02*
X5471428Y11405000D01*
X5471428Y11405000D02*
X5423809Y11357381D01*
X5423809Y11357381D02*
X5376190Y11262143D01*
X5376190Y11262143D02*
X5376190Y11166905D01*
X5376190Y11166905D02*
X5423809Y11024048D01*
X5423809Y11024048D02*
X5995237Y10452620D01*
X5995237Y10452620D02*
X5376190Y10452620D01*
X4995237Y11357381D02*
X4947618Y11405000D01*
X4947618Y11405000D02*
X4852380Y11452620D01*
X4852380Y11452620D02*
X4614285Y11452620D01*
X4614285Y11452620D02*
X4519047Y11405000D01*
X4519047Y11405000D02*
X4471428Y11357381D01*
X4471428Y11357381D02*
X4423809Y11262143D01*
X4423809Y11262143D02*
X4423809Y11166905D01*
X4423809Y11166905D02*
X4471428Y11024048D01*
X4471428Y11024048D02*
X5042856Y10452620D01*
X5042856Y10452620D02*
X4423809Y10452620D01*
X3566666Y11119286D02*
X3566666Y10452620D01*
X3804761Y11500239D02*
X4042856Y10785953D01*
X4042856Y10785953D02*
X3423809Y10785953D01*
X3090475Y11357381D02*
X3042856Y11405000D01*
X3042856Y11405000D02*
X2947618Y11452620D01*
X2947618Y11452620D02*
X2709523Y11452620D01*
X2709523Y11452620D02*
X2614285Y11405000D01*
X2614285Y11405000D02*
X2566666Y11357381D01*
X2566666Y11357381D02*
X2519047Y11262143D01*
X2519047Y11262143D02*
X2519047Y11166905D01*
X2519047Y11166905D02*
X2566666Y11024048D01*
X2566666Y11024048D02*
X3138094Y10452620D01*
X3138094Y10452620D02*
X2519047Y10452620D01*
X18361904Y8832620D02*
X18695237Y9308810D01*
X18933332Y8832620D02*
X18933332Y9832620D01*
X18933332Y9832620D02*
X18552380Y9832620D01*
X18552380Y9832620D02*
X18457142Y9785000D01*
X18457142Y9785000D02*
X18409523Y9737381D01*
X18409523Y9737381D02*
X18361904Y9642143D01*
X18361904Y9642143D02*
X18361904Y9499286D01*
X18361904Y9499286D02*
X18409523Y9404048D01*
X18409523Y9404048D02*
X18457142Y9356429D01*
X18457142Y9356429D02*
X18552380Y9308810D01*
X18552380Y9308810D02*
X18933332Y9308810D01*
X17552380Y8880239D02*
X17647618Y8832620D01*
X17647618Y8832620D02*
X17838094Y8832620D01*
X17838094Y8832620D02*
X17933332Y8880239D01*
X17933332Y8880239D02*
X17980951Y8975477D01*
X17980951Y8975477D02*
X17980951Y9356429D01*
X17980951Y9356429D02*
X17933332Y9451667D01*
X17933332Y9451667D02*
X17838094Y9499286D01*
X17838094Y9499286D02*
X17647618Y9499286D01*
X17647618Y9499286D02*
X17552380Y9451667D01*
X17552380Y9451667D02*
X17504761Y9356429D01*
X17504761Y9356429D02*
X17504761Y9261191D01*
X17504761Y9261191D02*
X17980951Y9165953D01*
X17171427Y9499286D02*
X16933332Y8832620D01*
X16933332Y8832620D02*
X16695237Y9499286D01*
X16314284Y8927858D02*
X16266665Y8880239D01*
X16266665Y8880239D02*
X16314284Y8832620D01*
X16314284Y8832620D02*
X16361903Y8880239D01*
X16361903Y8880239D02*
X16314284Y8927858D01*
X16314284Y8927858D02*
X16314284Y8832620D01*
X15504761Y9356429D02*
X15361904Y9308810D01*
X15361904Y9308810D02*
X15314285Y9261191D01*
X15314285Y9261191D02*
X15266666Y9165953D01*
X15266666Y9165953D02*
X15266666Y9023096D01*
X15266666Y9023096D02*
X15314285Y8927858D01*
X15314285Y8927858D02*
X15361904Y8880239D01*
X15361904Y8880239D02*
X15457142Y8832620D01*
X15457142Y8832620D02*
X15838094Y8832620D01*
X15838094Y8832620D02*
X15838094Y9832620D01*
X15838094Y9832620D02*
X15504761Y9832620D01*
X15504761Y9832620D02*
X15409523Y9785000D01*
X15409523Y9785000D02*
X15361904Y9737381D01*
X15361904Y9737381D02*
X15314285Y9642143D01*
X15314285Y9642143D02*
X15314285Y9546905D01*
X15314285Y9546905D02*
X15361904Y9451667D01*
X15361904Y9451667D02*
X15409523Y9404048D01*
X15409523Y9404048D02*
X15504761Y9356429D01*
X15504761Y9356429D02*
X15838094Y9356429D01*
X13999999Y8499286D02*
X13999999Y9927858D01*
X12733332Y9737381D02*
X12685713Y9785000D01*
X12685713Y9785000D02*
X12590475Y9832620D01*
X12590475Y9832620D02*
X12352380Y9832620D01*
X12352380Y9832620D02*
X12257142Y9785000D01*
X12257142Y9785000D02*
X12209523Y9737381D01*
X12209523Y9737381D02*
X12161904Y9642143D01*
X12161904Y9642143D02*
X12161904Y9546905D01*
X12161904Y9546905D02*
X12209523Y9404048D01*
X12209523Y9404048D02*
X12780951Y8832620D01*
X12780951Y8832620D02*
X12161904Y8832620D01*
X11542856Y9832620D02*
X11447618Y9832620D01*
X11447618Y9832620D02*
X11352380Y9785000D01*
X11352380Y9785000D02*
X11304761Y9737381D01*
X11304761Y9737381D02*
X11257142Y9642143D01*
X11257142Y9642143D02*
X11209523Y9451667D01*
X11209523Y9451667D02*
X11209523Y9213572D01*
X11209523Y9213572D02*
X11257142Y9023096D01*
X11257142Y9023096D02*
X11304761Y8927858D01*
X11304761Y8927858D02*
X11352380Y8880239D01*
X11352380Y8880239D02*
X11447618Y8832620D01*
X11447618Y8832620D02*
X11542856Y8832620D01*
X11542856Y8832620D02*
X11638094Y8880239D01*
X11638094Y8880239D02*
X11685713Y8927858D01*
X11685713Y8927858D02*
X11733332Y9023096D01*
X11733332Y9023096D02*
X11780951Y9213572D01*
X11780951Y9213572D02*
X11780951Y9451667D01*
X11780951Y9451667D02*
X11733332Y9642143D01*
X11733332Y9642143D02*
X11685713Y9737381D01*
X11685713Y9737381D02*
X11638094Y9785000D01*
X11638094Y9785000D02*
X11542856Y9832620D01*
X10828570Y9737381D02*
X10780951Y9785000D01*
X10780951Y9785000D02*
X10685713Y9832620D01*
X10685713Y9832620D02*
X10447618Y9832620D01*
X10447618Y9832620D02*
X10352380Y9785000D01*
X10352380Y9785000D02*
X10304761Y9737381D01*
X10304761Y9737381D02*
X10257142Y9642143D01*
X10257142Y9642143D02*
X10257142Y9546905D01*
X10257142Y9546905D02*
X10304761Y9404048D01*
X10304761Y9404048D02*
X10876189Y8832620D01*
X10876189Y8832620D02*
X10257142Y8832620D01*
X9923808Y9832620D02*
X9304761Y9832620D01*
X9304761Y9832620D02*
X9638094Y9451667D01*
X9638094Y9451667D02*
X9495237Y9451667D01*
X9495237Y9451667D02*
X9399999Y9404048D01*
X9399999Y9404048D02*
X9352380Y9356429D01*
X9352380Y9356429D02*
X9304761Y9261191D01*
X9304761Y9261191D02*
X9304761Y9023096D01*
X9304761Y9023096D02*
X9352380Y8927858D01*
X9352380Y8927858D02*
X9399999Y8880239D01*
X9399999Y8880239D02*
X9495237Y8832620D01*
X9495237Y8832620D02*
X9780951Y8832620D01*
X9780951Y8832620D02*
X9876189Y8880239D01*
X9876189Y8880239D02*
X9923808Y8927858D01*
X8876189Y9213572D02*
X8114285Y9213572D01*
X7447618Y9832620D02*
X7352380Y9832620D01*
X7352380Y9832620D02*
X7257142Y9785000D01*
X7257142Y9785000D02*
X7209523Y9737381D01*
X7209523Y9737381D02*
X7161904Y9642143D01*
X7161904Y9642143D02*
X7114285Y9451667D01*
X7114285Y9451667D02*
X7114285Y9213572D01*
X7114285Y9213572D02*
X7161904Y9023096D01*
X7161904Y9023096D02*
X7209523Y8927858D01*
X7209523Y8927858D02*
X7257142Y8880239D01*
X7257142Y8880239D02*
X7352380Y8832620D01*
X7352380Y8832620D02*
X7447618Y8832620D01*
X7447618Y8832620D02*
X7542856Y8880239D01*
X7542856Y8880239D02*
X7590475Y8927858D01*
X7590475Y8927858D02*
X7638094Y9023096D01*
X7638094Y9023096D02*
X7685713Y9213572D01*
X7685713Y9213572D02*
X7685713Y9451667D01*
X7685713Y9451667D02*
X7638094Y9642143D01*
X7638094Y9642143D02*
X7590475Y9737381D01*
X7590475Y9737381D02*
X7542856Y9785000D01*
X7542856Y9785000D02*
X7447618Y9832620D01*
X6780951Y9832620D02*
X6161904Y9832620D01*
X6161904Y9832620D02*
X6495237Y9451667D01*
X6495237Y9451667D02*
X6352380Y9451667D01*
X6352380Y9451667D02*
X6257142Y9404048D01*
X6257142Y9404048D02*
X6209523Y9356429D01*
X6209523Y9356429D02*
X6161904Y9261191D01*
X6161904Y9261191D02*
X6161904Y9023096D01*
X6161904Y9023096D02*
X6209523Y8927858D01*
X6209523Y8927858D02*
X6257142Y8880239D01*
X6257142Y8880239D02*
X6352380Y8832620D01*
X6352380Y8832620D02*
X6638094Y8832620D01*
X6638094Y8832620D02*
X6733332Y8880239D01*
X6733332Y8880239D02*
X6780951Y8927858D01*
X5733332Y9213572D02*
X4971428Y9213572D01*
X4304761Y9832620D02*
X4209523Y9832620D01*
X4209523Y9832620D02*
X4114285Y9785000D01*
X4114285Y9785000D02*
X4066666Y9737381D01*
X4066666Y9737381D02*
X4019047Y9642143D01*
X4019047Y9642143D02*
X3971428Y9451667D01*
X3971428Y9451667D02*
X3971428Y9213572D01*
X3971428Y9213572D02*
X4019047Y9023096D01*
X4019047Y9023096D02*
X4066666Y8927858D01*
X4066666Y8927858D02*
X4114285Y8880239D01*
X4114285Y8880239D02*
X4209523Y8832620D01*
X4209523Y8832620D02*
X4304761Y8832620D01*
X4304761Y8832620D02*
X4399999Y8880239D01*
X4399999Y8880239D02*
X4447618Y8927858D01*
X4447618Y8927858D02*
X4495237Y9023096D01*
X4495237Y9023096D02*
X4542856Y9213572D01*
X4542856Y9213572D02*
X4542856Y9451667D01*
X4542856Y9451667D02*
X4495237Y9642143D01*
X4495237Y9642143D02*
X4447618Y9737381D01*
X4447618Y9737381D02*
X4399999Y9785000D01*
X4399999Y9785000D02*
X4304761Y9832620D01*
X3114285Y9499286D02*
X3114285Y8832620D01*
X3352380Y9880239D02*
X3590475Y9165953D01*
X3590475Y9165953D02*
X2971428Y9165953D01*
X14038095Y7736429D02*
X13895238Y7688810D01*
X13895238Y7688810D02*
X13847619Y7641191D01*
X13847619Y7641191D02*
X13800000Y7545953D01*
X13800000Y7545953D02*
X13800000Y7403096D01*
X13800000Y7403096D02*
X13847619Y7307858D01*
X13847619Y7307858D02*
X13895238Y7260239D01*
X13895238Y7260239D02*
X13990476Y7212620D01*
X13990476Y7212620D02*
X14371428Y7212620D01*
X14371428Y7212620D02*
X14371428Y8212620D01*
X14371428Y8212620D02*
X14038095Y8212620D01*
X14038095Y8212620D02*
X13942857Y8165000D01*
X13942857Y8165000D02*
X13895238Y8117381D01*
X13895238Y8117381D02*
X13847619Y8022143D01*
X13847619Y8022143D02*
X13847619Y7926905D01*
X13847619Y7926905D02*
X13895238Y7831667D01*
X13895238Y7831667D02*
X13942857Y7784048D01*
X13942857Y7784048D02*
X14038095Y7736429D01*
X14038095Y7736429D02*
X14371428Y7736429D01*
X12990476Y7260239D02*
X13085714Y7212620D01*
X13085714Y7212620D02*
X13276190Y7212620D01*
X13276190Y7212620D02*
X13371428Y7260239D01*
X13371428Y7260239D02*
X13419047Y7355477D01*
X13419047Y7355477D02*
X13419047Y7736429D01*
X13419047Y7736429D02*
X13371428Y7831667D01*
X13371428Y7831667D02*
X13276190Y7879286D01*
X13276190Y7879286D02*
X13085714Y7879286D01*
X13085714Y7879286D02*
X12990476Y7831667D01*
X12990476Y7831667D02*
X12942857Y7736429D01*
X12942857Y7736429D02*
X12942857Y7641191D01*
X12942857Y7641191D02*
X13419047Y7545953D01*
X12514285Y7879286D02*
X12514285Y7212620D01*
X12514285Y7784048D02*
X12466666Y7831667D01*
X12466666Y7831667D02*
X12371428Y7879286D01*
X12371428Y7879286D02*
X12228571Y7879286D01*
X12228571Y7879286D02*
X12133333Y7831667D01*
X12133333Y7831667D02*
X12085714Y7736429D01*
X12085714Y7736429D02*
X12085714Y7212620D01*
X10819047Y8212620D02*
X10628571Y8212620D01*
X10628571Y8212620D02*
X10533333Y8165000D01*
X10533333Y8165000D02*
X10438095Y8069762D01*
X10438095Y8069762D02*
X10390476Y7879286D01*
X10390476Y7879286D02*
X10390476Y7545953D01*
X10390476Y7545953D02*
X10438095Y7355477D01*
X10438095Y7355477D02*
X10533333Y7260239D01*
X10533333Y7260239D02*
X10628571Y7212620D01*
X10628571Y7212620D02*
X10819047Y7212620D01*
X10819047Y7212620D02*
X10914285Y7260239D01*
X10914285Y7260239D02*
X11009523Y7355477D01*
X11009523Y7355477D02*
X11057142Y7545953D01*
X11057142Y7545953D02*
X11057142Y7879286D01*
X11057142Y7879286D02*
X11009523Y8069762D01*
X11009523Y8069762D02*
X10914285Y8165000D01*
X10914285Y8165000D02*
X10819047Y8212620D01*
X10057142Y7879286D02*
X9866666Y7212620D01*
X9866666Y7212620D02*
X9676190Y7688810D01*
X9676190Y7688810D02*
X9485714Y7212620D01*
X9485714Y7212620D02*
X9295238Y7879286D01*
X8533333Y7260239D02*
X8628571Y7212620D01*
X8628571Y7212620D02*
X8819047Y7212620D01*
X8819047Y7212620D02*
X8914285Y7260239D01*
X8914285Y7260239D02*
X8961904Y7355477D01*
X8961904Y7355477D02*
X8961904Y7736429D01*
X8961904Y7736429D02*
X8914285Y7831667D01*
X8914285Y7831667D02*
X8819047Y7879286D01*
X8819047Y7879286D02*
X8628571Y7879286D01*
X8628571Y7879286D02*
X8533333Y7831667D01*
X8533333Y7831667D02*
X8485714Y7736429D01*
X8485714Y7736429D02*
X8485714Y7641191D01*
X8485714Y7641191D02*
X8961904Y7545953D01*
X8057142Y7879286D02*
X8057142Y7212620D01*
X8057142Y7784048D02*
X8009523Y7831667D01*
X8009523Y7831667D02*
X7914285Y7879286D01*
X7914285Y7879286D02*
X7771428Y7879286D01*
X7771428Y7879286D02*
X7676190Y7831667D01*
X7676190Y7831667D02*
X7628571Y7736429D01*
X7628571Y7736429D02*
X7628571Y7212620D01*
D11*
%TO.C,TP2*%
X5619046Y6916310D02*
X5309522Y6916310D01*
X5309522Y6916310D02*
X5476189Y6725834D01*
X5476189Y6725834D02*
X5404760Y6725834D01*
X5404760Y6725834D02*
X5357141Y6702024D01*
X5357141Y6702024D02*
X5333332Y6678215D01*
X5333332Y6678215D02*
X5309522Y6630596D01*
X5309522Y6630596D02*
X5309522Y6511548D01*
X5309522Y6511548D02*
X5333332Y6463929D01*
X5333332Y6463929D02*
X5357141Y6440120D01*
X5357141Y6440120D02*
X5404760Y6416310D01*
X5404760Y6416310D02*
X5547617Y6416310D01*
X5547617Y6416310D02*
X5595236Y6440120D01*
X5595236Y6440120D02*
X5619046Y6463929D01*
X5166665Y6916310D02*
X4999999Y6416310D01*
X4999999Y6416310D02*
X4833332Y6916310D01*
X4714285Y6916310D02*
X4404761Y6916310D01*
X4404761Y6916310D02*
X4571428Y6725834D01*
X4571428Y6725834D02*
X4499999Y6725834D01*
X4499999Y6725834D02*
X4452380Y6702024D01*
X4452380Y6702024D02*
X4428571Y6678215D01*
X4428571Y6678215D02*
X4404761Y6630596D01*
X4404761Y6630596D02*
X4404761Y6511548D01*
X4404761Y6511548D02*
X4428571Y6463929D01*
X4428571Y6463929D02*
X4452380Y6440120D01*
X4452380Y6440120D02*
X4499999Y6416310D01*
X4499999Y6416310D02*
X4642856Y6416310D01*
X4642856Y6416310D02*
X4690475Y6440120D01*
X4690475Y6440120D02*
X4714285Y6463929D01*
%TO.C,TP4*%
X10440476Y15116310D02*
X10440476Y15616310D01*
X10440476Y15616310D02*
X10321428Y15616310D01*
X10321428Y15616310D02*
X10250000Y15592500D01*
X10250000Y15592500D02*
X10202381Y15544881D01*
X10202381Y15544881D02*
X10178571Y15497262D01*
X10178571Y15497262D02*
X10154762Y15402024D01*
X10154762Y15402024D02*
X10154762Y15330596D01*
X10154762Y15330596D02*
X10178571Y15235358D01*
X10178571Y15235358D02*
X10202381Y15187739D01*
X10202381Y15187739D02*
X10250000Y15140120D01*
X10250000Y15140120D02*
X10321428Y15116310D01*
X10321428Y15116310D02*
X10440476Y15116310D01*
X9940476Y15306786D02*
X9559524Y15306786D01*
X9750000Y15116310D02*
X9750000Y15497262D01*
%TO.C,TP5*%
X12440476Y15116310D02*
X12440476Y15616310D01*
X12440476Y15616310D02*
X12321428Y15616310D01*
X12321428Y15616310D02*
X12250000Y15592500D01*
X12250000Y15592500D02*
X12202381Y15544881D01*
X12202381Y15544881D02*
X12178571Y15497262D01*
X12178571Y15497262D02*
X12154762Y15402024D01*
X12154762Y15402024D02*
X12154762Y15330596D01*
X12154762Y15330596D02*
X12178571Y15235358D01*
X12178571Y15235358D02*
X12202381Y15187739D01*
X12202381Y15187739D02*
X12250000Y15140120D01*
X12250000Y15140120D02*
X12321428Y15116310D01*
X12321428Y15116310D02*
X12440476Y15116310D01*
X11940476Y15306786D02*
X11559524Y15306786D01*
%TO.C,TP1*%
X8380952Y15592500D02*
X8428571Y15616310D01*
X8428571Y15616310D02*
X8500000Y15616310D01*
X8500000Y15616310D02*
X8571428Y15592500D01*
X8571428Y15592500D02*
X8619047Y15544881D01*
X8619047Y15544881D02*
X8642857Y15497262D01*
X8642857Y15497262D02*
X8666666Y15402024D01*
X8666666Y15402024D02*
X8666666Y15330596D01*
X8666666Y15330596D02*
X8642857Y15235358D01*
X8642857Y15235358D02*
X8619047Y15187739D01*
X8619047Y15187739D02*
X8571428Y15140120D01*
X8571428Y15140120D02*
X8500000Y15116310D01*
X8500000Y15116310D02*
X8452381Y15116310D01*
X8452381Y15116310D02*
X8380952Y15140120D01*
X8380952Y15140120D02*
X8357143Y15163929D01*
X8357143Y15163929D02*
X8357143Y15330596D01*
X8357143Y15330596D02*
X8452381Y15330596D01*
X8142857Y15116310D02*
X8142857Y15616310D01*
X8142857Y15616310D02*
X7857143Y15116310D01*
X7857143Y15116310D02*
X7857143Y15616310D01*
X7619047Y15116310D02*
X7619047Y15616310D01*
X7619047Y15616310D02*
X7499999Y15616310D01*
X7499999Y15616310D02*
X7428571Y15592500D01*
X7428571Y15592500D02*
X7380952Y15544881D01*
X7380952Y15544881D02*
X7357142Y15497262D01*
X7357142Y15497262D02*
X7333333Y15402024D01*
X7333333Y15402024D02*
X7333333Y15330596D01*
X7333333Y15330596D02*
X7357142Y15235358D01*
X7357142Y15235358D02*
X7380952Y15187739D01*
X7380952Y15187739D02*
X7428571Y15140120D01*
X7428571Y15140120D02*
X7499999Y15116310D01*
X7499999Y15116310D02*
X7619047Y15116310D01*
%TO.C,TP3*%
X14095237Y15616310D02*
X14333332Y15616310D01*
X14333332Y15616310D02*
X14357141Y15378215D01*
X14357141Y15378215D02*
X14333332Y15402024D01*
X14333332Y15402024D02*
X14285713Y15425834D01*
X14285713Y15425834D02*
X14166665Y15425834D01*
X14166665Y15425834D02*
X14119046Y15402024D01*
X14119046Y15402024D02*
X14095237Y15378215D01*
X14095237Y15378215D02*
X14071427Y15330596D01*
X14071427Y15330596D02*
X14071427Y15211548D01*
X14071427Y15211548D02*
X14095237Y15163929D01*
X14095237Y15163929D02*
X14119046Y15140120D01*
X14119046Y15140120D02*
X14166665Y15116310D01*
X14166665Y15116310D02*
X14285713Y15116310D01*
X14285713Y15116310D02*
X14333332Y15140120D01*
X14333332Y15140120D02*
X14357141Y15163929D01*
X13928570Y15616310D02*
X13761904Y15116310D01*
X13761904Y15116310D02*
X13595237Y15616310D01*
D12*
%TO.C,TP2*%
X5700000Y8000000D02*
G75*
G03*
X5700000Y8000000I-700000J0D01*
G01*
%TO.C,TP4*%
X10700000Y14000000D02*
G75*
G03*
X10700000Y14000000I-700000J0D01*
G01*
%TO.C,TP5*%
X12700000Y14000000D02*
G75*
G03*
X12700000Y14000000I-700000J0D01*
G01*
%TO.C,TP1*%
X8700000Y14000000D02*
G75*
G03*
X8700000Y14000000I-700000J0D01*
G01*
%TO.C,TP3*%
X14700000Y14000000D02*
G75*
G03*
X14700000Y14000000I-700000J0D01*
G01*
%TD*%
%LPC*%
D13*
%TO.C,USB1*%
X17570000Y13800000D03*
X4430000Y13800000D03*
%TD*%
D14*
%TO.C,J1*%
X20000000Y1100000D03*
D15*
X11000000Y42000000D03*
D16*
X10999999Y41999999D03*
D14*
X19500000Y1100000D03*
X3000000Y1100000D03*
X2500000Y1100000D03*
X2000000Y1100000D03*
%TD*%
D17*
%TO.C,TP2*%
X5000000Y8000000D03*
%TD*%
%TO.C,TP4*%
X10000000Y14000000D03*
%TD*%
%TO.C,TP5*%
X12000000Y14000000D03*
%TD*%
%TO.C,TP1*%
X8000000Y14000000D03*
%TD*%
%TO.C,TP3*%
X14000000Y14000000D03*
%TD*%
G36*
X4213000Y1983387D02*
G01*
X4258387Y1938000D01*
X4275000Y1876000D01*
X4275000Y124000D01*
X4258387Y62000D01*
X4213000Y16613D01*
X4151000Y0D01*
X1199000Y0D01*
X1137000Y16613D01*
X1091613Y62000D01*
X1075000Y124000D01*
X1075000Y1876000D01*
X1091613Y1938000D01*
X1137000Y1983387D01*
X1199000Y2000000D01*
X4151000Y2000000D01*
X4213000Y1983387D01*
G37*
G36*
X15963000Y1983387D02*
G01*
X16008387Y1938000D01*
X16025000Y1876000D01*
X16025000Y124000D01*
X16008387Y62000D01*
X15963000Y16613D01*
X15901000Y0D01*
X5599000Y0D01*
X5537000Y16613D01*
X5491613Y62000D01*
X5475000Y124000D01*
X5475000Y1876000D01*
X5491613Y1938000D01*
X5537000Y1983387D01*
X5599000Y2000000D01*
X15901000Y2000000D01*
X15963000Y1983387D01*
G37*
G36*
X20863000Y1983387D02*
G01*
X20908387Y1938000D01*
X20925000Y1876000D01*
X20925000Y124000D01*
X20908387Y62000D01*
X20863000Y16613D01*
X20801000Y0D01*
X17349000Y0D01*
X17287000Y16613D01*
X17241613Y62000D01*
X17225000Y124000D01*
X17225000Y1876000D01*
X17241613Y1938000D01*
X17287000Y1983387D01*
X17349000Y2000000D01*
X20801000Y2000000D01*
X20863000Y1983387D01*
G37*
M02*
