%TF.GenerationSoftware,KiCad,Pcbnew,7.0.0-da2b9df05c~171~ubuntu20.04.1*%
%TF.CreationDate,2023-03-04T21:27:30-05:00*%
%TF.ProjectId,Logitech Unifying 2242,4c6f6769-7465-4636-9820-556e69667969,B*%
%TF.SameCoordinates,Original*%
%TF.FileFunction,Soldermask,Bot*%
%TF.FilePolarity,Negative*%
%FSLAX46Y46*%
G04 Gerber Fmt 4.6, Leading zero omitted, Abs format (unit mm)*
G04 Created by KiCad (PCBNEW 7.0.0-da2b9df05c~171~ubuntu20.04.1) date 2023-03-04 21:27:30*
%MOMM*%
%LPD*%
G01*
G04 APERTURE LIST*
G04 Aperture macros list*
%AMFreePoly0*
4,1,33,0.102133,0.973559,0.135618,0.966898,0.162652,0.955700,0.191039,0.936733,0.211733,0.916039,0.230700,0.887652,0.241898,0.860618,0.248559,0.827133,0.250000,0.812500,0.250000,-0.760000,0.244291,-0.788701,0.228033,-0.813033,0.088033,-0.953033,0.063701,-0.969291,0.035000,-0.975000,-0.035000,-0.975000,-0.063701,-0.969291,-0.088033,-0.953033,-0.228033,-0.813033,-0.244291,-0.788701,
-0.250000,-0.760000,-0.250000,0.812500,-0.248559,0.827133,-0.241898,0.860618,-0.230700,0.887652,-0.211733,0.916039,-0.191039,0.936733,-0.162652,0.955700,-0.135618,0.966898,-0.102133,0.973559,-0.087500,0.975000,0.087500,0.975000,0.102133,0.973559,0.102133,0.973559,$1*%
G04 Aperture macros list end*
%ADD10C,3.000000*%
%ADD11FreePoly0,0.000000*%
%ADD12C,5.500000*%
%ADD13O,6.000000X8.000000*%
%ADD14C,1.000000*%
G04 APERTURE END LIST*
D10*
%TO.C,USB1*%
X17570000Y13800000D03*
X4430000Y13800000D03*
%TD*%
D11*
%TO.C,J1*%
X20000000Y1100000D03*
D12*
X11000000Y42000000D03*
D13*
X10999999Y41999999D03*
D11*
X19500000Y1100000D03*
X3000000Y1100000D03*
X2500000Y1100000D03*
X2000000Y1100000D03*
%TD*%
D14*
%TO.C,TP2*%
X5000000Y8000000D03*
%TD*%
%TO.C,TP4*%
X10000000Y14000000D03*
%TD*%
%TO.C,TP5*%
X12000000Y14000000D03*
%TD*%
%TO.C,TP1*%
X8000000Y14000000D03*
%TD*%
%TO.C,TP3*%
X14000000Y14000000D03*
%TD*%
G36*
X4213000Y1983387D02*
G01*
X4258387Y1938000D01*
X4275000Y1876000D01*
X4275000Y124000D01*
X4258387Y62000D01*
X4213000Y16613D01*
X4151000Y0D01*
X1199000Y0D01*
X1137000Y16613D01*
X1091613Y62000D01*
X1075000Y124000D01*
X1075000Y1876000D01*
X1091613Y1938000D01*
X1137000Y1983387D01*
X1199000Y2000000D01*
X4151000Y2000000D01*
X4213000Y1983387D01*
G37*
G36*
X15963000Y1983387D02*
G01*
X16008387Y1938000D01*
X16025000Y1876000D01*
X16025000Y124000D01*
X16008387Y62000D01*
X15963000Y16613D01*
X15901000Y0D01*
X5599000Y0D01*
X5537000Y16613D01*
X5491613Y62000D01*
X5475000Y124000D01*
X5475000Y1876000D01*
X5491613Y1938000D01*
X5537000Y1983387D01*
X5599000Y2000000D01*
X15901000Y2000000D01*
X15963000Y1983387D01*
G37*
G36*
X20863000Y1983387D02*
G01*
X20908387Y1938000D01*
X20925000Y1876000D01*
X20925000Y124000D01*
X20908387Y62000D01*
X20863000Y16613D01*
X20801000Y0D01*
X17349000Y0D01*
X17287000Y16613D01*
X17241613Y62000D01*
X17225000Y124000D01*
X17225000Y1876000D01*
X17241613Y1938000D01*
X17287000Y1983387D01*
X17349000Y2000000D01*
X20801000Y2000000D01*
X20863000Y1983387D01*
G37*
M02*
