%TF.GenerationSoftware,KiCad,Pcbnew,7.0.0-da2b9df05c~171~ubuntu20.04.1*%
%TF.CreationDate,2023-03-04T21:27:30-05:00*%
%TF.ProjectId,Logitech Unifying 2242,4c6f6769-7465-4636-9820-556e69667969,B*%
%TF.SameCoordinates,Original*%
%TF.FileFunction,Copper,L1,Top*%
%TF.FilePolarity,Positive*%
%FSLAX46Y46*%
G04 Gerber Fmt 4.6, Leading zero omitted, Abs format (unit mm)*
G04 Created by KiCad (PCBNEW 7.0.0-da2b9df05c~171~ubuntu20.04.1) date 2023-03-04 21:27:30*
%MOMM*%
%LPD*%
G01*
G04 APERTURE LIST*
G04 Aperture macros list*
%AMRoundRect*
0 Rectangle with rounded corners*
0 $1 Rounding radius*
0 $2 $3 $4 $5 $6 $7 $8 $9 X,Y pos of 4 corners*
0 Add a 4 corners polygon primitive as box body*
4,1,4,$2,$3,$4,$5,$6,$7,$8,$9,$2,$3,0*
0 Add four circle primitives for the rounded corners*
1,1,$1+$1,$2,$3*
1,1,$1+$1,$4,$5*
1,1,$1+$1,$6,$7*
1,1,$1+$1,$8,$9*
0 Add four rect primitives between the rounded corners*
20,1,$1+$1,$2,$3,$4,$5,0*
20,1,$1+$1,$4,$5,$6,$7,0*
20,1,$1+$1,$6,$7,$8,$9,0*
20,1,$1+$1,$8,$9,$2,$3,0*%
%AMFreePoly0*
4,1,15,-0.175000,0.812500,-0.168339,0.845985,-0.149372,0.874372,-0.120985,0.893339,-0.087500,0.900000,0.087500,0.900000,0.120985,0.893339,0.149372,0.874372,0.168339,0.845985,0.175000,0.812500,0.175000,-0.760000,0.035000,-0.900000,-0.035000,-0.900000,-0.175000,-0.760000,-0.175000,0.812500,-0.175000,0.812500,$1*%
G04 Aperture macros list end*
%TA.AperFunction,SMDPad,CuDef*%
%ADD10RoundRect,0.150000X-0.512500X-0.150000X0.512500X-0.150000X0.512500X0.150000X-0.512500X0.150000X0*%
%TD*%
%TA.AperFunction,SMDPad,CuDef*%
%ADD11RoundRect,0.155000X-0.212500X-0.155000X0.212500X-0.155000X0.212500X0.155000X-0.212500X0.155000X0*%
%TD*%
%TA.AperFunction,SMDPad,CuDef*%
%ADD12R,1.250000X3.000000*%
%TD*%
%TA.AperFunction,ComponentPad*%
%ADD13C,3.000000*%
%TD*%
%TA.AperFunction,SMDPad,CuDef*%
%ADD14RoundRect,0.237500X-0.287500X-0.237500X0.287500X-0.237500X0.287500X0.237500X-0.287500X0.237500X0*%
%TD*%
%TA.AperFunction,SMDPad,CuDef*%
%ADD15RoundRect,0.155000X0.212500X0.155000X-0.212500X0.155000X-0.212500X-0.155000X0.212500X-0.155000X0*%
%TD*%
%TA.AperFunction,SMDPad,CuDef*%
%ADD16RoundRect,0.250001X-0.462499X-0.849999X0.462499X-0.849999X0.462499X0.849999X-0.462499X0.849999X0*%
%TD*%
%TA.AperFunction,SMDPad,CuDef*%
%ADD17FreePoly0,0.000000*%
%TD*%
%TA.AperFunction,ComponentPad*%
%ADD18C,5.500000*%
%TD*%
%TA.AperFunction,SMDPad,CuDef*%
%ADD19RoundRect,0.112500X0.187500X0.112500X-0.187500X0.112500X-0.187500X-0.112500X0.187500X-0.112500X0*%
%TD*%
%TA.AperFunction,SMDPad,CuDef*%
%ADD20RoundRect,0.160000X-0.197500X-0.160000X0.197500X-0.160000X0.197500X0.160000X-0.197500X0.160000X0*%
%TD*%
%TA.AperFunction,ViaPad*%
%ADD21C,0.800000*%
%TD*%
%TA.AperFunction,ViaPad*%
%ADD22C,0.500000*%
%TD*%
%TA.AperFunction,Conductor*%
%ADD23C,0.250000*%
%TD*%
G04 APERTURE END LIST*
D10*
%TO.P,U1,1,SW*%
%TO.N,/BOOST IN*%
X9662500Y6850000D03*
%TO.P,U1,2,GND*%
%TO.N,GND*%
X9662500Y5900000D03*
%TO.P,U1,3,NC*%
%TO.N,unconnected-(U1-NC-Pad3)*%
X9662500Y4950000D03*
%TO.P,U1,4,VOUT*%
%TO.N,+5V*%
X11937500Y4950000D03*
%TO.P,U1,5,NC*%
%TO.N,unconnected-(U1-NC-Pad5)*%
X11937500Y6850000D03*
%TD*%
D11*
%TO.P,C2,1*%
%TO.N,/SNUBBER RC*%
X16032500Y6800000D03*
%TO.P,C2,2*%
%TO.N,+5V*%
X17167500Y6800000D03*
%TD*%
D12*
%TO.P,USB1,1,Pin_1*%
%TO.N,+5V*%
X14499999Y10119999D03*
%TO.P,USB1,2,Pin_2*%
%TO.N,/USBD-*%
X11999999Y10119999D03*
%TO.P,USB1,3,Pin_3*%
%TO.N,/USBD+*%
X9999999Y10119999D03*
%TO.P,USB1,4,Pin_4*%
%TO.N,GND*%
X7499999Y10119999D03*
D13*
%TO.P,USB1,5*%
%TO.N,N/C*%
X17570000Y13800000D03*
X4430000Y13800000D03*
%TD*%
D14*
%TO.P,F1,1*%
%TO.N,+3V3*%
X1525000Y4900000D03*
%TO.P,F1,2*%
%TO.N,/3V3 PROT*%
X3275000Y4900000D03*
%TD*%
D15*
%TO.P,C3.3,1*%
%TO.N,/3V3 PROT*%
X3567500Y8500000D03*
%TO.P,C3.3,2*%
%TO.N,GND*%
X2432500Y8500000D03*
%TD*%
D16*
%TO.P,L1,1,1*%
%TO.N,/3V3 PROT*%
X5237500Y5700000D03*
%TO.P,L1,2,2*%
%TO.N,/BOOST IN*%
X7562500Y5700000D03*
%TD*%
D11*
%TO.P,C1.2,1*%
%TO.N,+5V*%
X18432500Y5700000D03*
%TO.P,C1.2,2*%
%TO.N,GND*%
X19567500Y5700000D03*
%TD*%
%TO.P,C1.1,1*%
%TO.N,+5V*%
X18032500Y4600000D03*
%TO.P,C1.1,2*%
%TO.N,GND*%
X19167500Y4600000D03*
%TD*%
D17*
%TO.P,J1,1,CONFIG_3*%
%TO.N,unconnected-(J1-CONFIG_3-Pad1)*%
X20249999Y1099999D03*
D18*
%TO.P,J1,3,GND*%
%TO.N,GND*%
X11000000Y42000000D03*
D17*
X19749999Y1099999D03*
%TO.P,J1,5,GND*%
X19249999Y1099999D03*
%TO.P,J1,7,USB_D+*%
%TO.N,/USBD+*%
X18749999Y1099999D03*
%TO.P,J1,9,USB_D-*%
%TO.N,/USBD-*%
X18249999Y1099999D03*
%TO.P,J1,11,GND*%
%TO.N,GND*%
X17749999Y1099999D03*
%TO.P,J1,21,CONFIG_0*%
%TO.N,unconnected-(J1-CONFIG_0-Pad21)*%
X15249999Y1099999D03*
%TO.P,J1,27,GND*%
%TO.N,GND*%
X13749999Y1099999D03*
%TO.P,J1,33,GND*%
X12249999Y1099999D03*
%TO.P,J1,39,GND*%
X10749999Y1099999D03*
%TO.P,J1,45,GND*%
X9249999Y1099999D03*
%TO.P,J1,51,GND*%
X7749999Y1099999D03*
%TO.P,J1,57,GND*%
X6249999Y1099999D03*
%TO.P,J1,69,CONFIG_1*%
%TO.N,unconnected-(J1-CONFIG_1-Pad69)*%
X3249999Y1099999D03*
%TO.P,J1,71,GND*%
%TO.N,GND*%
X2749999Y1099999D03*
%TO.P,J1,73,GND*%
X2249999Y1099999D03*
%TO.P,J1,75,CONFIG_2*%
%TO.N,unconnected-(J1-CONFIG_2-Pad75)*%
X1749999Y1099999D03*
%TD*%
D15*
%TO.P,C3.1,1*%
%TO.N,/3V3 PROT*%
X3567500Y6300000D03*
%TO.P,C3.1,2*%
%TO.N,GND*%
X2432500Y6300000D03*
%TD*%
%TO.P,C3.2,1*%
%TO.N,/3V3 PROT*%
X3567500Y7400000D03*
%TO.P,C3.2,2*%
%TO.N,GND*%
X2432500Y7400000D03*
%TD*%
D19*
%TO.P,D1,1,K*%
%TO.N,+5V*%
X15750000Y5100000D03*
%TO.P,D1,2,A*%
%TO.N,/BOOST IN*%
X13650000Y5100000D03*
%TD*%
D20*
%TO.P,R1,1*%
%TO.N,/BOOST IN*%
X13602500Y6800000D03*
%TO.P,R1,2*%
%TO.N,/SNUBBER RC*%
X14797500Y6800000D03*
%TD*%
D11*
%TO.P,C1.3,1*%
%TO.N,+5V*%
X18432500Y6800000D03*
%TO.P,C1.3,2*%
%TO.N,GND*%
X19567500Y6800000D03*
%TD*%
D21*
%TO.N,+5V*%
X14500000Y10120000D03*
D22*
%TO.N,GND*%
X20400000Y2900000D03*
X19500000Y7700000D03*
X3200000Y9700000D03*
X15500000Y7700000D03*
X1200000Y9700000D03*
X13750000Y2500000D03*
X19700000Y9700000D03*
X12250000Y2500000D03*
X20700000Y9700000D03*
X1200000Y8700000D03*
X1200000Y6700000D03*
X21200000Y8700000D03*
X1700000Y3000000D03*
X10900000Y5900000D03*
X1200000Y7700000D03*
X9250000Y2500000D03*
X2200000Y9700000D03*
X17600000Y2500000D03*
X18700000Y9700000D03*
X7750000Y2500000D03*
X17500000Y7700000D03*
X17500000Y5700000D03*
X6250000Y2500000D03*
X10750000Y2500000D03*
X14500000Y7700000D03*
X18500000Y7700000D03*
%TO.N,+3V3*%
X12250000Y3600000D03*
X7750000Y3600000D03*
X15250000Y3600000D03*
X3200000Y3000000D03*
D21*
%TO.N,/USBD+*%
X10000000Y10120000D03*
%TO.N,/USBD-*%
X12000000Y10120000D03*
%TO.N,/3V3 PROT*%
X5237500Y5700000D03*
%TD*%
D23*
%TO.N,+5V*%
X12300000Y4400000D02*
X11937500Y4762500D01*
X15750000Y5382500D02*
X17167500Y6800000D01*
X15750000Y5100000D02*
X15750000Y5382500D01*
X15750000Y4650000D02*
X15500000Y4400000D01*
X17167500Y6845673D02*
X14500000Y9513173D01*
X18432500Y6800000D02*
X17167500Y6800000D01*
X18432500Y6800000D02*
X18432500Y5700000D01*
X18432500Y5000000D02*
X18032500Y4600000D01*
X15500000Y4400000D02*
X12300000Y4400000D01*
X15750000Y5100000D02*
X15750000Y4650000D01*
X18432500Y5700000D02*
X18432500Y5000000D01*
X17167500Y6800000D02*
X17167500Y6845673D01*
X14500000Y9513173D02*
X14500000Y10120000D01*
X11937500Y4762500D02*
X11937500Y4950000D01*
%TO.N,GND*%
X2432500Y9467500D02*
X2200000Y9700000D01*
X1700000Y2800000D02*
X1700000Y3000000D01*
X19300000Y2200000D02*
X19250000Y2150000D01*
X19750000Y1100000D02*
X19750000Y2150000D01*
X19567500Y6800000D02*
X19567500Y7632500D01*
X17750000Y2350000D02*
X17600000Y2500000D01*
X19700000Y2200000D02*
X19300000Y2200000D01*
X19567500Y5700000D02*
X19567500Y5000000D01*
X19750000Y2150000D02*
X19700000Y2200000D01*
X10750000Y2500000D02*
X10750000Y1100000D01*
X9662500Y5900000D02*
X10900000Y5900000D01*
X2300000Y2200000D02*
X2250000Y2150000D01*
X13750000Y2500000D02*
X13750000Y1100000D01*
X19567500Y6800000D02*
X19567500Y5700000D01*
X19700000Y2200000D02*
X20400000Y2900000D01*
X2300000Y2200000D02*
X1700000Y2800000D01*
X19567500Y7632500D02*
X19500000Y7700000D01*
X2250000Y2150000D02*
X2250000Y1100000D01*
X9250000Y2500000D02*
X9250000Y1100000D01*
X2432500Y8500000D02*
X2432500Y7400000D01*
X17750000Y1100000D02*
X17750000Y2350000D01*
X6250000Y1100000D02*
X6250000Y2500000D01*
X2432500Y8500000D02*
X2432500Y9467500D01*
X19250000Y2150000D02*
X19250000Y1100000D01*
X2750000Y1100000D02*
X2750000Y2150000D01*
X2432500Y7400000D02*
X2432500Y6300000D01*
X2750000Y2150000D02*
X2700000Y2200000D01*
X7750000Y2500000D02*
X7750000Y1100000D01*
X2700000Y2200000D02*
X2300000Y2200000D01*
X12250000Y2500000D02*
X12250000Y1100000D01*
X19567500Y5000000D02*
X19167500Y4600000D01*
%TO.N,/SNUBBER RC*%
X14797500Y6800000D02*
X16032500Y6800000D01*
%TO.N,+3V3*%
X3400000Y3900000D02*
X3000000Y3900000D01*
X12250000Y3600000D02*
X15250000Y3600000D01*
X1900000Y3900000D02*
X1525000Y4275000D01*
X3200000Y3700000D02*
X3400000Y3900000D01*
X5600000Y3900000D02*
X3400000Y3900000D01*
X7750000Y3600000D02*
X5900000Y3600000D01*
X3000000Y3900000D02*
X1900000Y3900000D01*
X1525000Y4275000D02*
X1525000Y4900000D01*
X3200000Y3000000D02*
X3200000Y3700000D01*
X5900000Y3600000D02*
X5600000Y3900000D01*
X3200000Y3700000D02*
X3000000Y3900000D01*
%TO.N,/BOOST IN*%
X13602500Y6800000D02*
X13602500Y5147500D01*
X13602500Y5147500D02*
X13650000Y5100000D01*
X7562500Y5700000D02*
X8712500Y6850000D01*
X12802500Y7600000D02*
X13602500Y6800000D01*
X10412500Y7600000D02*
X12802500Y7600000D01*
X8712500Y6850000D02*
X9662500Y6850000D01*
X9662500Y6850000D02*
X10412500Y7600000D01*
%TO.N,/USBD+*%
X20950000Y7962515D02*
X20950000Y4369792D01*
X18750000Y2696446D02*
X18750000Y1100000D01*
X16550000Y9503554D02*
X17203554Y8850000D01*
X10000000Y10995000D02*
X10750000Y11745000D01*
X16550000Y11822554D02*
X16550000Y9503554D01*
X17203554Y8850000D02*
X20062515Y8850000D01*
X19930208Y3350000D02*
X19403554Y3350000D01*
X9900000Y10995000D02*
X9900000Y10120000D01*
X20950000Y4369792D02*
X19930208Y3350000D01*
X15622554Y12750000D02*
X16550000Y11822554D01*
X10000000Y10120000D02*
X10000000Y10995000D01*
X19403554Y3350000D02*
X18750000Y2696446D01*
X10750000Y11745000D02*
X10750000Y12201703D01*
X11298297Y12750000D02*
X15622554Y12750000D01*
X20062515Y8850000D02*
X20950000Y7962515D01*
X10750000Y12201703D02*
X11298297Y12750000D01*
%TO.N,/USBD-*%
X16050000Y11615446D02*
X16050000Y9296446D01*
X16996446Y8350000D02*
X19855407Y8350000D01*
X16050000Y9296446D02*
X16996446Y8350000D01*
X15365446Y12300000D02*
X16050000Y11615446D01*
X15365446Y12300000D02*
X11484693Y12300000D01*
X19723100Y3850000D02*
X19196446Y3850000D01*
X12000000Y10120000D02*
X12000000Y10995000D01*
X20450000Y7755407D02*
X20450000Y4576900D01*
X11484693Y12300000D02*
X11250000Y12065307D01*
X11250000Y11745000D02*
X11250000Y12065307D01*
X19855407Y8350000D02*
X20450000Y7755407D01*
X11900000Y10120000D02*
X11900000Y10995000D01*
X19196446Y3850000D02*
X18250000Y2903554D01*
X12000000Y10995000D02*
X11250000Y11745000D01*
X20450000Y4576900D02*
X19723100Y3850000D01*
X18250000Y2903554D02*
X18250000Y1100000D01*
%TO.N,/3V3 PROT*%
X3567500Y7400000D02*
X3567500Y8500000D01*
X3275000Y4900000D02*
X4437500Y4900000D01*
X3567500Y6300000D02*
X3567500Y7400000D01*
X3567500Y6300000D02*
X4637500Y6300000D01*
X4437500Y4900000D02*
X5237500Y5700000D01*
X4637500Y6300000D02*
X5237500Y5700000D01*
%TD*%
%TA.AperFunction,Conductor*%
%TO.N,GND*%
G36*
X20873385Y3614212D02*
G01*
X20910985Y3570189D01*
X20924500Y3513894D01*
X20924500Y2374000D01*
X20907887Y2312000D01*
X20862500Y2266613D01*
X20800500Y2250000D01*
X19249500Y2250000D01*
X19187500Y2266613D01*
X19142113Y2312000D01*
X19125500Y2374000D01*
X19125500Y2489547D01*
X19134939Y2537000D01*
X19161819Y2577228D01*
X19522773Y2938181D01*
X19563001Y2965061D01*
X19610454Y2974500D01*
X19878403Y2974500D01*
X19903852Y2971860D01*
X19904417Y2971742D01*
X19904418Y2971742D01*
X19914476Y2969633D01*
X19945884Y2973549D01*
X19951095Y2973872D01*
X19951079Y2974076D01*
X19956194Y2974500D01*
X19961322Y2974500D01*
X19981844Y2977926D01*
X19986874Y2978658D01*
X20038834Y2985134D01*
X20045978Y2988627D01*
X20053818Y2989935D01*
X20099855Y3014850D01*
X20104372Y3017175D01*
X20151419Y3040174D01*
X20157042Y3045798D01*
X20164034Y3049581D01*
X20199525Y3088137D01*
X20203002Y3091759D01*
X20712819Y3601576D01*
X20762182Y3631825D01*
X20819898Y3636367D01*
X20873385Y3614212D01*
G37*
%TD.AperFunction*%
%TA.AperFunction,Conductor*%
G36*
X21738000Y41783387D02*
G01*
X21783387Y41738000D01*
X21800000Y41676000D01*
X21800000Y4124500D01*
X21783387Y4062500D01*
X21738000Y4017113D01*
X21676000Y4000500D01*
X21389188Y4000500D01*
X21327936Y4016684D01*
X21282673Y4061013D01*
X21265215Y4121914D01*
X21279798Y4182166D01*
X21284809Y4188603D01*
X21287390Y4196124D01*
X21292010Y4202593D01*
X21306955Y4252797D01*
X21308479Y4257554D01*
X21325500Y4307132D01*
X21325500Y4315086D01*
X21327768Y4322704D01*
X21325606Y4374985D01*
X21325500Y4380108D01*
X21325500Y7910712D01*
X21328139Y7936158D01*
X21328141Y7936172D01*
X21330367Y7946784D01*
X21326451Y7978191D01*
X21326128Y7983402D01*
X21325924Y7983385D01*
X21325500Y7988500D01*
X21325500Y7993629D01*
X21322069Y8014186D01*
X21321342Y8019175D01*
X21314865Y8071141D01*
X21311373Y8078283D01*
X21310065Y8086125D01*
X21285156Y8132152D01*
X21282814Y8136704D01*
X21264339Y8174495D01*
X21259826Y8183727D01*
X21254201Y8189352D01*
X21250419Y8196341D01*
X21211905Y8231796D01*
X21208231Y8235322D01*
X20364665Y9078888D01*
X20348537Y9098749D01*
X20348221Y9099232D01*
X20348218Y9099235D01*
X20342599Y9107836D01*
X20317624Y9127275D01*
X20313705Y9130736D01*
X20313573Y9130579D01*
X20309658Y9133895D01*
X20306033Y9137520D01*
X20289106Y9149605D01*
X20284996Y9152670D01*
X20251812Y9178498D01*
X20243704Y9184809D01*
X20236183Y9187391D01*
X20229714Y9192010D01*
X20219868Y9194942D01*
X20219865Y9194943D01*
X20179558Y9206944D01*
X20174682Y9208506D01*
X20134896Y9222164D01*
X20134889Y9222166D01*
X20125175Y9225500D01*
X20117221Y9225500D01*
X20109603Y9227768D01*
X20099338Y9227344D01*
X20099335Y9227344D01*
X20057322Y9225606D01*
X20052199Y9225500D01*
X17410453Y9225500D01*
X17363000Y9234939D01*
X17322772Y9261819D01*
X16961819Y9622773D01*
X16934939Y9663001D01*
X16925500Y9710454D01*
X16925500Y11770750D01*
X16928139Y11796196D01*
X16928141Y11796210D01*
X16930367Y11806822D01*
X16926451Y11838231D01*
X16926128Y11843441D01*
X16925924Y11843424D01*
X16925500Y11848536D01*
X16925500Y11853668D01*
X16922074Y11874192D01*
X16921341Y11879228D01*
X16920358Y11887113D01*
X16914866Y11931180D01*
X16911373Y11938325D01*
X16910065Y11946164D01*
X16905173Y11955203D01*
X16901837Y11964923D01*
X16903877Y11965624D01*
X16893143Y12006050D01*
X16905471Y12062863D01*
X16942337Y12107813D01*
X16995639Y12131021D01*
X17053659Y12127386D01*
X17179385Y12088604D01*
X17438818Y12049500D01*
X17696547Y12049500D01*
X17701182Y12049500D01*
X17960615Y12088604D01*
X18211323Y12165937D01*
X18447704Y12279772D01*
X18664479Y12427567D01*
X18856805Y12606019D01*
X19020386Y12811143D01*
X19151568Y13038357D01*
X19247420Y13282584D01*
X19305802Y13538370D01*
X19325408Y13800000D01*
X19305802Y14061630D01*
X19247420Y14317416D01*
X19151568Y14561643D01*
X19020386Y14788857D01*
X18856805Y14993981D01*
X18664479Y15172433D01*
X18447704Y15320228D01*
X18443518Y15322244D01*
X18215502Y15432051D01*
X18215496Y15432054D01*
X18211323Y15434063D01*
X18206901Y15435427D01*
X18206891Y15435431D01*
X17965048Y15510029D01*
X17965043Y15510031D01*
X17960615Y15511396D01*
X17956035Y15512087D01*
X17956028Y15512088D01*
X17705765Y15549810D01*
X17705754Y15549811D01*
X17701182Y15550500D01*
X17438818Y15550500D01*
X17434246Y15549811D01*
X17434234Y15549810D01*
X17183971Y15512088D01*
X17183961Y15512086D01*
X17179385Y15511396D01*
X17174959Y15510032D01*
X17174951Y15510029D01*
X16933108Y15435431D01*
X16933093Y15435426D01*
X16928677Y15434063D01*
X16924508Y15432056D01*
X16924497Y15432051D01*
X16696481Y15322244D01*
X16696474Y15322241D01*
X16692296Y15320228D01*
X16688463Y15317615D01*
X16688460Y15317613D01*
X16479349Y15175043D01*
X16475521Y15172433D01*
X16472129Y15169287D01*
X16472123Y15169281D01*
X16286596Y14997137D01*
X16283195Y14993981D01*
X16280306Y14990359D01*
X16280302Y14990354D01*
X16122506Y14792484D01*
X16119614Y14788857D01*
X16117295Y14784841D01*
X16117294Y14784839D01*
X15990753Y14565665D01*
X15990747Y14565654D01*
X15988432Y14561643D01*
X15986739Y14557330D01*
X15986734Y14557319D01*
X15894276Y14321739D01*
X15894273Y14321732D01*
X15892580Y14317416D01*
X15891548Y14312898D01*
X15891547Y14312892D01*
X15835229Y14066150D01*
X15835227Y14066142D01*
X15834198Y14061630D01*
X15814592Y13800000D01*
X15834198Y13538370D01*
X15892580Y13282584D01*
X15894276Y13278263D01*
X15897976Y13268835D01*
X15904441Y13200778D01*
X15873856Y13139638D01*
X15815518Y13103999D01*
X15747158Y13104692D01*
X15739592Y13106945D01*
X15734721Y13108506D01*
X15694935Y13122164D01*
X15694928Y13122166D01*
X15685214Y13125500D01*
X15677260Y13125500D01*
X15669642Y13127768D01*
X15659377Y13127344D01*
X15659374Y13127344D01*
X15617361Y13125606D01*
X15612238Y13125500D01*
X11350102Y13125500D01*
X11324653Y13128140D01*
X11324087Y13128259D01*
X11324080Y13128260D01*
X11314029Y13130367D01*
X11303838Y13129097D01*
X11303834Y13129097D01*
X11282621Y13126452D01*
X11277406Y13126129D01*
X11277423Y13125924D01*
X11272304Y13125500D01*
X11267183Y13125500D01*
X11262135Y13124658D01*
X11262125Y13124657D01*
X11246691Y13122082D01*
X11241631Y13121345D01*
X11199868Y13116139D01*
X11199857Y13116136D01*
X11189671Y13114866D01*
X11182526Y13111374D01*
X11174687Y13110065D01*
X11165658Y13105180D01*
X11165655Y13105178D01*
X11128666Y13085162D01*
X11124118Y13082821D01*
X11086314Y13064338D01*
X11086312Y13064337D01*
X11077086Y13059826D01*
X11071462Y13054203D01*
X11064471Y13050419D01*
X11057518Y13042868D01*
X11057516Y13042865D01*
X11029015Y13011906D01*
X11025469Y13008211D01*
X10521107Y12503850D01*
X10501258Y12487730D01*
X10492164Y12481787D01*
X10485858Y12473686D01*
X10485852Y12473680D01*
X10472720Y12456808D01*
X10469273Y12452881D01*
X10469418Y12452758D01*
X10466105Y12448848D01*
X10462480Y12445221D01*
X10459505Y12441055D01*
X10459498Y12441046D01*
X10450401Y12428304D01*
X10447342Y12424202D01*
X10421500Y12391000D01*
X10421496Y12390993D01*
X10415191Y12382892D01*
X10412609Y12375372D01*
X10407990Y12368902D01*
X10405060Y12359062D01*
X10405058Y12359057D01*
X10393056Y12318746D01*
X10391495Y12313874D01*
X10377836Y12274084D01*
X10377835Y12274079D01*
X10374500Y12264363D01*
X10374500Y12256409D01*
X10372232Y12248791D01*
X10372656Y12238528D01*
X10372656Y12238524D01*
X10374394Y12196510D01*
X10374500Y12191387D01*
X10374500Y11994500D01*
X10357887Y11932500D01*
X10312500Y11887113D01*
X10250500Y11870500D01*
X9350326Y11870500D01*
X9344351Y11869312D01*
X9344346Y11869311D01*
X9289240Y11858350D01*
X9289235Y11858349D01*
X9277260Y11855966D01*
X9267105Y11849181D01*
X9267103Y11849180D01*
X9204551Y11807385D01*
X9204548Y11807383D01*
X9194399Y11800601D01*
X9187617Y11790452D01*
X9187615Y11790449D01*
X9145820Y11727897D01*
X9145819Y11727895D01*
X9139034Y11717740D01*
X9136651Y11705765D01*
X9136650Y11705760D01*
X9125689Y11650654D01*
X9125688Y11650649D01*
X9124500Y11644674D01*
X9124500Y8595326D01*
X9125688Y8589351D01*
X9125689Y8589347D01*
X9136650Y8534241D01*
X9136651Y8534238D01*
X9139034Y8522260D01*
X9194399Y8439399D01*
X9277260Y8384034D01*
X9350326Y8369500D01*
X10643579Y8369500D01*
X10649674Y8369500D01*
X10722740Y8384034D01*
X10805601Y8439399D01*
X10860966Y8522260D01*
X10875500Y8595326D01*
X10875500Y11288101D01*
X10884915Y11335496D01*
X10911731Y11375694D01*
X10911892Y11375857D01*
X10912232Y11376196D01*
X10967827Y11408354D01*
X11032054Y11408386D01*
X11087681Y11376282D01*
X11088181Y11375782D01*
X11115061Y11335554D01*
X11124500Y11288101D01*
X11124500Y8595326D01*
X11125688Y8589351D01*
X11125689Y8589347D01*
X11136650Y8534241D01*
X11136651Y8534238D01*
X11139034Y8522260D01*
X11194399Y8439399D01*
X11277260Y8384034D01*
X11350326Y8369500D01*
X12643579Y8369500D01*
X12649674Y8369500D01*
X12722740Y8384034D01*
X12805601Y8439399D01*
X12860966Y8522260D01*
X12875500Y8595326D01*
X12875500Y11644674D01*
X12860966Y11717740D01*
X12854178Y11727899D01*
X12854177Y11727902D01*
X12851698Y11731613D01*
X12830951Y11794419D01*
X12845445Y11858955D01*
X12891054Y11906859D01*
X12954802Y11924500D01*
X13545198Y11924500D01*
X13608946Y11906859D01*
X13654555Y11858955D01*
X13669049Y11794419D01*
X13648302Y11731613D01*
X13645822Y11727902D01*
X13645818Y11727895D01*
X13639034Y11717740D01*
X13636651Y11705765D01*
X13636650Y11705760D01*
X13625689Y11650654D01*
X13625688Y11650649D01*
X13624500Y11644674D01*
X13624500Y8595326D01*
X13625688Y8589351D01*
X13625689Y8589347D01*
X13636650Y8534241D01*
X13636651Y8534238D01*
X13639034Y8522260D01*
X13694399Y8439399D01*
X13777260Y8384034D01*
X13850326Y8369500D01*
X15061274Y8369500D01*
X15108727Y8360061D01*
X15148955Y8333181D01*
X15909955Y7572181D01*
X15940205Y7522818D01*
X15944747Y7465102D01*
X15922592Y7411615D01*
X15878569Y7374015D01*
X15822274Y7360500D01*
X15788084Y7360500D01*
X15783270Y7359738D01*
X15783263Y7359737D01*
X15702773Y7346989D01*
X15702766Y7346988D01*
X15693132Y7345461D01*
X15684436Y7341031D01*
X15684435Y7341030D01*
X15587377Y7291577D01*
X15587373Y7291575D01*
X15578682Y7287146D01*
X15571783Y7280248D01*
X15571780Y7280245D01*
X15503355Y7211819D01*
X15463127Y7184939D01*
X15415674Y7175500D01*
X15411397Y7175500D01*
X15363944Y7184939D01*
X15323716Y7211819D01*
X15246195Y7289340D01*
X15239294Y7296241D01*
X15123433Y7355275D01*
X15113796Y7356802D01*
X15113791Y7356803D01*
X15032127Y7369737D01*
X15032121Y7369738D01*
X15027307Y7370500D01*
X15022428Y7370500D01*
X14572563Y7370500D01*
X14572550Y7370500D01*
X14567694Y7370499D01*
X14562890Y7369739D01*
X14562887Y7369738D01*
X14481202Y7356802D01*
X14481195Y7356800D01*
X14471567Y7355275D01*
X14462877Y7350848D01*
X14462873Y7350846D01*
X14364401Y7300672D01*
X14364397Y7300670D01*
X14355706Y7296241D01*
X14348807Y7289343D01*
X14348804Y7289340D01*
X14287681Y7228216D01*
X14232094Y7196122D01*
X14167906Y7196122D01*
X14112319Y7228216D01*
X14051195Y7289340D01*
X14044294Y7296241D01*
X13928433Y7355275D01*
X13918796Y7356802D01*
X13918791Y7356803D01*
X13837127Y7369737D01*
X13837121Y7369738D01*
X13832307Y7370500D01*
X13827429Y7370500D01*
X13614399Y7370500D01*
X13566946Y7379939D01*
X13526718Y7406819D01*
X13104650Y7828888D01*
X13088522Y7848749D01*
X13088206Y7849232D01*
X13088203Y7849235D01*
X13082584Y7857836D01*
X13057609Y7877275D01*
X13053690Y7880736D01*
X13053558Y7880579D01*
X13049643Y7883895D01*
X13046018Y7887520D01*
X13029091Y7899605D01*
X13024981Y7902670D01*
X12991797Y7928498D01*
X12983689Y7934809D01*
X12976168Y7937391D01*
X12969699Y7942010D01*
X12959853Y7944942D01*
X12959850Y7944943D01*
X12919543Y7956944D01*
X12914667Y7958506D01*
X12874881Y7972164D01*
X12874874Y7972166D01*
X12865160Y7975500D01*
X12857206Y7975500D01*
X12849588Y7977768D01*
X12839323Y7977344D01*
X12839320Y7977344D01*
X12797307Y7975606D01*
X12792184Y7975500D01*
X10464305Y7975500D01*
X10438856Y7978140D01*
X10438290Y7978259D01*
X10438283Y7978260D01*
X10428232Y7980367D01*
X10418041Y7979097D01*
X10418037Y7979097D01*
X10396824Y7976452D01*
X10391609Y7976129D01*
X10391626Y7975924D01*
X10386507Y7975500D01*
X10381386Y7975500D01*
X10376338Y7974658D01*
X10376328Y7974657D01*
X10360894Y7972082D01*
X10355834Y7971345D01*
X10314071Y7966139D01*
X10314060Y7966136D01*
X10303874Y7964866D01*
X10296729Y7961374D01*
X10288890Y7960065D01*
X10279861Y7955180D01*
X10279858Y7955178D01*
X10242869Y7935162D01*
X10238321Y7932821D01*
X10200517Y7914338D01*
X10200515Y7914337D01*
X10191289Y7909826D01*
X10185665Y7904203D01*
X10178674Y7900419D01*
X10171721Y7892868D01*
X10171719Y7892865D01*
X10143218Y7861906D01*
X10139672Y7858211D01*
X9718279Y7436819D01*
X9678051Y7409939D01*
X9630598Y7400500D01*
X9123352Y7400500D01*
X9123339Y7400500D01*
X9118482Y7400499D01*
X9113680Y7399739D01*
X9113673Y7399738D01*
X9034331Y7387172D01*
X9034330Y7387172D01*
X9024696Y7385646D01*
X9016010Y7381221D01*
X9016003Y7381218D01*
X8920353Y7332481D01*
X8920349Y7332479D01*
X8911658Y7328050D01*
X8904758Y7321151D01*
X8904759Y7321151D01*
X8846563Y7262955D01*
X8794265Y7231792D01*
X8748638Y7229904D01*
X8748553Y7227834D01*
X8738285Y7228259D01*
X8728232Y7230367D01*
X8718041Y7229097D01*
X8718037Y7229097D01*
X8696824Y7226452D01*
X8691604Y7226129D01*
X8691621Y7225923D01*
X8686510Y7225500D01*
X8681386Y7225500D01*
X8676340Y7224659D01*
X8676325Y7224657D01*
X8660882Y7222080D01*
X8655820Y7221343D01*
X8614068Y7216138D01*
X8614060Y7216136D01*
X8603875Y7214866D01*
X8596730Y7211374D01*
X8588890Y7210065D01*
X8579863Y7205181D01*
X8579863Y7205180D01*
X8542867Y7185159D01*
X8538313Y7182815D01*
X8500509Y7164334D01*
X8500506Y7164333D01*
X8491289Y7159826D01*
X8485665Y7154203D01*
X8478674Y7150419D01*
X8471721Y7142868D01*
X8471719Y7142865D01*
X8443218Y7111906D01*
X8439672Y7108211D01*
X8365870Y7034409D01*
X8304547Y7000924D01*
X8234856Y7005908D01*
X8139751Y7041380D01*
X8139749Y7041381D01*
X8132482Y7044091D01*
X8124769Y7044921D01*
X8124766Y7044921D01*
X8076179Y7050145D01*
X8076168Y7050146D01*
X8072872Y7050500D01*
X7052128Y7050500D01*
X7048832Y7050146D01*
X7048820Y7050145D01*
X7000233Y7044921D01*
X7000228Y7044921D01*
X6992518Y7044091D01*
X6985251Y7041381D01*
X6985248Y7041380D01*
X6865981Y6996896D01*
X6865979Y6996896D01*
X6857670Y6993796D01*
X6850572Y6988484D01*
X6850569Y6988481D01*
X6749550Y6912859D01*
X6749546Y6912856D01*
X6742454Y6907546D01*
X6737144Y6900454D01*
X6737141Y6900450D01*
X6661519Y6799431D01*
X6661516Y6799428D01*
X6656204Y6792330D01*
X6653104Y6784021D01*
X6653104Y6784019D01*
X6608620Y6664752D01*
X6608619Y6664749D01*
X6605909Y6657482D01*
X6605079Y6649772D01*
X6605079Y6649767D01*
X6599855Y6601180D01*
X6599854Y6601168D01*
X6599500Y6597872D01*
X6599500Y4802128D01*
X6599854Y4798832D01*
X6599855Y4798821D01*
X6605079Y4750234D01*
X6605909Y4742518D01*
X6656204Y4607670D01*
X6661518Y4600571D01*
X6661519Y4600570D01*
X6725530Y4515061D01*
X6742454Y4492454D01*
X6857670Y4406204D01*
X6992518Y4355909D01*
X7052128Y4349500D01*
X8069550Y4349500D01*
X8072872Y4349500D01*
X8132482Y4355909D01*
X8267330Y4406204D01*
X8382546Y4492454D01*
X8468796Y4607670D01*
X8518850Y4741875D01*
X8556264Y4794309D01*
X8614935Y4820901D01*
X8679029Y4814472D01*
X8731250Y4776758D01*
X8757506Y4717936D01*
X8764354Y4674696D01*
X8768780Y4666009D01*
X8768782Y4666004D01*
X8813814Y4577626D01*
X8821950Y4561658D01*
X8911658Y4471950D01*
X9024696Y4414354D01*
X9118481Y4399500D01*
X10206518Y4399501D01*
X10300304Y4414354D01*
X10413342Y4471950D01*
X10503050Y4561658D01*
X10560646Y4674696D01*
X10575500Y4768481D01*
X10575499Y5131518D01*
X10560646Y5225304D01*
X10549617Y5246949D01*
X10507482Y5329644D01*
X10507480Y5329647D01*
X10503050Y5338342D01*
X10496144Y5345248D01*
X10490845Y5352541D01*
X10469871Y5399648D01*
X10469871Y5451213D01*
X10490845Y5498319D01*
X10507073Y5520654D01*
X10555733Y5616156D01*
X10561692Y5634495D01*
X10574236Y5713697D01*
X10575000Y5723399D01*
X10575000Y5758674D01*
X10571549Y5771550D01*
X10558674Y5775000D01*
X9661500Y5775000D01*
X9599500Y5791613D01*
X9554113Y5837000D01*
X9537500Y5899000D01*
X9537500Y5901000D01*
X9554113Y5963000D01*
X9599500Y6008387D01*
X9661500Y6025000D01*
X10558673Y6025000D01*
X10571548Y6028451D01*
X10574999Y6041326D01*
X10574999Y6076609D01*
X10574237Y6086289D01*
X10561690Y6165513D01*
X10555736Y6183841D01*
X10507071Y6279350D01*
X10490844Y6301684D01*
X10469871Y6348790D01*
X10469871Y6400355D01*
X10490846Y6447461D01*
X10496142Y6454751D01*
X10503050Y6461658D01*
X10560646Y6574696D01*
X10575500Y6668481D01*
X10575499Y7031518D01*
X10567646Y7081105D01*
X10570776Y7134160D01*
X10595830Y7181032D01*
X10638207Y7213110D01*
X10690120Y7224500D01*
X10909880Y7224500D01*
X10961794Y7213110D01*
X11004170Y7181032D01*
X11029224Y7134159D01*
X11032353Y7081103D01*
X11025263Y7036342D01*
X11025262Y7036331D01*
X11024500Y7031519D01*
X11024500Y7026642D01*
X11024500Y7026641D01*
X11024500Y6673353D01*
X11024500Y6673341D01*
X11024501Y6668482D01*
X11025261Y6663680D01*
X11025262Y6663674D01*
X11026243Y6657482D01*
X11039354Y6574696D01*
X11043780Y6566009D01*
X11043782Y6566004D01*
X11071520Y6511567D01*
X11096950Y6461658D01*
X11186658Y6371950D01*
X11299696Y6314354D01*
X11393481Y6299500D01*
X12481518Y6299501D01*
X12575304Y6314354D01*
X12688342Y6371950D01*
X12778050Y6461658D01*
X12796117Y6497119D01*
X12841811Y6546550D01*
X12906601Y6564823D01*
X12971391Y6546551D01*
X13017087Y6497118D01*
X13052074Y6428451D01*
X13068759Y6395706D01*
X13160706Y6303759D01*
X13169401Y6299329D01*
X13175885Y6294618D01*
X13213485Y6250595D01*
X13227000Y6194300D01*
X13227000Y5541721D01*
X13217561Y5494268D01*
X13190681Y5454040D01*
X13170254Y5433614D01*
X13170251Y5433611D01*
X13162988Y5426347D01*
X13158476Y5417119D01*
X13158474Y5417115D01*
X13114008Y5326159D01*
X13114006Y5326155D01*
X13109780Y5317509D01*
X13108392Y5307986D01*
X13108392Y5307984D01*
X13100147Y5251388D01*
X13099500Y5246949D01*
X13099500Y5242464D01*
X13099500Y5242463D01*
X13099500Y4957541D01*
X13099500Y4957528D01*
X13099501Y4953052D01*
X13100145Y4948625D01*
X13100147Y4948610D01*
X13104698Y4917374D01*
X13101019Y4864730D01*
X13075781Y4818384D01*
X13033557Y4786729D01*
X12981993Y4775500D01*
X12974500Y4775500D01*
X12912500Y4792113D01*
X12867113Y4837500D01*
X12850500Y4899499D01*
X12850499Y5126648D01*
X12850499Y5131518D01*
X12835646Y5225304D01*
X12824617Y5246949D01*
X12793518Y5307984D01*
X12778050Y5338342D01*
X12688342Y5428050D01*
X12575304Y5485646D01*
X12565667Y5487173D01*
X12565662Y5487174D01*
X12486339Y5499737D01*
X12486333Y5499738D01*
X12481519Y5500500D01*
X12476640Y5500500D01*
X11398352Y5500500D01*
X11398339Y5500500D01*
X11393482Y5500499D01*
X11388680Y5499739D01*
X11388673Y5499738D01*
X11309331Y5487172D01*
X11309330Y5487172D01*
X11299696Y5485646D01*
X11291010Y5481221D01*
X11291003Y5481218D01*
X11195353Y5432481D01*
X11195349Y5432479D01*
X11186658Y5428050D01*
X11179759Y5421152D01*
X11179756Y5421149D01*
X11103851Y5345244D01*
X11103848Y5345241D01*
X11096950Y5338342D01*
X11092521Y5329651D01*
X11092519Y5329647D01*
X11050382Y5246948D01*
X11039354Y5225304D01*
X11037827Y5215670D01*
X11037826Y5215663D01*
X11025263Y5136340D01*
X11025262Y5136333D01*
X11024500Y5131519D01*
X11024500Y5126642D01*
X11024500Y5126641D01*
X11024500Y4773353D01*
X11024500Y4773341D01*
X11024501Y4768482D01*
X11025261Y4763680D01*
X11025262Y4763674D01*
X11027391Y4750234D01*
X11039354Y4674696D01*
X11043780Y4666009D01*
X11043782Y4666004D01*
X11088814Y4577626D01*
X11096950Y4561658D01*
X11186658Y4471950D01*
X11299696Y4414354D01*
X11393481Y4399500D01*
X11718100Y4399501D01*
X11765553Y4390062D01*
X11805781Y4363182D01*
X11973184Y4195779D01*
X12002440Y4149351D01*
X12008793Y4094844D01*
X11990999Y4042932D01*
X11952544Y4003783D01*
X11926328Y3986935D01*
X11926326Y3986934D01*
X11918872Y3982143D01*
X11913070Y3975449D01*
X11913065Y3975443D01*
X11830431Y3880077D01*
X11830428Y3880073D01*
X11824623Y3873373D01*
X11820941Y3865311D01*
X11820938Y3865306D01*
X11768520Y3750527D01*
X11764835Y3742457D01*
X11763573Y3733684D01*
X11763572Y3733678D01*
X11750415Y3642164D01*
X11744353Y3600000D01*
X11745615Y3591223D01*
X11763572Y3466323D01*
X11763573Y3466319D01*
X11764835Y3457543D01*
X11768519Y3449475D01*
X11768520Y3449474D01*
X11820408Y3335855D01*
X11824623Y3326627D01*
X11830430Y3319925D01*
X11830431Y3319924D01*
X11913065Y3224558D01*
X11913067Y3224556D01*
X11918872Y3217857D01*
X12039947Y3140047D01*
X12178039Y3099500D01*
X12313090Y3099500D01*
X12321961Y3099500D01*
X12460053Y3140047D01*
X12560835Y3204816D01*
X12627875Y3224500D01*
X14872125Y3224500D01*
X14939164Y3204816D01*
X15039947Y3140047D01*
X15178039Y3099500D01*
X15313090Y3099500D01*
X15321961Y3099500D01*
X15460053Y3140047D01*
X15581128Y3217857D01*
X15675377Y3326627D01*
X15735165Y3457543D01*
X15755647Y3600000D01*
X15735165Y3742457D01*
X15675377Y3873373D01*
X15662605Y3888113D01*
X15636374Y3937861D01*
X15634817Y3994080D01*
X15658254Y4045204D01*
X15701860Y4080714D01*
X15721211Y4090174D01*
X15726834Y4095798D01*
X15733826Y4099581D01*
X15769317Y4138137D01*
X15772794Y4141759D01*
X15978889Y4347854D01*
X15998747Y4363979D01*
X16007836Y4369916D01*
X16027279Y4394898D01*
X16030742Y4398791D01*
X16030571Y4398936D01*
X16033883Y4402847D01*
X16037519Y4406482D01*
X16049614Y4423424D01*
X16052621Y4427458D01*
X16084809Y4468811D01*
X16087390Y4476332D01*
X16092010Y4482801D01*
X16106959Y4533017D01*
X16108481Y4537768D01*
X16125500Y4587340D01*
X16125500Y4595293D01*
X16127768Y4602911D01*
X16127343Y4613179D01*
X16128614Y4623372D01*
X16130169Y4623179D01*
X16135950Y4657822D01*
X16163782Y4700424D01*
X16237012Y4773653D01*
X16290220Y4882491D01*
X16300500Y4953051D01*
X16300499Y5246948D01*
X16290220Y5317509D01*
X16293124Y5317933D01*
X16291705Y5367992D01*
X16324382Y5425847D01*
X17101717Y6203181D01*
X17141946Y6230061D01*
X17189399Y6239500D01*
X17407038Y6239500D01*
X17411916Y6239500D01*
X17506868Y6254539D01*
X17621318Y6312854D01*
X17696645Y6388182D01*
X17736873Y6415061D01*
X17784326Y6424500D01*
X17815674Y6424500D01*
X17863127Y6415061D01*
X17903355Y6388181D01*
X17953855Y6337681D01*
X17985949Y6282094D01*
X17985949Y6217906D01*
X17953855Y6162319D01*
X17894755Y6103220D01*
X17894752Y6103217D01*
X17887854Y6096318D01*
X17883425Y6087627D01*
X17883423Y6087623D01*
X17848016Y6018132D01*
X17829539Y5981868D01*
X17828012Y5972234D01*
X17828011Y5972227D01*
X17815263Y5891737D01*
X17815262Y5891730D01*
X17814500Y5886916D01*
X17814500Y5513084D01*
X17815262Y5508270D01*
X17815263Y5508264D01*
X17828011Y5427774D01*
X17828012Y5427769D01*
X17829539Y5418132D01*
X17833970Y5409435D01*
X17833971Y5409433D01*
X17870427Y5337883D01*
X17883942Y5281589D01*
X17870427Y5225295D01*
X17832828Y5181271D01*
X17779341Y5159116D01*
X17702773Y5146989D01*
X17702766Y5146988D01*
X17693132Y5145461D01*
X17684436Y5141031D01*
X17684435Y5141030D01*
X17587377Y5091577D01*
X17587373Y5091575D01*
X17578682Y5087146D01*
X17571783Y5080248D01*
X17571780Y5080245D01*
X17494755Y5003220D01*
X17494752Y5003217D01*
X17487854Y4996318D01*
X17483425Y4987627D01*
X17483423Y4987623D01*
X17447631Y4917376D01*
X17429539Y4881868D01*
X17428012Y4872234D01*
X17428011Y4872227D01*
X17415263Y4791737D01*
X17415262Y4791730D01*
X17414500Y4786916D01*
X17414500Y4413084D01*
X17415262Y4408270D01*
X17415263Y4408264D01*
X17428011Y4327774D01*
X17428012Y4327769D01*
X17429539Y4318132D01*
X17433970Y4309436D01*
X17483388Y4212446D01*
X17487854Y4203682D01*
X17578682Y4112854D01*
X17693132Y4054539D01*
X17788084Y4039500D01*
X18272038Y4039500D01*
X18276916Y4039500D01*
X18371868Y4054539D01*
X18486318Y4112854D01*
X18512672Y4139209D01*
X18568260Y4171303D01*
X18632448Y4171303D01*
X18688035Y4139209D01*
X18707079Y4120165D01*
X18721965Y4109349D01*
X18757268Y4069620D01*
X18772695Y4018760D01*
X18765412Y3966114D01*
X18736758Y3921352D01*
X18021107Y3205701D01*
X18001258Y3189581D01*
X17992164Y3183638D01*
X17985858Y3175537D01*
X17985852Y3175531D01*
X17972720Y3158659D01*
X17969273Y3154732D01*
X17969418Y3154609D01*
X17966105Y3150699D01*
X17962480Y3147072D01*
X17959505Y3142906D01*
X17959498Y3142897D01*
X17950401Y3130155D01*
X17947342Y3126053D01*
X17921500Y3092851D01*
X17921496Y3092844D01*
X17915191Y3084743D01*
X17912609Y3077223D01*
X17907990Y3070753D01*
X17905060Y3060913D01*
X17905058Y3060908D01*
X17893056Y3020597D01*
X17891495Y3015725D01*
X17877836Y2975935D01*
X17877835Y2975930D01*
X17874500Y2966214D01*
X17874500Y2958260D01*
X17872232Y2950642D01*
X17872656Y2940379D01*
X17872656Y2940375D01*
X17874394Y2898361D01*
X17874500Y2893238D01*
X17874500Y2374000D01*
X17857887Y2312000D01*
X17812500Y2266613D01*
X17750500Y2250000D01*
X17349500Y2250000D01*
X17287500Y2266613D01*
X17242113Y2312000D01*
X17225500Y2374000D01*
X17225500Y2965414D01*
X17225500Y2972914D01*
X17190601Y3114504D01*
X17180538Y3133678D01*
X17126319Y3236983D01*
X17126317Y3236986D01*
X17122831Y3243628D01*
X17026130Y3352782D01*
X16906116Y3435621D01*
X16899101Y3438282D01*
X16899098Y3438283D01*
X16776780Y3484672D01*
X16776774Y3484674D01*
X16769764Y3487332D01*
X16762319Y3488237D01*
X16762315Y3488237D01*
X16632445Y3504006D01*
X16625000Y3504910D01*
X16617555Y3504006D01*
X16487684Y3488237D01*
X16487679Y3488236D01*
X16480236Y3487332D01*
X16473227Y3484675D01*
X16473219Y3484672D01*
X16350901Y3438283D01*
X16350895Y3438281D01*
X16343884Y3435621D01*
X16337710Y3431361D01*
X16337707Y3431358D01*
X16237252Y3362019D01*
X16223870Y3352782D01*
X16218903Y3347177D01*
X16218899Y3347172D01*
X16132144Y3249245D01*
X16132139Y3249239D01*
X16127169Y3243628D01*
X16123685Y3236992D01*
X16123680Y3236983D01*
X16062884Y3121146D01*
X16062881Y3121140D01*
X16059399Y3114504D01*
X16057605Y3107229D01*
X16057604Y3107224D01*
X16026294Y2980196D01*
X16026293Y2980190D01*
X16024500Y2972914D01*
X16024500Y2965414D01*
X16024500Y2374000D01*
X16007887Y2312000D01*
X15962500Y2266613D01*
X15900500Y2250000D01*
X5599500Y2250000D01*
X5537500Y2266613D01*
X5492113Y2312000D01*
X5475500Y2374000D01*
X5475500Y2965414D01*
X5475500Y2972914D01*
X5440601Y3114504D01*
X5430538Y3133678D01*
X5376319Y3236983D01*
X5376317Y3236986D01*
X5372831Y3243628D01*
X5356530Y3262028D01*
X5328109Y3318229D01*
X5330962Y3381145D01*
X5364354Y3434544D01*
X5419672Y3464651D01*
X5482645Y3463700D01*
X5537028Y3431935D01*
X5597850Y3371113D01*
X5613974Y3351259D01*
X5619916Y3342164D01*
X5628018Y3335858D01*
X5628021Y3335855D01*
X5644894Y3322723D01*
X5648808Y3319266D01*
X5648942Y3319423D01*
X5652848Y3316115D01*
X5656482Y3312481D01*
X5672202Y3301258D01*
X5673389Y3300410D01*
X5677500Y3297345D01*
X5718811Y3265191D01*
X5726331Y3262610D01*
X5732801Y3257990D01*
X5782999Y3243046D01*
X5787791Y3241510D01*
X5837340Y3224500D01*
X5845294Y3224500D01*
X5852912Y3222232D01*
X5905192Y3224394D01*
X5910316Y3224500D01*
X7372125Y3224500D01*
X7439164Y3204816D01*
X7539947Y3140047D01*
X7678039Y3099500D01*
X7813090Y3099500D01*
X7821961Y3099500D01*
X7960053Y3140047D01*
X8081128Y3217857D01*
X8175377Y3326627D01*
X8235165Y3457543D01*
X8255647Y3600000D01*
X8235165Y3742457D01*
X8175377Y3873373D01*
X8133803Y3921352D01*
X8086934Y3975443D01*
X8086932Y3975445D01*
X8081128Y3982143D01*
X7960053Y4059953D01*
X7897902Y4078202D01*
X7830473Y4098001D01*
X7830470Y4098002D01*
X7821961Y4100500D01*
X7678039Y4100500D01*
X7669530Y4098002D01*
X7669526Y4098001D01*
X7548621Y4062500D01*
X7539947Y4059953D01*
X7532484Y4055158D01*
X7532484Y4055157D01*
X7439164Y3995184D01*
X7372125Y3975500D01*
X6106900Y3975500D01*
X6059447Y3984939D01*
X6019218Y4011819D01*
X5973886Y4057151D01*
X5902147Y4128891D01*
X5886019Y4148752D01*
X5885703Y4149236D01*
X5885701Y4149238D01*
X5880084Y4157836D01*
X5859792Y4173630D01*
X5820736Y4225650D01*
X5813389Y4290284D01*
X5839771Y4349743D01*
X5892620Y4387664D01*
X5942330Y4406204D01*
X6057546Y4492454D01*
X6143796Y4607670D01*
X6194091Y4742518D01*
X6200500Y4802128D01*
X6200500Y6597872D01*
X6194091Y6657482D01*
X6143796Y6792330D01*
X6057546Y6907546D01*
X5942330Y6993796D01*
X5841192Y7031518D01*
X5814751Y7041380D01*
X5814749Y7041381D01*
X5807482Y7044091D01*
X5799769Y7044921D01*
X5799766Y7044921D01*
X5751179Y7050145D01*
X5751168Y7050146D01*
X5747872Y7050500D01*
X4727128Y7050500D01*
X4723832Y7050146D01*
X4723820Y7050145D01*
X4675233Y7044921D01*
X4675228Y7044921D01*
X4667518Y7044091D01*
X4660251Y7041381D01*
X4660248Y7041380D01*
X4540981Y6996896D01*
X4540979Y6996896D01*
X4532670Y6993796D01*
X4525572Y6988484D01*
X4525569Y6988481D01*
X4424550Y6912859D01*
X4424546Y6912856D01*
X4417454Y6907546D01*
X4412144Y6900454D01*
X4412141Y6900450D01*
X4336519Y6799431D01*
X4336516Y6799428D01*
X4331204Y6792330D01*
X4328104Y6784021D01*
X4328104Y6784019D01*
X4317716Y6756167D01*
X4291277Y6713930D01*
X4250347Y6685512D01*
X4201534Y6675500D01*
X4184326Y6675500D01*
X4136873Y6684939D01*
X4096645Y6711819D01*
X4046145Y6762319D01*
X4014051Y6817906D01*
X4014051Y6882094D01*
X4046145Y6937681D01*
X4046145Y6937682D01*
X4112146Y7003682D01*
X4170461Y7118132D01*
X4185500Y7213084D01*
X4185500Y7586916D01*
X4170461Y7681868D01*
X4112146Y7796318D01*
X4046145Y7862319D01*
X4014051Y7917906D01*
X4014051Y7982094D01*
X4046145Y8037681D01*
X4070944Y8062480D01*
X4112146Y8103682D01*
X4170461Y8218132D01*
X4185500Y8313084D01*
X4185500Y8601472D01*
X6625000Y8601472D01*
X6626189Y8589396D01*
X6637122Y8534434D01*
X6646289Y8512301D01*
X6687975Y8449914D01*
X6704913Y8432976D01*
X6767300Y8391290D01*
X6789433Y8382123D01*
X6844395Y8371190D01*
X6856472Y8370000D01*
X7358674Y8370000D01*
X7371549Y8373451D01*
X7375000Y8386326D01*
X7625000Y8386326D01*
X7628450Y8373451D01*
X7641326Y8370000D01*
X8143528Y8370000D01*
X8155604Y8371190D01*
X8210566Y8382123D01*
X8232699Y8391290D01*
X8295086Y8432976D01*
X8312024Y8449914D01*
X8353710Y8512301D01*
X8362877Y8534434D01*
X8373810Y8589396D01*
X8375000Y8601472D01*
X8375000Y9978674D01*
X8371549Y9991550D01*
X8358674Y9995000D01*
X7641326Y9995000D01*
X7628450Y9991550D01*
X7625000Y9978674D01*
X7625000Y8386326D01*
X7375000Y8386326D01*
X7375000Y9978674D01*
X7371549Y9991550D01*
X7358674Y9995000D01*
X6641326Y9995000D01*
X6628450Y9991550D01*
X6625000Y9978674D01*
X6625000Y8601472D01*
X4185500Y8601472D01*
X4185500Y8686916D01*
X4170461Y8781868D01*
X4112146Y8896318D01*
X4021318Y8987146D01*
X3906868Y9045461D01*
X3897231Y9046988D01*
X3897226Y9046989D01*
X3816736Y9059737D01*
X3816730Y9059738D01*
X3811916Y9060500D01*
X3323084Y9060500D01*
X3318270Y9059738D01*
X3318263Y9059737D01*
X3237773Y9046989D01*
X3237766Y9046988D01*
X3228132Y9045461D01*
X3219436Y9041031D01*
X3219435Y9041030D01*
X3122377Y8991577D01*
X3122373Y8991575D01*
X3113682Y8987146D01*
X3106783Y8980248D01*
X3106780Y8980245D01*
X3087327Y8960791D01*
X3031740Y8928697D01*
X2967552Y8928697D01*
X2911965Y8960791D01*
X2892921Y8979835D01*
X2877324Y8991167D01*
X2780408Y9040548D01*
X2762070Y9046507D01*
X2681692Y9059237D01*
X2671994Y9060000D01*
X2573826Y9060000D01*
X2560950Y9056550D01*
X2557500Y9043674D01*
X2557500Y6299000D01*
X2540887Y6237000D01*
X2495500Y6191613D01*
X2433500Y6175000D01*
X1831326Y6175000D01*
X1818450Y6171550D01*
X1815000Y6158674D01*
X1815000Y6118006D01*
X1815763Y6108308D01*
X1828493Y6027930D01*
X1834452Y6009592D01*
X1883833Y5912676D01*
X1895165Y5897079D01*
X1955527Y5836717D01*
X1986180Y5786091D01*
X1989877Y5727024D01*
X1965775Y5672971D01*
X1919366Y5636246D01*
X1861446Y5625256D01*
X1859174Y5625500D01*
X1190826Y5625500D01*
X1187546Y5625148D01*
X1187539Y5625147D01*
X1140409Y5620080D01*
X1140406Y5620080D01*
X1132701Y5619251D01*
X1125442Y5616544D01*
X1125435Y5616542D01*
X1014059Y5575000D01*
X1001222Y5570212D01*
X994124Y5564900D01*
X994121Y5564897D01*
X895980Y5491429D01*
X895976Y5491426D01*
X888884Y5486116D01*
X883574Y5479024D01*
X883571Y5479020D01*
X810103Y5380879D01*
X810100Y5380876D01*
X804788Y5373778D01*
X801689Y5365469D01*
X801688Y5365467D01*
X758458Y5249565D01*
X758456Y5249558D01*
X755749Y5242299D01*
X749500Y5184174D01*
X749500Y4615826D01*
X749852Y4612546D01*
X749853Y4612540D01*
X754920Y4565410D01*
X755749Y4557701D01*
X758456Y4550442D01*
X758458Y4550436D01*
X787732Y4471950D01*
X804788Y4426222D01*
X810102Y4419123D01*
X810103Y4419122D01*
X883176Y4321508D01*
X888884Y4313884D01*
X1001222Y4229788D01*
X1109600Y4189366D01*
X1147643Y4166745D01*
X1175318Y4132204D01*
X1188186Y4108424D01*
X1189827Y4105393D01*
X1192171Y4100839D01*
X1210660Y4063021D01*
X1210661Y4063019D01*
X1215174Y4053789D01*
X1220797Y4048166D01*
X1224581Y4041174D01*
X1232138Y4034218D01*
X1232139Y4034216D01*
X1263082Y4005731D01*
X1266780Y4002183D01*
X1597850Y3671113D01*
X1613974Y3651259D01*
X1619916Y3642164D01*
X1628018Y3635858D01*
X1628021Y3635855D01*
X1644894Y3622723D01*
X1648808Y3619266D01*
X1648942Y3619423D01*
X1652848Y3616115D01*
X1656482Y3612481D01*
X1661670Y3608777D01*
X1673389Y3600410D01*
X1677500Y3597345D01*
X1718811Y3565191D01*
X1726331Y3562610D01*
X1732801Y3557990D01*
X1782999Y3543046D01*
X1787791Y3541510D01*
X1837340Y3524500D01*
X1845294Y3524500D01*
X1852912Y3522232D01*
X1905192Y3524394D01*
X1910316Y3524500D01*
X2700500Y3524500D01*
X2762500Y3507887D01*
X2807887Y3462500D01*
X2824500Y3400500D01*
X2824500Y3377185D01*
X2816682Y3333852D01*
X2794214Y3295984D01*
X2780430Y3280077D01*
X2780424Y3280069D01*
X2774623Y3273373D01*
X2770943Y3265316D01*
X2770939Y3265309D01*
X2718520Y3150527D01*
X2714835Y3142457D01*
X2713573Y3133684D01*
X2713572Y3133678D01*
X2700603Y3043470D01*
X2694353Y3000000D01*
X2695615Y2991223D01*
X2713572Y2866323D01*
X2713573Y2866319D01*
X2714835Y2857543D01*
X2774623Y2726627D01*
X2780430Y2719925D01*
X2780431Y2719924D01*
X2863065Y2624558D01*
X2863067Y2624556D01*
X2868872Y2617857D01*
X2989947Y2540047D01*
X3128039Y2499500D01*
X3263090Y2499500D01*
X3271961Y2499500D01*
X3410053Y2540047D01*
X3531128Y2617857D01*
X3625377Y2726627D01*
X3685165Y2857543D01*
X3705647Y3000000D01*
X3685165Y3142457D01*
X3638961Y3243628D01*
X3629060Y3265309D01*
X3629059Y3265311D01*
X3625377Y3273373D01*
X3619571Y3280073D01*
X3619569Y3280077D01*
X3605786Y3295984D01*
X3583318Y3333852D01*
X3575500Y3377185D01*
X3575500Y3400500D01*
X3592113Y3462500D01*
X3637500Y3507887D01*
X3699500Y3524500D01*
X4350482Y3524500D01*
X4405438Y3511657D01*
X4449009Y3475788D01*
X4472172Y3424324D01*
X4470127Y3367925D01*
X4443298Y3318273D01*
X4382144Y3249245D01*
X4382139Y3249239D01*
X4377169Y3243628D01*
X4373685Y3236992D01*
X4373680Y3236983D01*
X4312884Y3121146D01*
X4312881Y3121140D01*
X4309399Y3114504D01*
X4307605Y3107229D01*
X4307604Y3107224D01*
X4276294Y2980196D01*
X4276293Y2980190D01*
X4274500Y2972914D01*
X4274500Y2965414D01*
X4274500Y2374000D01*
X4257887Y2312000D01*
X4212500Y2266613D01*
X4150500Y2250000D01*
X1199500Y2250000D01*
X1137500Y2266613D01*
X1092113Y2312000D01*
X1075500Y2374000D01*
X1075500Y3549431D01*
X1075500Y3556393D01*
X1050403Y3666351D01*
X1001467Y3767967D01*
X931146Y3856146D01*
X891061Y3888113D01*
X848412Y3922125D01*
X848410Y3922127D01*
X842967Y3926467D01*
X836692Y3929489D01*
X747627Y3972381D01*
X747624Y3972383D01*
X741351Y3975403D01*
X734562Y3976953D01*
X734558Y3976954D01*
X638180Y3998951D01*
X638179Y3998952D01*
X631393Y4000500D01*
X624431Y4000500D01*
X324000Y4000500D01*
X262000Y4017113D01*
X216613Y4062500D01*
X200000Y4124500D01*
X200000Y6441326D01*
X1815000Y6441326D01*
X1818450Y6428451D01*
X1831326Y6425000D01*
X2291174Y6425000D01*
X2304049Y6428451D01*
X2307500Y6441326D01*
X2307500Y7258674D01*
X2304049Y7271550D01*
X2291174Y7275000D01*
X1831326Y7275000D01*
X1818450Y7271550D01*
X1815000Y7258674D01*
X1815000Y7218006D01*
X1815763Y7208308D01*
X1828493Y7127930D01*
X1834452Y7109592D01*
X1883833Y7012676D01*
X1895165Y6997079D01*
X1954563Y6937681D01*
X1986657Y6882094D01*
X1986657Y6817906D01*
X1954563Y6762319D01*
X1895165Y6702922D01*
X1883833Y6687325D01*
X1834452Y6590409D01*
X1828493Y6572071D01*
X1815763Y6491693D01*
X1815000Y6481994D01*
X1815000Y6441326D01*
X200000Y6441326D01*
X200000Y7541326D01*
X1815000Y7541326D01*
X1818450Y7528451D01*
X1831326Y7525000D01*
X2291174Y7525000D01*
X2304049Y7528451D01*
X2307500Y7541326D01*
X2307500Y8358674D01*
X2304049Y8371550D01*
X2291174Y8375000D01*
X1831326Y8375000D01*
X1818450Y8371550D01*
X1815000Y8358674D01*
X1815000Y8318006D01*
X1815763Y8308308D01*
X1828493Y8227930D01*
X1834452Y8209592D01*
X1883833Y8112676D01*
X1895165Y8097079D01*
X1954563Y8037681D01*
X1986657Y7982094D01*
X1986657Y7917906D01*
X1954563Y7862319D01*
X1895165Y7802922D01*
X1883833Y7787325D01*
X1834452Y7690409D01*
X1828493Y7672071D01*
X1815763Y7591693D01*
X1815000Y7581994D01*
X1815000Y7541326D01*
X200000Y7541326D01*
X200000Y8641326D01*
X1815000Y8641326D01*
X1818450Y8628451D01*
X1831326Y8625000D01*
X2291174Y8625000D01*
X2304049Y8628451D01*
X2307500Y8641326D01*
X2307500Y9043674D01*
X2304049Y9056550D01*
X2291174Y9060000D01*
X2193006Y9060000D01*
X2183307Y9059237D01*
X2102929Y9046507D01*
X2084591Y9040548D01*
X1987675Y8991167D01*
X1972078Y8979835D01*
X1895165Y8902922D01*
X1883833Y8887325D01*
X1834452Y8790409D01*
X1828493Y8772071D01*
X1815763Y8691693D01*
X1815000Y8681994D01*
X1815000Y8641326D01*
X200000Y8641326D01*
X200000Y10261326D01*
X6625000Y10261326D01*
X6628450Y10248451D01*
X6641326Y10245000D01*
X7358674Y10245000D01*
X7371549Y10248451D01*
X7375000Y10261326D01*
X7625000Y10261326D01*
X7628450Y10248451D01*
X7641326Y10245000D01*
X8358674Y10245000D01*
X8371549Y10248451D01*
X8375000Y10261326D01*
X8375000Y11638528D01*
X8373810Y11650605D01*
X8362877Y11705567D01*
X8353710Y11727700D01*
X8312024Y11790087D01*
X8295086Y11807025D01*
X8232699Y11848711D01*
X8210566Y11857878D01*
X8155604Y11868811D01*
X8143528Y11870000D01*
X7641326Y11870000D01*
X7628450Y11866550D01*
X7625000Y11853674D01*
X7625000Y10261326D01*
X7375000Y10261326D01*
X7375000Y11853674D01*
X7371549Y11866550D01*
X7358674Y11870000D01*
X6856472Y11870000D01*
X6844395Y11868811D01*
X6789433Y11857878D01*
X6767300Y11848711D01*
X6704913Y11807025D01*
X6687975Y11790087D01*
X6646289Y11727700D01*
X6637122Y11705567D01*
X6626189Y11650605D01*
X6625000Y11638528D01*
X6625000Y10261326D01*
X200000Y10261326D01*
X200000Y13800000D01*
X2674592Y13800000D01*
X2694198Y13538370D01*
X2752580Y13282584D01*
X2754275Y13278266D01*
X2754276Y13278262D01*
X2846734Y13042682D01*
X2846737Y13042676D01*
X2848432Y13038357D01*
X2850750Y13034342D01*
X2850753Y13034336D01*
X2866053Y13007836D01*
X2979614Y12811143D01*
X3143195Y12606019D01*
X3335521Y12427567D01*
X3552296Y12279772D01*
X3788677Y12165937D01*
X3793105Y12164572D01*
X3793108Y12164570D01*
X3896537Y12132667D01*
X4039385Y12088604D01*
X4298818Y12049500D01*
X4556547Y12049500D01*
X4561182Y12049500D01*
X4820615Y12088604D01*
X5071323Y12165937D01*
X5307704Y12279772D01*
X5524479Y12427567D01*
X5716805Y12606019D01*
X5880386Y12811143D01*
X6011568Y13038357D01*
X6107420Y13282584D01*
X6165802Y13538370D01*
X6185408Y13800000D01*
X6165802Y14061630D01*
X6107420Y14317416D01*
X6011568Y14561643D01*
X5880386Y14788857D01*
X5716805Y14993981D01*
X5524479Y15172433D01*
X5307704Y15320228D01*
X5303518Y15322244D01*
X5075502Y15432051D01*
X5075496Y15432054D01*
X5071323Y15434063D01*
X5066901Y15435427D01*
X5066891Y15435431D01*
X4825048Y15510029D01*
X4825043Y15510031D01*
X4820615Y15511396D01*
X4816035Y15512087D01*
X4816028Y15512088D01*
X4565765Y15549810D01*
X4565754Y15549811D01*
X4561182Y15550500D01*
X4298818Y15550500D01*
X4294246Y15549811D01*
X4294234Y15549810D01*
X4043971Y15512088D01*
X4043961Y15512086D01*
X4039385Y15511396D01*
X4034959Y15510032D01*
X4034951Y15510029D01*
X3793108Y15435431D01*
X3793093Y15435426D01*
X3788677Y15434063D01*
X3784508Y15432056D01*
X3784497Y15432051D01*
X3556481Y15322244D01*
X3556474Y15322241D01*
X3552296Y15320228D01*
X3548463Y15317615D01*
X3548460Y15317613D01*
X3339349Y15175043D01*
X3335521Y15172433D01*
X3332129Y15169287D01*
X3332123Y15169281D01*
X3146596Y14997137D01*
X3143195Y14993981D01*
X3140306Y14990359D01*
X3140302Y14990354D01*
X2982506Y14792484D01*
X2979614Y14788857D01*
X2977295Y14784841D01*
X2977294Y14784839D01*
X2850753Y14565665D01*
X2850747Y14565654D01*
X2848432Y14561643D01*
X2846739Y14557330D01*
X2846734Y14557319D01*
X2754276Y14321739D01*
X2754273Y14321732D01*
X2752580Y14317416D01*
X2751548Y14312898D01*
X2751547Y14312892D01*
X2695229Y14066150D01*
X2695227Y14066142D01*
X2694198Y14061630D01*
X2674592Y13800000D01*
X200000Y13800000D01*
X200000Y17112468D01*
X2499500Y17112468D01*
X2500439Y17107138D01*
X2500440Y17107136D01*
X2528957Y16945401D01*
X2528958Y16945395D01*
X2529899Y16940062D01*
X2589775Y16775555D01*
X2677308Y16623945D01*
X2789837Y16489837D01*
X2923945Y16377308D01*
X3075555Y16289775D01*
X3240062Y16229899D01*
X3412468Y16199500D01*
X3499901Y16199500D01*
X3500000Y16199500D01*
X3500500Y16199500D01*
X18499500Y16199500D01*
X18500099Y16199500D01*
X18582118Y16199500D01*
X18587532Y16199500D01*
X18759938Y16229899D01*
X18924445Y16289775D01*
X19076055Y16377308D01*
X19210163Y16489837D01*
X19322692Y16623945D01*
X19410225Y16775555D01*
X19470101Y16940062D01*
X19500500Y17112468D01*
X19500500Y17200000D01*
X19500500Y17200500D01*
X19500500Y36000099D01*
X19500500Y36087532D01*
X19470101Y36259938D01*
X19410225Y36424445D01*
X19322692Y36576055D01*
X19210163Y36710163D01*
X19076055Y36822692D01*
X18924445Y36910225D01*
X18919361Y36912076D01*
X18919360Y36912076D01*
X18765029Y36968248D01*
X18759938Y36970101D01*
X18754605Y36971042D01*
X18754599Y36971043D01*
X18592864Y36999560D01*
X18592862Y36999561D01*
X18587532Y37000500D01*
X18500099Y37000500D01*
X3500500Y37000500D01*
X3500000Y37000500D01*
X3412468Y37000500D01*
X3407138Y36999561D01*
X3407135Y36999560D01*
X3245400Y36971043D01*
X3245391Y36971041D01*
X3240062Y36970101D01*
X3234973Y36968249D01*
X3234970Y36968248D01*
X3080639Y36912076D01*
X3080633Y36912074D01*
X3075555Y36910225D01*
X3070872Y36907522D01*
X3070867Y36907519D01*
X2928633Y36825399D01*
X2928630Y36825397D01*
X2923945Y36822692D01*
X2919803Y36819217D01*
X2919798Y36819213D01*
X2793982Y36713642D01*
X2793976Y36713637D01*
X2789837Y36710163D01*
X2786363Y36706024D01*
X2786358Y36706018D01*
X2680787Y36580202D01*
X2680783Y36580197D01*
X2677308Y36576055D01*
X2674603Y36571370D01*
X2674601Y36571367D01*
X2592481Y36429133D01*
X2592478Y36429128D01*
X2589775Y36424445D01*
X2587926Y36419367D01*
X2587924Y36419361D01*
X2559712Y36341849D01*
X2529899Y36259938D01*
X2528959Y36254609D01*
X2528957Y36254600D01*
X2500440Y36092865D01*
X2499500Y36087532D01*
X2499500Y36000099D01*
X2499500Y17200500D01*
X2499500Y17200000D01*
X2499500Y17112468D01*
X200000Y17112468D01*
X200000Y41676000D01*
X216613Y41738000D01*
X262000Y41783387D01*
X324000Y41800000D01*
X21676000Y41800000D01*
X21738000Y41783387D01*
G37*
%TD.AperFunction*%
%TA.AperFunction,Conductor*%
G36*
X16886320Y7990796D02*
G01*
X16933786Y7974500D01*
X16941740Y7974500D01*
X16949358Y7972232D01*
X17001638Y7974394D01*
X17006762Y7974500D01*
X19648508Y7974500D01*
X19695961Y7965061D01*
X19736189Y7938181D01*
X20038181Y7636189D01*
X20065061Y7595961D01*
X20074500Y7548508D01*
X20074500Y7459528D01*
X20060985Y7403234D01*
X20023387Y7359211D01*
X19969901Y7337055D01*
X19912185Y7341596D01*
X19897073Y7346506D01*
X19816692Y7359237D01*
X19806994Y7360000D01*
X19708826Y7360000D01*
X19695950Y7356550D01*
X19692500Y7343674D01*
X19692500Y5699000D01*
X19675887Y5637000D01*
X19630500Y5591613D01*
X19568500Y5575000D01*
X19566500Y5575000D01*
X19504500Y5591613D01*
X19459113Y5637000D01*
X19442500Y5699000D01*
X19442500Y7343674D01*
X19439049Y7356550D01*
X19426174Y7360000D01*
X19328006Y7360000D01*
X19318307Y7359237D01*
X19237929Y7346507D01*
X19219591Y7340548D01*
X19122675Y7291167D01*
X19107078Y7279835D01*
X19088035Y7260791D01*
X19032448Y7228697D01*
X18968260Y7228697D01*
X18912673Y7260791D01*
X18893219Y7280245D01*
X18893218Y7280246D01*
X18886318Y7287146D01*
X18771868Y7345461D01*
X18762231Y7346988D01*
X18762226Y7346989D01*
X18681736Y7359737D01*
X18681730Y7359738D01*
X18676916Y7360500D01*
X18188084Y7360500D01*
X18183270Y7359738D01*
X18183263Y7359737D01*
X18102773Y7346989D01*
X18102766Y7346988D01*
X18093132Y7345461D01*
X18084436Y7341031D01*
X18084435Y7341030D01*
X17987377Y7291577D01*
X17987373Y7291575D01*
X17978682Y7287146D01*
X17971783Y7280248D01*
X17971780Y7280245D01*
X17903355Y7211819D01*
X17863127Y7184939D01*
X17815674Y7175500D01*
X17784326Y7175500D01*
X17736873Y7184939D01*
X17696645Y7211819D01*
X17628219Y7280245D01*
X17628218Y7280246D01*
X17621318Y7287146D01*
X17506868Y7345461D01*
X17497231Y7346988D01*
X17497226Y7346989D01*
X17416736Y7359737D01*
X17416730Y7359738D01*
X17411916Y7360500D01*
X17407038Y7360500D01*
X17235072Y7360500D01*
X17187619Y7369939D01*
X17147391Y7396819D01*
X16758377Y7785833D01*
X16725852Y7843074D01*
X16727213Y7908896D01*
X16762075Y7964744D01*
X16820612Y7994875D01*
X16886320Y7990796D01*
G37*
%TD.AperFunction*%
%TD*%
M02*
