%TF.GenerationSoftware,KiCad,Pcbnew,7.0.0-da2b9df05c~171~ubuntu20.04.1*%
%TF.CreationDate,2023-03-04T21:27:30-05:00*%
%TF.ProjectId,USB 2242,4c6f6769-7465-4636-9820-556e69667969,B*%
%TF.SameCoordinates,Original*%
%TF.FileFunction,Other,Comment*%
%FSLAX46Y46*%
G04 Gerber Fmt 4.6, Leading zero omitted, Abs format (unit mm)*
G04 Created by KiCad (PCBNEW 7.0.0-da2b9df05c~171~ubuntu20.04.1) date 2023-03-04 21:27:30*
%MOMM*%
%LPD*%
G01*
G04 APERTURE LIST*
%ADD10C,0.150000*%
G04 APERTURE END LIST*
D10*
X23438095Y21037620D02*
X23438095Y20228096D01*
X23438095Y20228096D02*
X23485714Y20132858D01*
X23485714Y20132858D02*
X23533333Y20085239D01*
X23533333Y20085239D02*
X23628571Y20037620D01*
X23628571Y20037620D02*
X23819047Y20037620D01*
X23819047Y20037620D02*
X23914285Y20085239D01*
X23914285Y20085239D02*
X23961904Y20132858D01*
X23961904Y20132858D02*
X24009523Y20228096D01*
X24009523Y20228096D02*
X24009523Y21037620D01*
X24438095Y20085239D02*
X24580952Y20037620D01*
X24580952Y20037620D02*
X24819047Y20037620D01*
X24819047Y20037620D02*
X24914285Y20085239D01*
X24914285Y20085239D02*
X24961904Y20132858D01*
X24961904Y20132858D02*
X25009523Y20228096D01*
X25009523Y20228096D02*
X25009523Y20323334D01*
X25009523Y20323334D02*
X24961904Y20418572D01*
X24961904Y20418572D02*
X24914285Y20466191D01*
X24914285Y20466191D02*
X24819047Y20513810D01*
X24819047Y20513810D02*
X24628571Y20561429D01*
X24628571Y20561429D02*
X24533333Y20609048D01*
X24533333Y20609048D02*
X24485714Y20656667D01*
X24485714Y20656667D02*
X24438095Y20751905D01*
X24438095Y20751905D02*
X24438095Y20847143D01*
X24438095Y20847143D02*
X24485714Y20942381D01*
X24485714Y20942381D02*
X24533333Y20990000D01*
X24533333Y20990000D02*
X24628571Y21037620D01*
X24628571Y21037620D02*
X24866666Y21037620D01*
X24866666Y21037620D02*
X25009523Y20990000D01*
X25771428Y20561429D02*
X25914285Y20513810D01*
X25914285Y20513810D02*
X25961904Y20466191D01*
X25961904Y20466191D02*
X26009523Y20370953D01*
X26009523Y20370953D02*
X26009523Y20228096D01*
X26009523Y20228096D02*
X25961904Y20132858D01*
X25961904Y20132858D02*
X25914285Y20085239D01*
X25914285Y20085239D02*
X25819047Y20037620D01*
X25819047Y20037620D02*
X25438095Y20037620D01*
X25438095Y20037620D02*
X25438095Y21037620D01*
X25438095Y21037620D02*
X25771428Y21037620D01*
X25771428Y21037620D02*
X25866666Y20990000D01*
X25866666Y20990000D02*
X25914285Y20942381D01*
X25914285Y20942381D02*
X25961904Y20847143D01*
X25961904Y20847143D02*
X25961904Y20751905D01*
X25961904Y20751905D02*
X25914285Y20656667D01*
X25914285Y20656667D02*
X25866666Y20609048D01*
X25866666Y20609048D02*
X25771428Y20561429D01*
X25771428Y20561429D02*
X25438095Y20561429D01*
X27038095Y20704286D02*
X27038095Y19704286D01*
X27038095Y20656667D02*
X27133333Y20704286D01*
X27133333Y20704286D02*
X27323809Y20704286D01*
X27323809Y20704286D02*
X27419047Y20656667D01*
X27419047Y20656667D02*
X27466666Y20609048D01*
X27466666Y20609048D02*
X27514285Y20513810D01*
X27514285Y20513810D02*
X27514285Y20228096D01*
X27514285Y20228096D02*
X27466666Y20132858D01*
X27466666Y20132858D02*
X27419047Y20085239D01*
X27419047Y20085239D02*
X27323809Y20037620D01*
X27323809Y20037620D02*
X27133333Y20037620D01*
X27133333Y20037620D02*
X27038095Y20085239D01*
X28085714Y20037620D02*
X27990476Y20085239D01*
X27990476Y20085239D02*
X27942857Y20132858D01*
X27942857Y20132858D02*
X27895238Y20228096D01*
X27895238Y20228096D02*
X27895238Y20513810D01*
X27895238Y20513810D02*
X27942857Y20609048D01*
X27942857Y20609048D02*
X27990476Y20656667D01*
X27990476Y20656667D02*
X28085714Y20704286D01*
X28085714Y20704286D02*
X28228571Y20704286D01*
X28228571Y20704286D02*
X28323809Y20656667D01*
X28323809Y20656667D02*
X28371428Y20609048D01*
X28371428Y20609048D02*
X28419047Y20513810D01*
X28419047Y20513810D02*
X28419047Y20228096D01*
X28419047Y20228096D02*
X28371428Y20132858D01*
X28371428Y20132858D02*
X28323809Y20085239D01*
X28323809Y20085239D02*
X28228571Y20037620D01*
X28228571Y20037620D02*
X28085714Y20037620D01*
X28847619Y20037620D02*
X28847619Y20704286D01*
X28847619Y20513810D02*
X28895238Y20609048D01*
X28895238Y20609048D02*
X28942857Y20656667D01*
X28942857Y20656667D02*
X29038095Y20704286D01*
X29038095Y20704286D02*
X29133333Y20704286D01*
X29323810Y20704286D02*
X29704762Y20704286D01*
X29466667Y21037620D02*
X29466667Y20180477D01*
X29466667Y20180477D02*
X29514286Y20085239D01*
X29514286Y20085239D02*
X29609524Y20037620D01*
X29609524Y20037620D02*
X29704762Y20037620D01*
X30780953Y20037620D02*
X30685715Y20085239D01*
X30685715Y20085239D02*
X30638096Y20132858D01*
X30638096Y20132858D02*
X30590477Y20228096D01*
X30590477Y20228096D02*
X30590477Y20513810D01*
X30590477Y20513810D02*
X30638096Y20609048D01*
X30638096Y20609048D02*
X30685715Y20656667D01*
X30685715Y20656667D02*
X30780953Y20704286D01*
X30780953Y20704286D02*
X30923810Y20704286D01*
X30923810Y20704286D02*
X31019048Y20656667D01*
X31019048Y20656667D02*
X31066667Y20609048D01*
X31066667Y20609048D02*
X31114286Y20513810D01*
X31114286Y20513810D02*
X31114286Y20228096D01*
X31114286Y20228096D02*
X31066667Y20132858D01*
X31066667Y20132858D02*
X31019048Y20085239D01*
X31019048Y20085239D02*
X30923810Y20037620D01*
X30923810Y20037620D02*
X30780953Y20037620D01*
X31542858Y20704286D02*
X31542858Y19704286D01*
X31542858Y20656667D02*
X31638096Y20704286D01*
X31638096Y20704286D02*
X31828572Y20704286D01*
X31828572Y20704286D02*
X31923810Y20656667D01*
X31923810Y20656667D02*
X31971429Y20609048D01*
X31971429Y20609048D02*
X32019048Y20513810D01*
X32019048Y20513810D02*
X32019048Y20228096D01*
X32019048Y20228096D02*
X31971429Y20132858D01*
X31971429Y20132858D02*
X31923810Y20085239D01*
X31923810Y20085239D02*
X31828572Y20037620D01*
X31828572Y20037620D02*
X31638096Y20037620D01*
X31638096Y20037620D02*
X31542858Y20085239D01*
X32304763Y20704286D02*
X32685715Y20704286D01*
X32447620Y21037620D02*
X32447620Y20180477D01*
X32447620Y20180477D02*
X32495239Y20085239D01*
X32495239Y20085239D02*
X32590477Y20037620D01*
X32590477Y20037620D02*
X32685715Y20037620D01*
X33019049Y20037620D02*
X33019049Y20704286D01*
X33019049Y21037620D02*
X32971430Y20990000D01*
X32971430Y20990000D02*
X33019049Y20942381D01*
X33019049Y20942381D02*
X33066668Y20990000D01*
X33066668Y20990000D02*
X33019049Y21037620D01*
X33019049Y21037620D02*
X33019049Y20942381D01*
X33638096Y20037620D02*
X33542858Y20085239D01*
X33542858Y20085239D02*
X33495239Y20132858D01*
X33495239Y20132858D02*
X33447620Y20228096D01*
X33447620Y20228096D02*
X33447620Y20513810D01*
X33447620Y20513810D02*
X33495239Y20609048D01*
X33495239Y20609048D02*
X33542858Y20656667D01*
X33542858Y20656667D02*
X33638096Y20704286D01*
X33638096Y20704286D02*
X33780953Y20704286D01*
X33780953Y20704286D02*
X33876191Y20656667D01*
X33876191Y20656667D02*
X33923810Y20609048D01*
X33923810Y20609048D02*
X33971429Y20513810D01*
X33971429Y20513810D02*
X33971429Y20228096D01*
X33971429Y20228096D02*
X33923810Y20132858D01*
X33923810Y20132858D02*
X33876191Y20085239D01*
X33876191Y20085239D02*
X33780953Y20037620D01*
X33780953Y20037620D02*
X33638096Y20037620D01*
X34400001Y20704286D02*
X34400001Y20037620D01*
X34400001Y20609048D02*
X34447620Y20656667D01*
X34447620Y20656667D02*
X34542858Y20704286D01*
X34542858Y20704286D02*
X34685715Y20704286D01*
X34685715Y20704286D02*
X34780953Y20656667D01*
X34780953Y20656667D02*
X34828572Y20561429D01*
X34828572Y20561429D02*
X34828572Y20037620D01*
X35733334Y20037620D02*
X35733334Y20561429D01*
X35733334Y20561429D02*
X35685715Y20656667D01*
X35685715Y20656667D02*
X35590477Y20704286D01*
X35590477Y20704286D02*
X35400001Y20704286D01*
X35400001Y20704286D02*
X35304763Y20656667D01*
X35733334Y20085239D02*
X35638096Y20037620D01*
X35638096Y20037620D02*
X35400001Y20037620D01*
X35400001Y20037620D02*
X35304763Y20085239D01*
X35304763Y20085239D02*
X35257144Y20180477D01*
X35257144Y20180477D02*
X35257144Y20275715D01*
X35257144Y20275715D02*
X35304763Y20370953D01*
X35304763Y20370953D02*
X35400001Y20418572D01*
X35400001Y20418572D02*
X35638096Y20418572D01*
X35638096Y20418572D02*
X35733334Y20466191D01*
X36352382Y20037620D02*
X36257144Y20085239D01*
X36257144Y20085239D02*
X36209525Y20180477D01*
X36209525Y20180477D02*
X36209525Y21037620D01*
X36780954Y20085239D02*
X36780954Y20037620D01*
X36780954Y20037620D02*
X36733335Y19942381D01*
X36733335Y19942381D02*
X36685716Y19894762D01*
X37714287Y20704286D02*
X37904763Y20037620D01*
X37904763Y20037620D02*
X38095239Y20513810D01*
X38095239Y20513810D02*
X38285715Y20037620D01*
X38285715Y20037620D02*
X38476191Y20704286D01*
X38857144Y20037620D02*
X38857144Y20704286D01*
X38857144Y21037620D02*
X38809525Y20990000D01*
X38809525Y20990000D02*
X38857144Y20942381D01*
X38857144Y20942381D02*
X38904763Y20990000D01*
X38904763Y20990000D02*
X38857144Y21037620D01*
X38857144Y21037620D02*
X38857144Y20942381D01*
X39476191Y20037620D02*
X39380953Y20085239D01*
X39380953Y20085239D02*
X39333334Y20180477D01*
X39333334Y20180477D02*
X39333334Y21037620D01*
X40000001Y20037620D02*
X39904763Y20085239D01*
X39904763Y20085239D02*
X39857144Y20180477D01*
X39857144Y20180477D02*
X39857144Y21037620D01*
X23438095Y18417620D02*
X23438095Y19417620D01*
X23866666Y18417620D02*
X23866666Y18941429D01*
X23866666Y18941429D02*
X23819047Y19036667D01*
X23819047Y19036667D02*
X23723809Y19084286D01*
X23723809Y19084286D02*
X23580952Y19084286D01*
X23580952Y19084286D02*
X23485714Y19036667D01*
X23485714Y19036667D02*
X23438095Y18989048D01*
X24771428Y18417620D02*
X24771428Y18941429D01*
X24771428Y18941429D02*
X24723809Y19036667D01*
X24723809Y19036667D02*
X24628571Y19084286D01*
X24628571Y19084286D02*
X24438095Y19084286D01*
X24438095Y19084286D02*
X24342857Y19036667D01*
X24771428Y18465239D02*
X24676190Y18417620D01*
X24676190Y18417620D02*
X24438095Y18417620D01*
X24438095Y18417620D02*
X24342857Y18465239D01*
X24342857Y18465239D02*
X24295238Y18560477D01*
X24295238Y18560477D02*
X24295238Y18655715D01*
X24295238Y18655715D02*
X24342857Y18750953D01*
X24342857Y18750953D02*
X24438095Y18798572D01*
X24438095Y18798572D02*
X24676190Y18798572D01*
X24676190Y18798572D02*
X24771428Y18846191D01*
X25247619Y19084286D02*
X25247619Y18417620D01*
X25247619Y18989048D02*
X25295238Y19036667D01*
X25295238Y19036667D02*
X25390476Y19084286D01*
X25390476Y19084286D02*
X25533333Y19084286D01*
X25533333Y19084286D02*
X25628571Y19036667D01*
X25628571Y19036667D02*
X25676190Y18941429D01*
X25676190Y18941429D02*
X25676190Y18417620D01*
X26580952Y19084286D02*
X26580952Y18274762D01*
X26580952Y18274762D02*
X26533333Y18179524D01*
X26533333Y18179524D02*
X26485714Y18131905D01*
X26485714Y18131905D02*
X26390476Y18084286D01*
X26390476Y18084286D02*
X26247619Y18084286D01*
X26247619Y18084286D02*
X26152381Y18131905D01*
X26580952Y18465239D02*
X26485714Y18417620D01*
X26485714Y18417620D02*
X26295238Y18417620D01*
X26295238Y18417620D02*
X26200000Y18465239D01*
X26200000Y18465239D02*
X26152381Y18512858D01*
X26152381Y18512858D02*
X26104762Y18608096D01*
X26104762Y18608096D02*
X26104762Y18893810D01*
X26104762Y18893810D02*
X26152381Y18989048D01*
X26152381Y18989048D02*
X26200000Y19036667D01*
X26200000Y19036667D02*
X26295238Y19084286D01*
X26295238Y19084286D02*
X26485714Y19084286D01*
X26485714Y19084286D02*
X26580952Y19036667D01*
X27800000Y18417620D02*
X27704762Y18465239D01*
X27704762Y18465239D02*
X27657143Y18512858D01*
X27657143Y18512858D02*
X27609524Y18608096D01*
X27609524Y18608096D02*
X27609524Y18893810D01*
X27609524Y18893810D02*
X27657143Y18989048D01*
X27657143Y18989048D02*
X27704762Y19036667D01*
X27704762Y19036667D02*
X27800000Y19084286D01*
X27800000Y19084286D02*
X27942857Y19084286D01*
X27942857Y19084286D02*
X28038095Y19036667D01*
X28038095Y19036667D02*
X28085714Y18989048D01*
X28085714Y18989048D02*
X28133333Y18893810D01*
X28133333Y18893810D02*
X28133333Y18608096D01*
X28133333Y18608096D02*
X28085714Y18512858D01*
X28085714Y18512858D02*
X28038095Y18465239D01*
X28038095Y18465239D02*
X27942857Y18417620D01*
X27942857Y18417620D02*
X27800000Y18417620D01*
X28419048Y19084286D02*
X28800000Y19084286D01*
X28561905Y18417620D02*
X28561905Y19274762D01*
X28561905Y19274762D02*
X28609524Y19370000D01*
X28609524Y19370000D02*
X28704762Y19417620D01*
X28704762Y19417620D02*
X28800000Y19417620D01*
X28990477Y19084286D02*
X29371429Y19084286D01*
X29133334Y18417620D02*
X29133334Y19274762D01*
X29133334Y19274762D02*
X29180953Y19370000D01*
X29180953Y19370000D02*
X29276191Y19417620D01*
X29276191Y19417620D02*
X29371429Y19417620D01*
X30685715Y18465239D02*
X30590477Y18417620D01*
X30590477Y18417620D02*
X30400001Y18417620D01*
X30400001Y18417620D02*
X30304763Y18465239D01*
X30304763Y18465239D02*
X30257144Y18560477D01*
X30257144Y18560477D02*
X30257144Y18941429D01*
X30257144Y18941429D02*
X30304763Y19036667D01*
X30304763Y19036667D02*
X30400001Y19084286D01*
X30400001Y19084286D02*
X30590477Y19084286D01*
X30590477Y19084286D02*
X30685715Y19036667D01*
X30685715Y19036667D02*
X30733334Y18941429D01*
X30733334Y18941429D02*
X30733334Y18846191D01*
X30733334Y18846191D02*
X30257144Y18750953D01*
X31590477Y18417620D02*
X31590477Y19417620D01*
X31590477Y18465239D02*
X31495239Y18417620D01*
X31495239Y18417620D02*
X31304763Y18417620D01*
X31304763Y18417620D02*
X31209525Y18465239D01*
X31209525Y18465239D02*
X31161906Y18512858D01*
X31161906Y18512858D02*
X31114287Y18608096D01*
X31114287Y18608096D02*
X31114287Y18893810D01*
X31114287Y18893810D02*
X31161906Y18989048D01*
X31161906Y18989048D02*
X31209525Y19036667D01*
X31209525Y19036667D02*
X31304763Y19084286D01*
X31304763Y19084286D02*
X31495239Y19084286D01*
X31495239Y19084286D02*
X31590477Y19036667D01*
X32495239Y19084286D02*
X32495239Y18274762D01*
X32495239Y18274762D02*
X32447620Y18179524D01*
X32447620Y18179524D02*
X32400001Y18131905D01*
X32400001Y18131905D02*
X32304763Y18084286D01*
X32304763Y18084286D02*
X32161906Y18084286D01*
X32161906Y18084286D02*
X32066668Y18131905D01*
X32495239Y18465239D02*
X32400001Y18417620D01*
X32400001Y18417620D02*
X32209525Y18417620D01*
X32209525Y18417620D02*
X32114287Y18465239D01*
X32114287Y18465239D02*
X32066668Y18512858D01*
X32066668Y18512858D02*
X32019049Y18608096D01*
X32019049Y18608096D02*
X32019049Y18893810D01*
X32019049Y18893810D02*
X32066668Y18989048D01*
X32066668Y18989048D02*
X32114287Y19036667D01*
X32114287Y19036667D02*
X32209525Y19084286D01*
X32209525Y19084286D02*
X32400001Y19084286D01*
X32400001Y19084286D02*
X32495239Y19036667D01*
X33352382Y18465239D02*
X33257144Y18417620D01*
X33257144Y18417620D02*
X33066668Y18417620D01*
X33066668Y18417620D02*
X32971430Y18465239D01*
X32971430Y18465239D02*
X32923811Y18560477D01*
X32923811Y18560477D02*
X32923811Y18941429D01*
X32923811Y18941429D02*
X32971430Y19036667D01*
X32971430Y19036667D02*
X33066668Y19084286D01*
X33066668Y19084286D02*
X33257144Y19084286D01*
X33257144Y19084286D02*
X33352382Y19036667D01*
X33352382Y19036667D02*
X33400001Y18941429D01*
X33400001Y18941429D02*
X33400001Y18846191D01*
X33400001Y18846191D02*
X32923811Y18750953D01*
X34428573Y18417620D02*
X34428573Y19084286D01*
X34428573Y19417620D02*
X34380954Y19370000D01*
X34380954Y19370000D02*
X34428573Y19322381D01*
X34428573Y19322381D02*
X34476192Y19370000D01*
X34476192Y19370000D02*
X34428573Y19417620D01*
X34428573Y19417620D02*
X34428573Y19322381D01*
X34761906Y19084286D02*
X35142858Y19084286D01*
X34904763Y18417620D02*
X34904763Y19274762D01*
X34904763Y19274762D02*
X34952382Y19370000D01*
X34952382Y19370000D02*
X35047620Y19417620D01*
X35047620Y19417620D02*
X35142858Y19417620D01*
X36076192Y19084286D02*
X36076192Y18084286D01*
X36076192Y19036667D02*
X36171430Y19084286D01*
X36171430Y19084286D02*
X36361906Y19084286D01*
X36361906Y19084286D02*
X36457144Y19036667D01*
X36457144Y19036667D02*
X36504763Y18989048D01*
X36504763Y18989048D02*
X36552382Y18893810D01*
X36552382Y18893810D02*
X36552382Y18608096D01*
X36552382Y18608096D02*
X36504763Y18512858D01*
X36504763Y18512858D02*
X36457144Y18465239D01*
X36457144Y18465239D02*
X36361906Y18417620D01*
X36361906Y18417620D02*
X36171430Y18417620D01*
X36171430Y18417620D02*
X36076192Y18465239D01*
X37123811Y18417620D02*
X37028573Y18465239D01*
X37028573Y18465239D02*
X36980954Y18560477D01*
X36980954Y18560477D02*
X36980954Y19417620D01*
X37933335Y18417620D02*
X37933335Y18941429D01*
X37933335Y18941429D02*
X37885716Y19036667D01*
X37885716Y19036667D02*
X37790478Y19084286D01*
X37790478Y19084286D02*
X37600002Y19084286D01*
X37600002Y19084286D02*
X37504764Y19036667D01*
X37933335Y18465239D02*
X37838097Y18417620D01*
X37838097Y18417620D02*
X37600002Y18417620D01*
X37600002Y18417620D02*
X37504764Y18465239D01*
X37504764Y18465239D02*
X37457145Y18560477D01*
X37457145Y18560477D02*
X37457145Y18655715D01*
X37457145Y18655715D02*
X37504764Y18750953D01*
X37504764Y18750953D02*
X37600002Y18798572D01*
X37600002Y18798572D02*
X37838097Y18798572D01*
X37838097Y18798572D02*
X37933335Y18846191D01*
X38838097Y18465239D02*
X38742859Y18417620D01*
X38742859Y18417620D02*
X38552383Y18417620D01*
X38552383Y18417620D02*
X38457145Y18465239D01*
X38457145Y18465239D02*
X38409526Y18512858D01*
X38409526Y18512858D02*
X38361907Y18608096D01*
X38361907Y18608096D02*
X38361907Y18893810D01*
X38361907Y18893810D02*
X38409526Y18989048D01*
X38409526Y18989048D02*
X38457145Y19036667D01*
X38457145Y19036667D02*
X38552383Y19084286D01*
X38552383Y19084286D02*
X38742859Y19084286D01*
X38742859Y19084286D02*
X38838097Y19036667D01*
X39647621Y18465239D02*
X39552383Y18417620D01*
X39552383Y18417620D02*
X39361907Y18417620D01*
X39361907Y18417620D02*
X39266669Y18465239D01*
X39266669Y18465239D02*
X39219050Y18560477D01*
X39219050Y18560477D02*
X39219050Y18941429D01*
X39219050Y18941429D02*
X39266669Y19036667D01*
X39266669Y19036667D02*
X39361907Y19084286D01*
X39361907Y19084286D02*
X39552383Y19084286D01*
X39552383Y19084286D02*
X39647621Y19036667D01*
X39647621Y19036667D02*
X39695240Y18941429D01*
X39695240Y18941429D02*
X39695240Y18846191D01*
X39695240Y18846191D02*
X39219050Y18750953D01*
X40552383Y18417620D02*
X40552383Y19417620D01*
X40552383Y18465239D02*
X40457145Y18417620D01*
X40457145Y18417620D02*
X40266669Y18417620D01*
X40266669Y18417620D02*
X40171431Y18465239D01*
X40171431Y18465239D02*
X40123812Y18512858D01*
X40123812Y18512858D02*
X40076193Y18608096D01*
X40076193Y18608096D02*
X40076193Y18893810D01*
X40076193Y18893810D02*
X40123812Y18989048D01*
X40123812Y18989048D02*
X40171431Y19036667D01*
X40171431Y19036667D02*
X40266669Y19084286D01*
X40266669Y19084286D02*
X40457145Y19084286D01*
X40457145Y19084286D02*
X40552383Y19036667D01*
M02*
