M48
; DRILL file {KiCad 7.0.0-da2b9df05c~171~ubuntu20.04.1} date Sat 04 Mar 2023 09:27:30 PM EST
; FORMAT={-:-/ absolute / inch / decimal}
; #@! TF.CreationDate,2023-03-04T21:27:30-05:00
; #@! TF.GenerationSoftware,Kicad,Pcbnew,7.0.0-da2b9df05c~171~ubuntu20.04.1
; #@! TF.FileFunction,Plated,1,2,PTH
FMAT,2
INCH
; #@! TA.AperFunction,Plated,PTH,ViaDrill
T1C0.0118
; #@! TA.AperFunction,Plated,PTH,ViaDrill
T2C0.0157
; #@! TA.AperFunction,Plated,PTH,ComponentDrill
T3C0.0906
; #@! TA.AperFunction,Plated,PTH,ComponentDrill
T4C0.1378
%
G90
G05
T1
X0.0472Y0.3819
X0.0472Y0.3425
X0.0472Y0.3031
X0.0472Y0.2638
X0.0669Y0.1181
X0.0866Y0.3819
X0.126Y0.3819
X0.126Y0.1181
X0.2461Y0.0984
X0.3051Y0.1417
X0.3051Y0.0984
X0.3642Y0.0984
X0.4232Y0.0984
X0.4291Y0.2323
X0.4823Y0.1417
X0.4823Y0.0984
X0.5413Y0.0984
X0.5709Y0.3031
X0.6004Y0.1417
X0.6102Y0.3031
X0.689Y0.3031
X0.689Y0.2244
X0.6929Y0.0984
X0.7283Y0.3031
X0.7362Y0.3819
X0.7677Y0.3031
X0.7756Y0.3819
X0.8031Y0.1142
X0.815Y0.3819
X0.8346Y0.3425
T2
X0.2062Y0.2244
X0.3937Y0.3984
X0.4724Y0.3984
X0.5709Y0.3984
T3
X0.1744Y0.5433
X0.6917Y0.5433
T4
X0.4331Y1.6535
T0
M30
