%TF.GenerationSoftware,KiCad,Pcbnew,6.0.10-86aedd382b~118~ubuntu20.04.1*%
%TF.CreationDate,2023-01-28T15:04:09-05:00*%
%TF.ProjectId,Logitech Unifying 2242,4c6f6769-7465-4636-9820-556e69667969,A*%
%TF.SameCoordinates,Original*%
%TF.FileFunction,Legend,Top*%
%TF.FilePolarity,Positive*%
%FSLAX46Y46*%
G04 Gerber Fmt 4.6, Leading zero omitted, Abs format (unit mm)*
G04 Created by KiCad (PCBNEW 6.0.10-86aedd382b~118~ubuntu20.04.1) date 2023-01-28 15:04:09*
%MOMM*%
%LPD*%
G01*
G04 APERTURE LIST*
G04 Aperture macros list*
%AMRoundRect*
0 Rectangle with rounded corners*
0 $1 Rounding radius*
0 $2 $3 $4 $5 $6 $7 $8 $9 X,Y pos of 4 corners*
0 Add a 4 corners polygon primitive as box body*
4,1,4,$2,$3,$4,$5,$6,$7,$8,$9,$2,$3,0*
0 Add four circle primitives for the rounded corners*
1,1,$1+$1,$2,$3*
1,1,$1+$1,$4,$5*
1,1,$1+$1,$6,$7*
1,1,$1+$1,$8,$9*
0 Add four rect primitives between the rounded corners*
20,1,$1+$1,$2,$3,$4,$5,0*
20,1,$1+$1,$4,$5,$6,$7,0*
20,1,$1+$1,$6,$7,$8,$9,0*
20,1,$1+$1,$8,$9,$2,$3,0*%
G04 Aperture macros list end*
%ADD10C,0.100000*%
%ADD11C,0.150000*%
%ADD12C,0.120000*%
%ADD13RoundRect,0.150000X-0.512500X-0.150000X0.512500X-0.150000X0.512500X0.150000X-0.512500X0.150000X0*%
%ADD14RoundRect,0.237500X0.237500X-0.300000X0.237500X0.300000X-0.237500X0.300000X-0.237500X-0.300000X0*%
%ADD15R,1.250000X3.000000*%
%ADD16C,3.000000*%
%ADD17RoundRect,0.250000X0.337500X0.475000X-0.337500X0.475000X-0.337500X-0.475000X0.337500X-0.475000X0*%
%ADD18RoundRect,0.250001X-0.849999X0.462499X-0.849999X-0.462499X0.849999X-0.462499X0.849999X0.462499X0*%
%ADD19RoundRect,0.250000X-0.337500X-0.475000X0.337500X-0.475000X0.337500X0.475000X-0.337500X0.475000X0*%
%ADD20R,0.350000X2.500000*%
%ADD21C,5.500000*%
%ADD22RoundRect,0.237500X0.300000X0.237500X-0.300000X0.237500X-0.300000X-0.237500X0.300000X-0.237500X0*%
%ADD23R,2.500000X1.800000*%
%ADD24RoundRect,0.250000X-0.450000X0.350000X-0.450000X-0.350000X0.450000X-0.350000X0.450000X0.350000X0*%
%ADD25C,0.800000*%
G04 APERTURE END LIST*
D10*
%TO.C,U1*%
X133986190Y-117650952D02*
X134390952Y-117650952D01*
X134438571Y-117627142D01*
X134462380Y-117603333D01*
X134486190Y-117555714D01*
X134486190Y-117460476D01*
X134462380Y-117412857D01*
X134438571Y-117389047D01*
X134390952Y-117365238D01*
X133986190Y-117365238D01*
X134486190Y-116865238D02*
X134486190Y-117150952D01*
X134486190Y-117008095D02*
X133986190Y-117008095D01*
X134057619Y-117055714D01*
X134105238Y-117103333D01*
X134129047Y-117150952D01*
%TO.C,C2*%
X143016666Y-117678571D02*
X142992857Y-117702380D01*
X142921428Y-117726190D01*
X142873809Y-117726190D01*
X142802380Y-117702380D01*
X142754761Y-117654761D01*
X142730952Y-117607142D01*
X142707142Y-117511904D01*
X142707142Y-117440476D01*
X142730952Y-117345238D01*
X142754761Y-117297619D01*
X142802380Y-117250000D01*
X142873809Y-117226190D01*
X142921428Y-117226190D01*
X142992857Y-117250000D01*
X143016666Y-117273809D01*
X143207142Y-117273809D02*
X143230952Y-117250000D01*
X143278571Y-117226190D01*
X143397619Y-117226190D01*
X143445238Y-117250000D01*
X143469047Y-117273809D01*
X143492857Y-117321428D01*
X143492857Y-117369047D01*
X143469047Y-117440476D01*
X143183333Y-117726190D01*
X143492857Y-117726190D01*
D11*
%TO.C,USB*%
X145952095Y-107324380D02*
X145952095Y-108133904D01*
X145999714Y-108229142D01*
X146047333Y-108276761D01*
X146142571Y-108324380D01*
X146333047Y-108324380D01*
X146428285Y-108276761D01*
X146475904Y-108229142D01*
X146523523Y-108133904D01*
X146523523Y-107324380D01*
X146952095Y-108276761D02*
X147094952Y-108324380D01*
X147333047Y-108324380D01*
X147428285Y-108276761D01*
X147475904Y-108229142D01*
X147523523Y-108133904D01*
X147523523Y-108038666D01*
X147475904Y-107943428D01*
X147428285Y-107895809D01*
X147333047Y-107848190D01*
X147142571Y-107800571D01*
X147047333Y-107752952D01*
X146999714Y-107705333D01*
X146952095Y-107610095D01*
X146952095Y-107514857D01*
X146999714Y-107419619D01*
X147047333Y-107372000D01*
X147142571Y-107324380D01*
X147380666Y-107324380D01*
X147523523Y-107372000D01*
X148285428Y-107800571D02*
X148428285Y-107848190D01*
X148475904Y-107895809D01*
X148523523Y-107991047D01*
X148523523Y-108133904D01*
X148475904Y-108229142D01*
X148428285Y-108276761D01*
X148333047Y-108324380D01*
X147952095Y-108324380D01*
X147952095Y-107324380D01*
X148285428Y-107324380D01*
X148380666Y-107372000D01*
X148428285Y-107419619D01*
X148475904Y-107514857D01*
X148475904Y-107610095D01*
X148428285Y-107705333D01*
X148380666Y-107752952D01*
X148285428Y-107800571D01*
X147952095Y-107800571D01*
D10*
%TO.C,C3.3*%
X129247523Y-109574571D02*
X129223714Y-109598380D01*
X129152285Y-109622190D01*
X129104666Y-109622190D01*
X129033238Y-109598380D01*
X128985619Y-109550761D01*
X128961809Y-109503142D01*
X128938000Y-109407904D01*
X128938000Y-109336476D01*
X128961809Y-109241238D01*
X128985619Y-109193619D01*
X129033238Y-109146000D01*
X129104666Y-109122190D01*
X129152285Y-109122190D01*
X129223714Y-109146000D01*
X129247523Y-109169809D01*
X129414190Y-109122190D02*
X129723714Y-109122190D01*
X129557047Y-109312666D01*
X129628476Y-109312666D01*
X129676095Y-109336476D01*
X129699904Y-109360285D01*
X129723714Y-109407904D01*
X129723714Y-109526952D01*
X129699904Y-109574571D01*
X129676095Y-109598380D01*
X129628476Y-109622190D01*
X129485619Y-109622190D01*
X129438000Y-109598380D01*
X129414190Y-109574571D01*
X129938000Y-109574571D02*
X129961809Y-109598380D01*
X129938000Y-109622190D01*
X129914190Y-109598380D01*
X129938000Y-109574571D01*
X129938000Y-109622190D01*
X130128476Y-109122190D02*
X130438000Y-109122190D01*
X130271333Y-109312666D01*
X130342761Y-109312666D01*
X130390380Y-109336476D01*
X130414190Y-109360285D01*
X130438000Y-109407904D01*
X130438000Y-109526952D01*
X130414190Y-109574571D01*
X130390380Y-109598380D01*
X130342761Y-109622190D01*
X130199904Y-109622190D01*
X130152285Y-109598380D01*
X130128476Y-109574571D01*
%TO.C,L1*%
X133160666Y-110892190D02*
X132922571Y-110892190D01*
X132922571Y-110392190D01*
X133589238Y-110892190D02*
X133303523Y-110892190D01*
X133446380Y-110892190D02*
X133446380Y-110392190D01*
X133398761Y-110463619D01*
X133351142Y-110511238D01*
X133303523Y-110535047D01*
%TO.C,C1.2*%
X147646571Y-112884476D02*
X147670380Y-112908285D01*
X147694190Y-112979714D01*
X147694190Y-113027333D01*
X147670380Y-113098761D01*
X147622761Y-113146380D01*
X147575142Y-113170190D01*
X147479904Y-113194000D01*
X147408476Y-113194000D01*
X147313238Y-113170190D01*
X147265619Y-113146380D01*
X147218000Y-113098761D01*
X147194190Y-113027333D01*
X147194190Y-112979714D01*
X147218000Y-112908285D01*
X147241809Y-112884476D01*
X147694190Y-112408285D02*
X147694190Y-112694000D01*
X147694190Y-112551142D02*
X147194190Y-112551142D01*
X147265619Y-112598761D01*
X147313238Y-112646380D01*
X147337047Y-112694000D01*
X147646571Y-112194000D02*
X147670380Y-112170190D01*
X147694190Y-112194000D01*
X147670380Y-112217809D01*
X147646571Y-112194000D01*
X147694190Y-112194000D01*
X147241809Y-111979714D02*
X147218000Y-111955904D01*
X147194190Y-111908285D01*
X147194190Y-111789238D01*
X147218000Y-111741619D01*
X147241809Y-111717809D01*
X147289428Y-111694000D01*
X147337047Y-111694000D01*
X147408476Y-111717809D01*
X147694190Y-112003523D01*
X147694190Y-111694000D01*
%TO.C,C1.1*%
X147646571Y-114916476D02*
X147670380Y-114940285D01*
X147694190Y-115011714D01*
X147694190Y-115059333D01*
X147670380Y-115130761D01*
X147622761Y-115178380D01*
X147575142Y-115202190D01*
X147479904Y-115226000D01*
X147408476Y-115226000D01*
X147313238Y-115202190D01*
X147265619Y-115178380D01*
X147218000Y-115130761D01*
X147194190Y-115059333D01*
X147194190Y-115011714D01*
X147218000Y-114940285D01*
X147241809Y-114916476D01*
X147694190Y-114440285D02*
X147694190Y-114726000D01*
X147694190Y-114583142D02*
X147194190Y-114583142D01*
X147265619Y-114630761D01*
X147313238Y-114678380D01*
X147337047Y-114726000D01*
X147646571Y-114226000D02*
X147670380Y-114202190D01*
X147694190Y-114226000D01*
X147670380Y-114249809D01*
X147646571Y-114226000D01*
X147694190Y-114226000D01*
X147694190Y-113726000D02*
X147694190Y-114011714D01*
X147694190Y-113868857D02*
X147194190Y-113868857D01*
X147265619Y-113916476D01*
X147313238Y-113964095D01*
X147337047Y-114011714D01*
D11*
%TO.C,J1*%
X138266666Y-96152380D02*
X138266666Y-96866666D01*
X138219047Y-97009523D01*
X138123809Y-97104761D01*
X137980952Y-97152380D01*
X137885714Y-97152380D01*
X139266666Y-97152380D02*
X138695238Y-97152380D01*
X138980952Y-97152380D02*
X138980952Y-96152380D01*
X138885714Y-96295238D01*
X138790476Y-96390476D01*
X138695238Y-96438095D01*
D10*
X144235714Y-117264285D02*
X144307142Y-117288095D01*
X144330952Y-117311904D01*
X144354761Y-117359523D01*
X144354761Y-117430952D01*
X144330952Y-117478571D01*
X144307142Y-117502380D01*
X144259523Y-117526190D01*
X144069047Y-117526190D01*
X144069047Y-117026190D01*
X144235714Y-117026190D01*
X144283333Y-117050000D01*
X144307142Y-117073809D01*
X144330952Y-117121428D01*
X144330952Y-117169047D01*
X144307142Y-117216666D01*
X144283333Y-117240476D01*
X144235714Y-117264285D01*
X144069047Y-117264285D01*
X132333333Y-117526190D02*
X132333333Y-117026190D01*
X132500000Y-117383333D01*
X132666666Y-117026190D01*
X132666666Y-117526190D01*
%TO.C,C3.1*%
X129247523Y-111098571D02*
X129223714Y-111122380D01*
X129152285Y-111146190D01*
X129104666Y-111146190D01*
X129033238Y-111122380D01*
X128985619Y-111074761D01*
X128961809Y-111027142D01*
X128938000Y-110931904D01*
X128938000Y-110860476D01*
X128961809Y-110765238D01*
X128985619Y-110717619D01*
X129033238Y-110670000D01*
X129104666Y-110646190D01*
X129152285Y-110646190D01*
X129223714Y-110670000D01*
X129247523Y-110693809D01*
X129414190Y-110646190D02*
X129723714Y-110646190D01*
X129557047Y-110836666D01*
X129628476Y-110836666D01*
X129676095Y-110860476D01*
X129699904Y-110884285D01*
X129723714Y-110931904D01*
X129723714Y-111050952D01*
X129699904Y-111098571D01*
X129676095Y-111122380D01*
X129628476Y-111146190D01*
X129485619Y-111146190D01*
X129438000Y-111122380D01*
X129414190Y-111098571D01*
X129938000Y-111098571D02*
X129961809Y-111122380D01*
X129938000Y-111146190D01*
X129914190Y-111122380D01*
X129938000Y-111098571D01*
X129938000Y-111146190D01*
X130438000Y-111146190D02*
X130152285Y-111146190D01*
X130295142Y-111146190D02*
X130295142Y-110646190D01*
X130247523Y-110717619D01*
X130199904Y-110765238D01*
X130152285Y-110789047D01*
%TO.C,C3.2*%
X129247523Y-110336571D02*
X129223714Y-110360380D01*
X129152285Y-110384190D01*
X129104666Y-110384190D01*
X129033238Y-110360380D01*
X128985619Y-110312761D01*
X128961809Y-110265142D01*
X128938000Y-110169904D01*
X128938000Y-110098476D01*
X128961809Y-110003238D01*
X128985619Y-109955619D01*
X129033238Y-109908000D01*
X129104666Y-109884190D01*
X129152285Y-109884190D01*
X129223714Y-109908000D01*
X129247523Y-109931809D01*
X129414190Y-109884190D02*
X129723714Y-109884190D01*
X129557047Y-110074666D01*
X129628476Y-110074666D01*
X129676095Y-110098476D01*
X129699904Y-110122285D01*
X129723714Y-110169904D01*
X129723714Y-110288952D01*
X129699904Y-110336571D01*
X129676095Y-110360380D01*
X129628476Y-110384190D01*
X129485619Y-110384190D01*
X129438000Y-110360380D01*
X129414190Y-110336571D01*
X129938000Y-110336571D02*
X129961809Y-110360380D01*
X129938000Y-110384190D01*
X129914190Y-110360380D01*
X129938000Y-110336571D01*
X129938000Y-110384190D01*
X130152285Y-109931809D02*
X130176095Y-109908000D01*
X130223714Y-109884190D01*
X130342761Y-109884190D01*
X130390380Y-109908000D01*
X130414190Y-109931809D01*
X130438000Y-109979428D01*
X130438000Y-110027047D01*
X130414190Y-110098476D01*
X130128476Y-110384190D01*
X130438000Y-110384190D01*
%TO.C,D1*%
X142614190Y-113067047D02*
X142114190Y-113067047D01*
X142114190Y-112948000D01*
X142138000Y-112876571D01*
X142185619Y-112828952D01*
X142233238Y-112805142D01*
X142328476Y-112781333D01*
X142399904Y-112781333D01*
X142495142Y-112805142D01*
X142542761Y-112828952D01*
X142590380Y-112876571D01*
X142614190Y-112948000D01*
X142614190Y-113067047D01*
X142614190Y-112305142D02*
X142614190Y-112590857D01*
X142614190Y-112448000D02*
X142114190Y-112448000D01*
X142185619Y-112495619D01*
X142233238Y-112543238D01*
X142257047Y-112590857D01*
%TO.C,R1*%
X143016666Y-117026190D02*
X142850000Y-116788095D01*
X142730952Y-117026190D02*
X142730952Y-116526190D01*
X142921428Y-116526190D01*
X142969047Y-116550000D01*
X142992857Y-116573809D01*
X143016666Y-116621428D01*
X143016666Y-116692857D01*
X142992857Y-116740476D01*
X142969047Y-116764285D01*
X142921428Y-116788095D01*
X142730952Y-116788095D01*
X143492857Y-117026190D02*
X143207142Y-117026190D01*
X143350000Y-117026190D02*
X143350000Y-116526190D01*
X143302380Y-116597619D01*
X143254761Y-116645238D01*
X143207142Y-116669047D01*
%TO.C,C1.3*%
X147646571Y-110852476D02*
X147670380Y-110876285D01*
X147694190Y-110947714D01*
X147694190Y-110995333D01*
X147670380Y-111066761D01*
X147622761Y-111114380D01*
X147575142Y-111138190D01*
X147479904Y-111162000D01*
X147408476Y-111162000D01*
X147313238Y-111138190D01*
X147265619Y-111114380D01*
X147218000Y-111066761D01*
X147194190Y-110995333D01*
X147194190Y-110947714D01*
X147218000Y-110876285D01*
X147241809Y-110852476D01*
X147694190Y-110376285D02*
X147694190Y-110662000D01*
X147694190Y-110519142D02*
X147194190Y-110519142D01*
X147265619Y-110566761D01*
X147313238Y-110614380D01*
X147337047Y-110662000D01*
X147646571Y-110162000D02*
X147670380Y-110138190D01*
X147694190Y-110162000D01*
X147670380Y-110185809D01*
X147646571Y-110162000D01*
X147694190Y-110162000D01*
X147194190Y-109971523D02*
X147194190Y-109662000D01*
X147384666Y-109828666D01*
X147384666Y-109757238D01*
X147408476Y-109709619D01*
X147432285Y-109685809D01*
X147479904Y-109662000D01*
X147598952Y-109662000D01*
X147646571Y-109685809D01*
X147670380Y-109709619D01*
X147694190Y-109757238D01*
X147694190Y-109900095D01*
X147670380Y-109947714D01*
X147646571Y-109971523D01*
D12*
%TO.C,U1*%
X136800000Y-118068000D02*
X137600000Y-118068000D01*
X136800000Y-114948000D02*
X137600000Y-114948000D01*
X136800000Y-118068000D02*
X136000000Y-118068000D01*
X136800000Y-114948000D02*
X135000000Y-114948000D01*
%TO.C,C2*%
X142310000Y-116746267D02*
X142310000Y-116453733D01*
X141290000Y-116746267D02*
X141290000Y-116453733D01*
%TO.C,USB*%
X131918000Y-108814000D02*
X131918000Y-106744000D01*
X145238000Y-108814000D02*
X142928000Y-108814000D01*
X142928000Y-110104000D02*
X142928000Y-108814000D01*
X145238000Y-108814000D02*
X145238000Y-106744000D01*
X145238000Y-95114000D02*
X146008000Y-95114000D01*
X131918000Y-103224000D02*
X131918000Y-95114000D01*
X145238000Y-95114000D02*
X145238000Y-103224000D01*
X131148000Y-95114000D02*
X131918000Y-95114000D01*
X146008000Y-95114000D02*
X146008000Y-94594000D01*
X136728000Y-108804000D02*
X135908000Y-108804000D01*
X131148000Y-94594000D02*
X131148000Y-95114000D01*
X141248000Y-108804000D02*
X140428000Y-108804000D01*
X134228000Y-108814000D02*
X131918000Y-108814000D01*
X146008000Y-94594000D02*
X131148000Y-94594000D01*
X138748000Y-108804000D02*
X138408000Y-108804000D01*
%TO.C,C3.3*%
X129949252Y-113179000D02*
X129426748Y-113179000D01*
X129949252Y-111709000D02*
X129426748Y-111709000D01*
%TO.C,L1*%
X134354000Y-112944748D02*
X134354000Y-113467252D01*
X132134000Y-112944748D02*
X132134000Y-113467252D01*
%TO.C,C1.2*%
X144920748Y-111709000D02*
X145443252Y-111709000D01*
X144920748Y-113179000D02*
X145443252Y-113179000D01*
%TO.C,C1.1*%
X144920748Y-113741000D02*
X145443252Y-113741000D01*
X144920748Y-115211000D02*
X145443252Y-115211000D01*
%TO.C,C3.1*%
X130088267Y-116764000D02*
X129795733Y-116764000D01*
X130088267Y-115744000D02*
X129795733Y-115744000D01*
%TO.C,C3.2*%
X129949252Y-113741000D02*
X129426748Y-113741000D01*
X129949252Y-115211000D02*
X129426748Y-115211000D01*
%TO.C,D1*%
X141978000Y-114348000D02*
X141978000Y-111048000D01*
X141978000Y-111048000D02*
X136578000Y-111048000D01*
X141978000Y-114348000D02*
X136578000Y-114348000D01*
%TO.C,R1*%
X140735000Y-116172936D02*
X140735000Y-116627064D01*
X139265000Y-116172936D02*
X139265000Y-116627064D01*
%TO.C,C1.3*%
X144920748Y-109677000D02*
X145443252Y-109677000D01*
X144920748Y-111147000D02*
X145443252Y-111147000D01*
%TD*%
%LPC*%
D13*
%TO.C,U1*%
X135662500Y-115558000D03*
X135662500Y-116508000D03*
X135662500Y-117458000D03*
X137937500Y-117458000D03*
X137937500Y-115558000D03*
%TD*%
D14*
%TO.C,C2*%
X141800000Y-117462500D03*
X141800000Y-115737500D03*
%TD*%
D15*
%TO.C,USB*%
X142078000Y-108664000D03*
X139578000Y-108664000D03*
X137578000Y-108664000D03*
X135078000Y-108664000D03*
D16*
X132008000Y-104984000D03*
X145148000Y-104984000D03*
%TD*%
D17*
%TO.C,C3.3*%
X130725500Y-112444000D03*
X128650500Y-112444000D03*
%TD*%
D18*
%TO.C,L1*%
X133244000Y-112043500D03*
X133244000Y-114368500D03*
%TD*%
D19*
%TO.C,C1.2*%
X144144500Y-112444000D03*
X146219500Y-112444000D03*
%TD*%
%TO.C,C1.1*%
X144144500Y-114476000D03*
X146219500Y-114476000D03*
%TD*%
D20*
%TO.C,J1*%
X147850000Y-119950000D03*
X147350000Y-119950000D03*
D21*
X138600000Y-79200000D03*
D20*
X146850000Y-119950000D03*
X146350000Y-119950000D03*
X145850000Y-119950000D03*
X145350000Y-119950000D03*
X142850000Y-119950000D03*
X142350000Y-119950000D03*
X141850000Y-119950000D03*
X141350000Y-119950000D03*
X140850000Y-119950000D03*
X140350000Y-119950000D03*
X139850000Y-119950000D03*
X139350000Y-119950000D03*
X138850000Y-119950000D03*
X138350000Y-119950000D03*
X137850000Y-119950000D03*
X137350000Y-119950000D03*
X136850000Y-119950000D03*
X136350000Y-119950000D03*
X135850000Y-119950000D03*
X135350000Y-119950000D03*
X134850000Y-119950000D03*
X134350000Y-119950000D03*
X133850000Y-119950000D03*
X131350000Y-119950000D03*
X130850000Y-119950000D03*
X130350000Y-119950000D03*
X129850000Y-119950000D03*
X129350000Y-119950000D03*
%TD*%
D22*
%TO.C,C3.1*%
X130804500Y-116254000D03*
X129079500Y-116254000D03*
%TD*%
D17*
%TO.C,C3.2*%
X130725500Y-114476000D03*
X128650500Y-114476000D03*
%TD*%
D23*
%TO.C,D1*%
X140578000Y-112698000D03*
X136578000Y-112698000D03*
%TD*%
D24*
%TO.C,R1*%
X140000000Y-115400000D03*
X140000000Y-117400000D03*
%TD*%
D19*
%TO.C,C1.3*%
X144144500Y-110412000D03*
X146219500Y-110412000D03*
%TD*%
D25*
X128600000Y-110600000D03*
X133400000Y-117400000D03*
X146100000Y-116000000D03*
X146300000Y-108900000D03*
X143800000Y-117024500D03*
X147700000Y-117200000D03*
X133500000Y-109700000D03*
X130100000Y-117500000D03*
X132700000Y-116300000D03*
M02*
