%TF.GenerationSoftware,KiCad,Pcbnew,6.0.10-86aedd382b~118~ubuntu20.04.1*%
%TF.CreationDate,2023-01-28T15:04:09-05:00*%
%TF.ProjectId,Logitech Unifying 2242,4c6f6769-7465-4636-9820-556e69667969,A*%
%TF.SameCoordinates,Original*%
%TF.FileFunction,Paste,Top*%
%TF.FilePolarity,Positive*%
%FSLAX46Y46*%
G04 Gerber Fmt 4.6, Leading zero omitted, Abs format (unit mm)*
G04 Created by KiCad (PCBNEW 6.0.10-86aedd382b~118~ubuntu20.04.1) date 2023-01-28 15:04:09*
%MOMM*%
%LPD*%
G01*
G04 APERTURE LIST*
G04 Aperture macros list*
%AMRoundRect*
0 Rectangle with rounded corners*
0 $1 Rounding radius*
0 $2 $3 $4 $5 $6 $7 $8 $9 X,Y pos of 4 corners*
0 Add a 4 corners polygon primitive as box body*
4,1,4,$2,$3,$4,$5,$6,$7,$8,$9,$2,$3,0*
0 Add four circle primitives for the rounded corners*
1,1,$1+$1,$2,$3*
1,1,$1+$1,$4,$5*
1,1,$1+$1,$6,$7*
1,1,$1+$1,$8,$9*
0 Add four rect primitives between the rounded corners*
20,1,$1+$1,$2,$3,$4,$5,0*
20,1,$1+$1,$4,$5,$6,$7,0*
20,1,$1+$1,$6,$7,$8,$9,0*
20,1,$1+$1,$8,$9,$2,$3,0*%
G04 Aperture macros list end*
%ADD10RoundRect,0.150000X-0.512500X-0.150000X0.512500X-0.150000X0.512500X0.150000X-0.512500X0.150000X0*%
%ADD11RoundRect,0.237500X0.237500X-0.300000X0.237500X0.300000X-0.237500X0.300000X-0.237500X-0.300000X0*%
%ADD12R,1.250000X3.000000*%
%ADD13RoundRect,0.250000X0.337500X0.475000X-0.337500X0.475000X-0.337500X-0.475000X0.337500X-0.475000X0*%
%ADD14RoundRect,0.250001X-0.849999X0.462499X-0.849999X-0.462499X0.849999X-0.462499X0.849999X0.462499X0*%
%ADD15RoundRect,0.250000X-0.337500X-0.475000X0.337500X-0.475000X0.337500X0.475000X-0.337500X0.475000X0*%
%ADD16R,0.350000X2.500000*%
%ADD17RoundRect,0.237500X0.300000X0.237500X-0.300000X0.237500X-0.300000X-0.237500X0.300000X-0.237500X0*%
%ADD18R,2.500000X1.800000*%
%ADD19RoundRect,0.250000X-0.450000X0.350000X-0.450000X-0.350000X0.450000X-0.350000X0.450000X0.350000X0*%
G04 APERTURE END LIST*
D10*
%TO.C,U1*%
X135662500Y-115558000D03*
X135662500Y-116508000D03*
X135662500Y-117458000D03*
X137937500Y-117458000D03*
X137937500Y-115558000D03*
%TD*%
D11*
%TO.C,C2*%
X141800000Y-117462500D03*
X141800000Y-115737500D03*
%TD*%
D12*
%TO.C,USB*%
X142078000Y-108664000D03*
X139578000Y-108664000D03*
X137578000Y-108664000D03*
X135078000Y-108664000D03*
%TD*%
D13*
%TO.C,C3.3*%
X130725500Y-112444000D03*
X128650500Y-112444000D03*
%TD*%
D14*
%TO.C,L1*%
X133244000Y-112043500D03*
X133244000Y-114368500D03*
%TD*%
D15*
%TO.C,C1.2*%
X144144500Y-112444000D03*
X146219500Y-112444000D03*
%TD*%
%TO.C,C1.1*%
X144144500Y-114476000D03*
X146219500Y-114476000D03*
%TD*%
D16*
%TO.C,J1*%
X147850000Y-119950000D03*
X147350000Y-119950000D03*
X146850000Y-119950000D03*
X146350000Y-119950000D03*
X145850000Y-119950000D03*
X145350000Y-119950000D03*
X142850000Y-119950000D03*
X142350000Y-119950000D03*
X141850000Y-119950000D03*
X141350000Y-119950000D03*
X140850000Y-119950000D03*
X140350000Y-119950000D03*
X139850000Y-119950000D03*
X139350000Y-119950000D03*
X138850000Y-119950000D03*
X138350000Y-119950000D03*
X137850000Y-119950000D03*
X137350000Y-119950000D03*
X136850000Y-119950000D03*
X136350000Y-119950000D03*
X135850000Y-119950000D03*
X135350000Y-119950000D03*
X134850000Y-119950000D03*
X134350000Y-119950000D03*
X133850000Y-119950000D03*
X131350000Y-119950000D03*
X130850000Y-119950000D03*
X130350000Y-119950000D03*
X129850000Y-119950000D03*
X129350000Y-119950000D03*
%TD*%
D17*
%TO.C,C3.1*%
X130804500Y-116254000D03*
X129079500Y-116254000D03*
%TD*%
D13*
%TO.C,C3.2*%
X130725500Y-114476000D03*
X128650500Y-114476000D03*
%TD*%
D18*
%TO.C,D1*%
X140578000Y-112698000D03*
X136578000Y-112698000D03*
%TD*%
D19*
%TO.C,R1*%
X140000000Y-115400000D03*
X140000000Y-117400000D03*
%TD*%
D15*
%TO.C,C1.3*%
X144144500Y-110412000D03*
X146219500Y-110412000D03*
%TD*%
M02*
