%TF.GenerationSoftware,KiCad,Pcbnew,7.0.0-da2b9df05c~171~ubuntu20.04.1*%
%TF.CreationDate,2023-03-04T21:27:30-05:00*%
%TF.ProjectId,USB 2242,4c6f6769-7465-4636-9820-556e69667969,B*%
%TF.SameCoordinates,Original*%
%TF.FileFunction,Legend,Top*%
%TF.FilePolarity,Positive*%
%FSLAX46Y46*%
G04 Gerber Fmt 4.6, Leading zero omitted, Abs format (unit mm)*
G04 Created by KiCad (PCBNEW 7.0.0-da2b9df05c~171~ubuntu20.04.1) date 2023-03-04 21:27:30*
%MOMM*%
%LPD*%
G01*
G04 APERTURE LIST*
G04 Aperture macros list*
%AMRoundRect*
0 Rectangle with rounded corners*
0 $1 Rounding radius*
0 $2 $3 $4 $5 $6 $7 $8 $9 X,Y pos of 4 corners*
0 Add a 4 corners polygon primitive as box body*
4,1,4,$2,$3,$4,$5,$6,$7,$8,$9,$2,$3,0*
0 Add four circle primitives for the rounded corners*
1,1,$1+$1,$2,$3*
1,1,$1+$1,$4,$5*
1,1,$1+$1,$6,$7*
1,1,$1+$1,$8,$9*
0 Add four rect primitives between the rounded corners*
20,1,$1+$1,$2,$3,$4,$5,0*
20,1,$1+$1,$4,$5,$6,$7,0*
20,1,$1+$1,$6,$7,$8,$9,0*
20,1,$1+$1,$8,$9,$2,$3,0*%
%AMFreePoly0*
4,1,33,0.102133,0.973559,0.135618,0.966898,0.162652,0.955700,0.191039,0.936733,0.211733,0.916039,0.230700,0.887652,0.241898,0.860618,0.248559,0.827133,0.250000,0.812500,0.250000,-0.760000,0.244291,-0.788701,0.228033,-0.813033,0.088033,-0.953033,0.063701,-0.969291,0.035000,-0.975000,-0.035000,-0.975000,-0.063701,-0.969291,-0.088033,-0.953033,-0.228033,-0.813033,-0.244291,-0.788701,
-0.250000,-0.760000,-0.250000,0.812500,-0.248559,0.827133,-0.241898,0.860618,-0.230700,0.887652,-0.211733,0.916039,-0.191039,0.936733,-0.162652,0.955700,-0.135618,0.966898,-0.102133,0.973559,-0.087500,0.975000,0.087500,0.975000,0.102133,0.973559,0.102133,0.973559,$1*%
G04 Aperture macros list end*
%ADD10C,0.150000*%
%ADD11C,0.200000*%
%ADD12C,0.100000*%
%ADD13C,0.120000*%
%ADD14RoundRect,0.150000X-0.512500X-0.150000X0.512500X-0.150000X0.512500X0.150000X-0.512500X0.150000X0*%
%ADD15RoundRect,0.155000X-0.212500X-0.155000X0.212500X-0.155000X0.212500X0.155000X-0.212500X0.155000X0*%
%ADD16R,1.250000X3.000000*%
%ADD17C,3.000000*%
%ADD18RoundRect,0.237500X-0.287500X-0.237500X0.287500X-0.237500X0.287500X0.237500X-0.287500X0.237500X0*%
%ADD19RoundRect,0.155000X0.212500X0.155000X-0.212500X0.155000X-0.212500X-0.155000X0.212500X-0.155000X0*%
%ADD20RoundRect,0.250001X-0.462499X-0.849999X0.462499X-0.849999X0.462499X0.849999X-0.462499X0.849999X0*%
%ADD21FreePoly0,0.000000*%
%ADD22C,5.500000*%
%ADD23RoundRect,0.112500X0.187500X0.112500X-0.187500X0.112500X-0.187500X-0.112500X0.187500X-0.112500X0*%
%ADD24RoundRect,0.160000X-0.197500X-0.160000X0.197500X-0.160000X0.197500X0.160000X-0.197500X0.160000X0*%
G04 APERTURE END LIST*
D10*
X12467380Y12138096D02*
X11467380Y12138096D01*
X11467380Y12138096D02*
X11467380Y12376191D01*
X11467380Y12376191D02*
X11515000Y12519048D01*
X11515000Y12519048D02*
X11610238Y12614286D01*
X11610238Y12614286D02*
X11705476Y12661905D01*
X11705476Y12661905D02*
X11895952Y12709524D01*
X11895952Y12709524D02*
X12038809Y12709524D01*
X12038809Y12709524D02*
X12229285Y12661905D01*
X12229285Y12661905D02*
X12324523Y12614286D01*
X12324523Y12614286D02*
X12419761Y12519048D01*
X12419761Y12519048D02*
X12467380Y12376191D01*
X12467380Y12376191D02*
X12467380Y12138096D01*
X12086428Y13138096D02*
X12086428Y13900000D01*
X10467380Y12138096D02*
X9467380Y12138096D01*
X9467380Y12138096D02*
X9467380Y12376191D01*
X9467380Y12376191D02*
X9515000Y12519048D01*
X9515000Y12519048D02*
X9610238Y12614286D01*
X9610238Y12614286D02*
X9705476Y12661905D01*
X9705476Y12661905D02*
X9895952Y12709524D01*
X9895952Y12709524D02*
X10038809Y12709524D01*
X10038809Y12709524D02*
X10229285Y12661905D01*
X10229285Y12661905D02*
X10324523Y12614286D01*
X10324523Y12614286D02*
X10419761Y12519048D01*
X10419761Y12519048D02*
X10467380Y12376191D01*
X10467380Y12376191D02*
X10467380Y12138096D01*
X10086428Y13138096D02*
X10086428Y13900000D01*
X10467380Y13519048D02*
X9705476Y13519048D01*
X7015000Y12661905D02*
X6967380Y12566667D01*
X6967380Y12566667D02*
X6967380Y12423810D01*
X6967380Y12423810D02*
X7015000Y12280953D01*
X7015000Y12280953D02*
X7110238Y12185715D01*
X7110238Y12185715D02*
X7205476Y12138096D01*
X7205476Y12138096D02*
X7395952Y12090477D01*
X7395952Y12090477D02*
X7538809Y12090477D01*
X7538809Y12090477D02*
X7729285Y12138096D01*
X7729285Y12138096D02*
X7824523Y12185715D01*
X7824523Y12185715D02*
X7919761Y12280953D01*
X7919761Y12280953D02*
X7967380Y12423810D01*
X7967380Y12423810D02*
X7967380Y12519048D01*
X7967380Y12519048D02*
X7919761Y12661905D01*
X7919761Y12661905D02*
X7872142Y12709524D01*
X7872142Y12709524D02*
X7538809Y12709524D01*
X7538809Y12709524D02*
X7538809Y12519048D01*
X7967380Y13138096D02*
X6967380Y13138096D01*
X6967380Y13138096D02*
X7967380Y13709524D01*
X7967380Y13709524D02*
X6967380Y13709524D01*
X7967380Y14185715D02*
X6967380Y14185715D01*
X6967380Y14185715D02*
X6967380Y14423810D01*
X6967380Y14423810D02*
X7015000Y14566667D01*
X7015000Y14566667D02*
X7110238Y14661905D01*
X7110238Y14661905D02*
X7205476Y14709524D01*
X7205476Y14709524D02*
X7395952Y14757143D01*
X7395952Y14757143D02*
X7538809Y14757143D01*
X7538809Y14757143D02*
X7729285Y14709524D01*
X7729285Y14709524D02*
X7824523Y14661905D01*
X7824523Y14661905D02*
X7919761Y14566667D01*
X7919761Y14566667D02*
X7967380Y14423810D01*
X7967380Y14423810D02*
X7967380Y14185715D01*
X13967380Y12614286D02*
X13967380Y12138096D01*
X13967380Y12138096D02*
X14443571Y12090477D01*
X14443571Y12090477D02*
X14395952Y12138096D01*
X14395952Y12138096D02*
X14348333Y12233334D01*
X14348333Y12233334D02*
X14348333Y12471429D01*
X14348333Y12471429D02*
X14395952Y12566667D01*
X14395952Y12566667D02*
X14443571Y12614286D01*
X14443571Y12614286D02*
X14538809Y12661905D01*
X14538809Y12661905D02*
X14776904Y12661905D01*
X14776904Y12661905D02*
X14872142Y12614286D01*
X14872142Y12614286D02*
X14919761Y12566667D01*
X14919761Y12566667D02*
X14967380Y12471429D01*
X14967380Y12471429D02*
X14967380Y12233334D01*
X14967380Y12233334D02*
X14919761Y12138096D01*
X14919761Y12138096D02*
X14872142Y12090477D01*
X13967380Y12947620D02*
X14967380Y13280953D01*
X14967380Y13280953D02*
X13967380Y13614286D01*
D11*
X1638095Y40237620D02*
X1638095Y39428096D01*
X1638095Y39428096D02*
X1685714Y39332858D01*
X1685714Y39332858D02*
X1733333Y39285239D01*
X1733333Y39285239D02*
X1828571Y39237620D01*
X1828571Y39237620D02*
X2019047Y39237620D01*
X2019047Y39237620D02*
X2114285Y39285239D01*
X2114285Y39285239D02*
X2161904Y39332858D01*
X2161904Y39332858D02*
X2209523Y39428096D01*
X2209523Y39428096D02*
X2209523Y40237620D01*
X2638095Y39285239D02*
X2780952Y39237620D01*
X2780952Y39237620D02*
X3019047Y39237620D01*
X3019047Y39237620D02*
X3114285Y39285239D01*
X3114285Y39285239D02*
X3161904Y39332858D01*
X3161904Y39332858D02*
X3209523Y39428096D01*
X3209523Y39428096D02*
X3209523Y39523334D01*
X3209523Y39523334D02*
X3161904Y39618572D01*
X3161904Y39618572D02*
X3114285Y39666191D01*
X3114285Y39666191D02*
X3019047Y39713810D01*
X3019047Y39713810D02*
X2828571Y39761429D01*
X2828571Y39761429D02*
X2733333Y39809048D01*
X2733333Y39809048D02*
X2685714Y39856667D01*
X2685714Y39856667D02*
X2638095Y39951905D01*
X2638095Y39951905D02*
X2638095Y40047143D01*
X2638095Y40047143D02*
X2685714Y40142381D01*
X2685714Y40142381D02*
X2733333Y40190000D01*
X2733333Y40190000D02*
X2828571Y40237620D01*
X2828571Y40237620D02*
X3066666Y40237620D01*
X3066666Y40237620D02*
X3209523Y40190000D01*
X3971428Y39761429D02*
X4114285Y39713810D01*
X4114285Y39713810D02*
X4161904Y39666191D01*
X4161904Y39666191D02*
X4209523Y39570953D01*
X4209523Y39570953D02*
X4209523Y39428096D01*
X4209523Y39428096D02*
X4161904Y39332858D01*
X4161904Y39332858D02*
X4114285Y39285239D01*
X4114285Y39285239D02*
X4019047Y39237620D01*
X4019047Y39237620D02*
X3638095Y39237620D01*
X3638095Y39237620D02*
X3638095Y40237620D01*
X3638095Y40237620D02*
X3971428Y40237620D01*
X3971428Y40237620D02*
X4066666Y40190000D01*
X4066666Y40190000D02*
X4114285Y40142381D01*
X4114285Y40142381D02*
X4161904Y40047143D01*
X4161904Y40047143D02*
X4161904Y39951905D01*
X4161904Y39951905D02*
X4114285Y39856667D01*
X4114285Y39856667D02*
X4066666Y39809048D01*
X4066666Y39809048D02*
X3971428Y39761429D01*
X3971428Y39761429D02*
X3638095Y39761429D01*
X5190476Y40142381D02*
X5238095Y40190000D01*
X5238095Y40190000D02*
X5333333Y40237620D01*
X5333333Y40237620D02*
X5571428Y40237620D01*
X5571428Y40237620D02*
X5666666Y40190000D01*
X5666666Y40190000D02*
X5714285Y40142381D01*
X5714285Y40142381D02*
X5761904Y40047143D01*
X5761904Y40047143D02*
X5761904Y39951905D01*
X5761904Y39951905D02*
X5714285Y39809048D01*
X5714285Y39809048D02*
X5142857Y39237620D01*
X5142857Y39237620D02*
X5761904Y39237620D01*
X6190476Y39332858D02*
X6238095Y39285239D01*
X6238095Y39285239D02*
X6190476Y39237620D01*
X6190476Y39237620D02*
X6142857Y39285239D01*
X6142857Y39285239D02*
X6190476Y39332858D01*
X6190476Y39332858D02*
X6190476Y39237620D01*
X6857142Y40237620D02*
X6952380Y40237620D01*
X6952380Y40237620D02*
X7047618Y40190000D01*
X7047618Y40190000D02*
X7095237Y40142381D01*
X7095237Y40142381D02*
X7142856Y40047143D01*
X7142856Y40047143D02*
X7190475Y39856667D01*
X7190475Y39856667D02*
X7190475Y39618572D01*
X7190475Y39618572D02*
X7142856Y39428096D01*
X7142856Y39428096D02*
X7095237Y39332858D01*
X7095237Y39332858D02*
X7047618Y39285239D01*
X7047618Y39285239D02*
X6952380Y39237620D01*
X6952380Y39237620D02*
X6857142Y39237620D01*
X6857142Y39237620D02*
X6761904Y39285239D01*
X6761904Y39285239D02*
X6714285Y39332858D01*
X6714285Y39332858D02*
X6666666Y39428096D01*
X6666666Y39428096D02*
X6619047Y39618572D01*
X6619047Y39618572D02*
X6619047Y39856667D01*
X6619047Y39856667D02*
X6666666Y40047143D01*
X6666666Y40047143D02*
X6714285Y40142381D01*
X6714285Y40142381D02*
X6761904Y40190000D01*
X6761904Y40190000D02*
X6857142Y40237620D01*
X2114285Y38617620D02*
X1638095Y38617620D01*
X1638095Y38617620D02*
X1590476Y38141429D01*
X1590476Y38141429D02*
X1638095Y38189048D01*
X1638095Y38189048D02*
X1733333Y38236667D01*
X1733333Y38236667D02*
X1971428Y38236667D01*
X1971428Y38236667D02*
X2066666Y38189048D01*
X2066666Y38189048D02*
X2114285Y38141429D01*
X2114285Y38141429D02*
X2161904Y38046191D01*
X2161904Y38046191D02*
X2161904Y37808096D01*
X2161904Y37808096D02*
X2114285Y37712858D01*
X2114285Y37712858D02*
X2066666Y37665239D01*
X2066666Y37665239D02*
X1971428Y37617620D01*
X1971428Y37617620D02*
X1733333Y37617620D01*
X1733333Y37617620D02*
X1638095Y37665239D01*
X1638095Y37665239D02*
X1590476Y37712858D01*
X2780952Y38617620D02*
X2876190Y38617620D01*
X2876190Y38617620D02*
X2971428Y38570000D01*
X2971428Y38570000D02*
X3019047Y38522381D01*
X3019047Y38522381D02*
X3066666Y38427143D01*
X3066666Y38427143D02*
X3114285Y38236667D01*
X3114285Y38236667D02*
X3114285Y37998572D01*
X3114285Y37998572D02*
X3066666Y37808096D01*
X3066666Y37808096D02*
X3019047Y37712858D01*
X3019047Y37712858D02*
X2971428Y37665239D01*
X2971428Y37665239D02*
X2876190Y37617620D01*
X2876190Y37617620D02*
X2780952Y37617620D01*
X2780952Y37617620D02*
X2685714Y37665239D01*
X2685714Y37665239D02*
X2638095Y37712858D01*
X2638095Y37712858D02*
X2590476Y37808096D01*
X2590476Y37808096D02*
X2542857Y37998572D01*
X2542857Y37998572D02*
X2542857Y38236667D01*
X2542857Y38236667D02*
X2590476Y38427143D01*
X2590476Y38427143D02*
X2638095Y38522381D01*
X2638095Y38522381D02*
X2685714Y38570000D01*
X2685714Y38570000D02*
X2780952Y38617620D01*
X3733333Y38617620D02*
X3828571Y38617620D01*
X3828571Y38617620D02*
X3923809Y38570000D01*
X3923809Y38570000D02*
X3971428Y38522381D01*
X3971428Y38522381D02*
X4019047Y38427143D01*
X4019047Y38427143D02*
X4066666Y38236667D01*
X4066666Y38236667D02*
X4066666Y37998572D01*
X4066666Y37998572D02*
X4019047Y37808096D01*
X4019047Y37808096D02*
X3971428Y37712858D01*
X3971428Y37712858D02*
X3923809Y37665239D01*
X3923809Y37665239D02*
X3828571Y37617620D01*
X3828571Y37617620D02*
X3733333Y37617620D01*
X3733333Y37617620D02*
X3638095Y37665239D01*
X3638095Y37665239D02*
X3590476Y37712858D01*
X3590476Y37712858D02*
X3542857Y37808096D01*
X3542857Y37808096D02*
X3495238Y37998572D01*
X3495238Y37998572D02*
X3495238Y38236667D01*
X3495238Y38236667D02*
X3542857Y38427143D01*
X3542857Y38427143D02*
X3590476Y38522381D01*
X3590476Y38522381D02*
X3638095Y38570000D01*
X3638095Y38570000D02*
X3733333Y38617620D01*
X4495238Y37617620D02*
X4495238Y38284286D01*
X4495238Y38189048D02*
X4542857Y38236667D01*
X4542857Y38236667D02*
X4638095Y38284286D01*
X4638095Y38284286D02*
X4780952Y38284286D01*
X4780952Y38284286D02*
X4876190Y38236667D01*
X4876190Y38236667D02*
X4923809Y38141429D01*
X4923809Y38141429D02*
X4923809Y37617620D01*
X4923809Y38141429D02*
X4971428Y38236667D01*
X4971428Y38236667D02*
X5066666Y38284286D01*
X5066666Y38284286D02*
X5209523Y38284286D01*
X5209523Y38284286D02*
X5304762Y38236667D01*
X5304762Y38236667D02*
X5352381Y38141429D01*
X5352381Y38141429D02*
X5352381Y37617620D01*
X5780952Y37903334D02*
X6257142Y37903334D01*
X5685714Y37617620D02*
X6019047Y38617620D01*
X6019047Y38617620D02*
X6352380Y37617620D01*
X7285714Y37617620D02*
X7285714Y38617620D01*
X7285714Y38617620D02*
X7619047Y37903334D01*
X7619047Y37903334D02*
X7952380Y38617620D01*
X7952380Y38617620D02*
X7952380Y37617620D01*
X8380952Y37903334D02*
X8857142Y37903334D01*
X8285714Y37617620D02*
X8619047Y38617620D01*
X8619047Y38617620D02*
X8952380Y37617620D01*
X9190476Y38617620D02*
X9857142Y37617620D01*
X9857142Y38617620D02*
X9190476Y37617620D01*
X11409523Y37712858D02*
X11361904Y37665239D01*
X11361904Y37665239D02*
X11219047Y37617620D01*
X11219047Y37617620D02*
X11123809Y37617620D01*
X11123809Y37617620D02*
X10980952Y37665239D01*
X10980952Y37665239D02*
X10885714Y37760477D01*
X10885714Y37760477D02*
X10838095Y37855715D01*
X10838095Y37855715D02*
X10790476Y38046191D01*
X10790476Y38046191D02*
X10790476Y38189048D01*
X10790476Y38189048D02*
X10838095Y38379524D01*
X10838095Y38379524D02*
X10885714Y38474762D01*
X10885714Y38474762D02*
X10980952Y38570000D01*
X10980952Y38570000D02*
X11123809Y38617620D01*
X11123809Y38617620D02*
X11219047Y38617620D01*
X11219047Y38617620D02*
X11361904Y38570000D01*
X11361904Y38570000D02*
X11409523Y38522381D01*
X11838095Y38617620D02*
X11838095Y37808096D01*
X11838095Y37808096D02*
X11885714Y37712858D01*
X11885714Y37712858D02*
X11933333Y37665239D01*
X11933333Y37665239D02*
X12028571Y37617620D01*
X12028571Y37617620D02*
X12219047Y37617620D01*
X12219047Y37617620D02*
X12314285Y37665239D01*
X12314285Y37665239D02*
X12361904Y37712858D01*
X12361904Y37712858D02*
X12409523Y37808096D01*
X12409523Y37808096D02*
X12409523Y38617620D01*
X13457142Y37617620D02*
X13123809Y38093810D01*
X12885714Y37617620D02*
X12885714Y38617620D01*
X12885714Y38617620D02*
X13266666Y38617620D01*
X13266666Y38617620D02*
X13361904Y38570000D01*
X13361904Y38570000D02*
X13409523Y38522381D01*
X13409523Y38522381D02*
X13457142Y38427143D01*
X13457142Y38427143D02*
X13457142Y38284286D01*
X13457142Y38284286D02*
X13409523Y38189048D01*
X13409523Y38189048D02*
X13361904Y38141429D01*
X13361904Y38141429D02*
X13266666Y38093810D01*
X13266666Y38093810D02*
X12885714Y38093810D01*
X14457142Y37617620D02*
X14123809Y38093810D01*
X13885714Y37617620D02*
X13885714Y38617620D01*
X13885714Y38617620D02*
X14266666Y38617620D01*
X14266666Y38617620D02*
X14361904Y38570000D01*
X14361904Y38570000D02*
X14409523Y38522381D01*
X14409523Y38522381D02*
X14457142Y38427143D01*
X14457142Y38427143D02*
X14457142Y38284286D01*
X14457142Y38284286D02*
X14409523Y38189048D01*
X14409523Y38189048D02*
X14361904Y38141429D01*
X14361904Y38141429D02*
X14266666Y38093810D01*
X14266666Y38093810D02*
X13885714Y38093810D01*
X14885714Y38141429D02*
X15219047Y38141429D01*
X15361904Y37617620D02*
X14885714Y37617620D01*
X14885714Y37617620D02*
X14885714Y38617620D01*
X14885714Y38617620D02*
X15361904Y38617620D01*
X15790476Y37617620D02*
X15790476Y38617620D01*
X15790476Y38617620D02*
X16361904Y37617620D01*
X16361904Y37617620D02*
X16361904Y38617620D01*
X16695238Y38617620D02*
X17266666Y38617620D01*
X16980952Y37617620D02*
X16980952Y38617620D01*
D12*
%TO.C,U1*%
X7756547Y7816310D02*
X7756547Y7411548D01*
X7756547Y7411548D02*
X7780357Y7363929D01*
X7780357Y7363929D02*
X7804166Y7340120D01*
X7804166Y7340120D02*
X7851785Y7316310D01*
X7851785Y7316310D02*
X7947023Y7316310D01*
X7947023Y7316310D02*
X7994642Y7340120D01*
X7994642Y7340120D02*
X8018452Y7363929D01*
X8018452Y7363929D02*
X8042261Y7411548D01*
X8042261Y7411548D02*
X8042261Y7816310D01*
X8542262Y7316310D02*
X8256548Y7316310D01*
X8399405Y7316310D02*
X8399405Y7816310D01*
X8399405Y7816310D02*
X8351786Y7744881D01*
X8351786Y7744881D02*
X8304167Y7697262D01*
X8304167Y7697262D02*
X8256548Y7673453D01*
%TO.C,C2*%
X16516666Y7463929D02*
X16492857Y7440120D01*
X16492857Y7440120D02*
X16421428Y7416310D01*
X16421428Y7416310D02*
X16373809Y7416310D01*
X16373809Y7416310D02*
X16302381Y7440120D01*
X16302381Y7440120D02*
X16254762Y7487739D01*
X16254762Y7487739D02*
X16230952Y7535358D01*
X16230952Y7535358D02*
X16207143Y7630596D01*
X16207143Y7630596D02*
X16207143Y7702024D01*
X16207143Y7702024D02*
X16230952Y7797262D01*
X16230952Y7797262D02*
X16254762Y7844881D01*
X16254762Y7844881D02*
X16302381Y7892500D01*
X16302381Y7892500D02*
X16373809Y7916310D01*
X16373809Y7916310D02*
X16421428Y7916310D01*
X16421428Y7916310D02*
X16492857Y7892500D01*
X16492857Y7892500D02*
X16516666Y7868691D01*
X16707143Y7868691D02*
X16730952Y7892500D01*
X16730952Y7892500D02*
X16778571Y7916310D01*
X16778571Y7916310D02*
X16897619Y7916310D01*
X16897619Y7916310D02*
X16945238Y7892500D01*
X16945238Y7892500D02*
X16969047Y7868691D01*
X16969047Y7868691D02*
X16992857Y7821072D01*
X16992857Y7821072D02*
X16992857Y7773453D01*
X16992857Y7773453D02*
X16969047Y7702024D01*
X16969047Y7702024D02*
X16683333Y7416310D01*
X16683333Y7416310D02*
X16992857Y7416310D01*
%TO.C,USB1*%
X18230952Y11516310D02*
X18230952Y11111548D01*
X18230952Y11111548D02*
X18254762Y11063929D01*
X18254762Y11063929D02*
X18278571Y11040120D01*
X18278571Y11040120D02*
X18326190Y11016310D01*
X18326190Y11016310D02*
X18421428Y11016310D01*
X18421428Y11016310D02*
X18469047Y11040120D01*
X18469047Y11040120D02*
X18492857Y11063929D01*
X18492857Y11063929D02*
X18516666Y11111548D01*
X18516666Y11111548D02*
X18516666Y11516310D01*
X18730953Y11040120D02*
X18802381Y11016310D01*
X18802381Y11016310D02*
X18921429Y11016310D01*
X18921429Y11016310D02*
X18969048Y11040120D01*
X18969048Y11040120D02*
X18992857Y11063929D01*
X18992857Y11063929D02*
X19016667Y11111548D01*
X19016667Y11111548D02*
X19016667Y11159167D01*
X19016667Y11159167D02*
X18992857Y11206786D01*
X18992857Y11206786D02*
X18969048Y11230596D01*
X18969048Y11230596D02*
X18921429Y11254405D01*
X18921429Y11254405D02*
X18826191Y11278215D01*
X18826191Y11278215D02*
X18778572Y11302024D01*
X18778572Y11302024D02*
X18754762Y11325834D01*
X18754762Y11325834D02*
X18730953Y11373453D01*
X18730953Y11373453D02*
X18730953Y11421072D01*
X18730953Y11421072D02*
X18754762Y11468691D01*
X18754762Y11468691D02*
X18778572Y11492500D01*
X18778572Y11492500D02*
X18826191Y11516310D01*
X18826191Y11516310D02*
X18945238Y11516310D01*
X18945238Y11516310D02*
X19016667Y11492500D01*
X19397619Y11278215D02*
X19469047Y11254405D01*
X19469047Y11254405D02*
X19492857Y11230596D01*
X19492857Y11230596D02*
X19516666Y11182977D01*
X19516666Y11182977D02*
X19516666Y11111548D01*
X19516666Y11111548D02*
X19492857Y11063929D01*
X19492857Y11063929D02*
X19469047Y11040120D01*
X19469047Y11040120D02*
X19421428Y11016310D01*
X19421428Y11016310D02*
X19230952Y11016310D01*
X19230952Y11016310D02*
X19230952Y11516310D01*
X19230952Y11516310D02*
X19397619Y11516310D01*
X19397619Y11516310D02*
X19445238Y11492500D01*
X19445238Y11492500D02*
X19469047Y11468691D01*
X19469047Y11468691D02*
X19492857Y11421072D01*
X19492857Y11421072D02*
X19492857Y11373453D01*
X19492857Y11373453D02*
X19469047Y11325834D01*
X19469047Y11325834D02*
X19445238Y11302024D01*
X19445238Y11302024D02*
X19397619Y11278215D01*
X19397619Y11278215D02*
X19230952Y11278215D01*
X19992857Y11016310D02*
X19707143Y11016310D01*
X19850000Y11016310D02*
X19850000Y11516310D01*
X19850000Y11516310D02*
X19802381Y11444881D01*
X19802381Y11444881D02*
X19754762Y11397262D01*
X19754762Y11397262D02*
X19707143Y11373453D01*
%TO.C,F1*%
X2233334Y3678215D02*
X2066667Y3678215D01*
X2066667Y3416310D02*
X2066667Y3916310D01*
X2066667Y3916310D02*
X2304762Y3916310D01*
X2757143Y3416310D02*
X2471429Y3416310D01*
X2614286Y3416310D02*
X2614286Y3916310D01*
X2614286Y3916310D02*
X2566667Y3844881D01*
X2566667Y3844881D02*
X2519048Y3797262D01*
X2519048Y3797262D02*
X2471429Y3773453D01*
%TO.C,C3.3*%
X559524Y8363929D02*
X535715Y8340120D01*
X535715Y8340120D02*
X464286Y8316310D01*
X464286Y8316310D02*
X416667Y8316310D01*
X416667Y8316310D02*
X345239Y8340120D01*
X345239Y8340120D02*
X297620Y8387739D01*
X297620Y8387739D02*
X273810Y8435358D01*
X273810Y8435358D02*
X250001Y8530596D01*
X250001Y8530596D02*
X250001Y8602024D01*
X250001Y8602024D02*
X273810Y8697262D01*
X273810Y8697262D02*
X297620Y8744881D01*
X297620Y8744881D02*
X345239Y8792500D01*
X345239Y8792500D02*
X416667Y8816310D01*
X416667Y8816310D02*
X464286Y8816310D01*
X464286Y8816310D02*
X535715Y8792500D01*
X535715Y8792500D02*
X559524Y8768691D01*
X726191Y8816310D02*
X1035715Y8816310D01*
X1035715Y8816310D02*
X869048Y8625834D01*
X869048Y8625834D02*
X940477Y8625834D01*
X940477Y8625834D02*
X988096Y8602024D01*
X988096Y8602024D02*
X1011905Y8578215D01*
X1011905Y8578215D02*
X1035715Y8530596D01*
X1035715Y8530596D02*
X1035715Y8411548D01*
X1035715Y8411548D02*
X1011905Y8363929D01*
X1011905Y8363929D02*
X988096Y8340120D01*
X988096Y8340120D02*
X940477Y8316310D01*
X940477Y8316310D02*
X797620Y8316310D01*
X797620Y8316310D02*
X750001Y8340120D01*
X750001Y8340120D02*
X726191Y8363929D01*
X1250000Y8363929D02*
X1273810Y8340120D01*
X1273810Y8340120D02*
X1250000Y8316310D01*
X1250000Y8316310D02*
X1226191Y8340120D01*
X1226191Y8340120D02*
X1250000Y8363929D01*
X1250000Y8363929D02*
X1250000Y8316310D01*
X1440476Y8816310D02*
X1750000Y8816310D01*
X1750000Y8816310D02*
X1583333Y8625834D01*
X1583333Y8625834D02*
X1654762Y8625834D01*
X1654762Y8625834D02*
X1702381Y8602024D01*
X1702381Y8602024D02*
X1726190Y8578215D01*
X1726190Y8578215D02*
X1750000Y8530596D01*
X1750000Y8530596D02*
X1750000Y8411548D01*
X1750000Y8411548D02*
X1726190Y8363929D01*
X1726190Y8363929D02*
X1702381Y8340120D01*
X1702381Y8340120D02*
X1654762Y8316310D01*
X1654762Y8316310D02*
X1511905Y8316310D01*
X1511905Y8316310D02*
X1464286Y8340120D01*
X1464286Y8340120D02*
X1440476Y8363929D01*
%TO.C,L1*%
X6316666Y7216310D02*
X6078571Y7216310D01*
X6078571Y7216310D02*
X6078571Y7716310D01*
X6745238Y7216310D02*
X6459524Y7216310D01*
X6602381Y7216310D02*
X6602381Y7716310D01*
X6602381Y7716310D02*
X6554762Y7644881D01*
X6554762Y7644881D02*
X6507143Y7597262D01*
X6507143Y7597262D02*
X6459524Y7573453D01*
%TO.C,C1.2*%
X20559524Y5563929D02*
X20535715Y5540120D01*
X20535715Y5540120D02*
X20464286Y5516310D01*
X20464286Y5516310D02*
X20416667Y5516310D01*
X20416667Y5516310D02*
X20345239Y5540120D01*
X20345239Y5540120D02*
X20297620Y5587739D01*
X20297620Y5587739D02*
X20273810Y5635358D01*
X20273810Y5635358D02*
X20250001Y5730596D01*
X20250001Y5730596D02*
X20250001Y5802024D01*
X20250001Y5802024D02*
X20273810Y5897262D01*
X20273810Y5897262D02*
X20297620Y5944881D01*
X20297620Y5944881D02*
X20345239Y5992500D01*
X20345239Y5992500D02*
X20416667Y6016310D01*
X20416667Y6016310D02*
X20464286Y6016310D01*
X20464286Y6016310D02*
X20535715Y5992500D01*
X20535715Y5992500D02*
X20559524Y5968691D01*
X21035715Y5516310D02*
X20750001Y5516310D01*
X20892858Y5516310D02*
X20892858Y6016310D01*
X20892858Y6016310D02*
X20845239Y5944881D01*
X20845239Y5944881D02*
X20797620Y5897262D01*
X20797620Y5897262D02*
X20750001Y5873453D01*
X21250000Y5563929D02*
X21273810Y5540120D01*
X21273810Y5540120D02*
X21250000Y5516310D01*
X21250000Y5516310D02*
X21226191Y5540120D01*
X21226191Y5540120D02*
X21250000Y5563929D01*
X21250000Y5563929D02*
X21250000Y5516310D01*
X21464286Y5968691D02*
X21488095Y5992500D01*
X21488095Y5992500D02*
X21535714Y6016310D01*
X21535714Y6016310D02*
X21654762Y6016310D01*
X21654762Y6016310D02*
X21702381Y5992500D01*
X21702381Y5992500D02*
X21726190Y5968691D01*
X21726190Y5968691D02*
X21750000Y5921072D01*
X21750000Y5921072D02*
X21750000Y5873453D01*
X21750000Y5873453D02*
X21726190Y5802024D01*
X21726190Y5802024D02*
X21440476Y5516310D01*
X21440476Y5516310D02*
X21750000Y5516310D01*
%TO.C,C1.1*%
X20159524Y4463929D02*
X20135715Y4440120D01*
X20135715Y4440120D02*
X20064286Y4416310D01*
X20064286Y4416310D02*
X20016667Y4416310D01*
X20016667Y4416310D02*
X19945239Y4440120D01*
X19945239Y4440120D02*
X19897620Y4487739D01*
X19897620Y4487739D02*
X19873810Y4535358D01*
X19873810Y4535358D02*
X19850001Y4630596D01*
X19850001Y4630596D02*
X19850001Y4702024D01*
X19850001Y4702024D02*
X19873810Y4797262D01*
X19873810Y4797262D02*
X19897620Y4844881D01*
X19897620Y4844881D02*
X19945239Y4892500D01*
X19945239Y4892500D02*
X20016667Y4916310D01*
X20016667Y4916310D02*
X20064286Y4916310D01*
X20064286Y4916310D02*
X20135715Y4892500D01*
X20135715Y4892500D02*
X20159524Y4868691D01*
X20635715Y4416310D02*
X20350001Y4416310D01*
X20492858Y4416310D02*
X20492858Y4916310D01*
X20492858Y4916310D02*
X20445239Y4844881D01*
X20445239Y4844881D02*
X20397620Y4797262D01*
X20397620Y4797262D02*
X20350001Y4773453D01*
X20850000Y4463929D02*
X20873810Y4440120D01*
X20873810Y4440120D02*
X20850000Y4416310D01*
X20850000Y4416310D02*
X20826191Y4440120D01*
X20826191Y4440120D02*
X20850000Y4463929D01*
X20850000Y4463929D02*
X20850000Y4416310D01*
X21350000Y4416310D02*
X21064286Y4416310D01*
X21207143Y4416310D02*
X21207143Y4916310D01*
X21207143Y4916310D02*
X21159524Y4844881D01*
X21159524Y4844881D02*
X21111905Y4797262D01*
X21111905Y4797262D02*
X21064286Y4773453D01*
D10*
%TO.C,J1*%
X5766667Y2732620D02*
X5766667Y3732620D01*
X5766667Y3732620D02*
X6100000Y3018334D01*
X6100000Y3018334D02*
X6433333Y3732620D01*
X6433333Y3732620D02*
X6433333Y2732620D01*
X17871428Y3256429D02*
X18014285Y3208810D01*
X18014285Y3208810D02*
X18061904Y3161191D01*
X18061904Y3161191D02*
X18109523Y3065953D01*
X18109523Y3065953D02*
X18109523Y2923096D01*
X18109523Y2923096D02*
X18061904Y2827858D01*
X18061904Y2827858D02*
X18014285Y2780239D01*
X18014285Y2780239D02*
X17919047Y2732620D01*
X17919047Y2732620D02*
X17538095Y2732620D01*
X17538095Y2732620D02*
X17538095Y3732620D01*
X17538095Y3732620D02*
X17871428Y3732620D01*
X17871428Y3732620D02*
X17966666Y3685000D01*
X17966666Y3685000D02*
X18014285Y3637381D01*
X18014285Y3637381D02*
X18061904Y3542143D01*
X18061904Y3542143D02*
X18061904Y3446905D01*
X18061904Y3446905D02*
X18014285Y3351667D01*
X18014285Y3351667D02*
X17966666Y3304048D01*
X17966666Y3304048D02*
X17871428Y3256429D01*
X17871428Y3256429D02*
X17538095Y3256429D01*
D12*
%TO.C,C3.1*%
X559524Y6163929D02*
X535715Y6140120D01*
X535715Y6140120D02*
X464286Y6116310D01*
X464286Y6116310D02*
X416667Y6116310D01*
X416667Y6116310D02*
X345239Y6140120D01*
X345239Y6140120D02*
X297620Y6187739D01*
X297620Y6187739D02*
X273810Y6235358D01*
X273810Y6235358D02*
X250001Y6330596D01*
X250001Y6330596D02*
X250001Y6402024D01*
X250001Y6402024D02*
X273810Y6497262D01*
X273810Y6497262D02*
X297620Y6544881D01*
X297620Y6544881D02*
X345239Y6592500D01*
X345239Y6592500D02*
X416667Y6616310D01*
X416667Y6616310D02*
X464286Y6616310D01*
X464286Y6616310D02*
X535715Y6592500D01*
X535715Y6592500D02*
X559524Y6568691D01*
X726191Y6616310D02*
X1035715Y6616310D01*
X1035715Y6616310D02*
X869048Y6425834D01*
X869048Y6425834D02*
X940477Y6425834D01*
X940477Y6425834D02*
X988096Y6402024D01*
X988096Y6402024D02*
X1011905Y6378215D01*
X1011905Y6378215D02*
X1035715Y6330596D01*
X1035715Y6330596D02*
X1035715Y6211548D01*
X1035715Y6211548D02*
X1011905Y6163929D01*
X1011905Y6163929D02*
X988096Y6140120D01*
X988096Y6140120D02*
X940477Y6116310D01*
X940477Y6116310D02*
X797620Y6116310D01*
X797620Y6116310D02*
X750001Y6140120D01*
X750001Y6140120D02*
X726191Y6163929D01*
X1250000Y6163929D02*
X1273810Y6140120D01*
X1273810Y6140120D02*
X1250000Y6116310D01*
X1250000Y6116310D02*
X1226191Y6140120D01*
X1226191Y6140120D02*
X1250000Y6163929D01*
X1250000Y6163929D02*
X1250000Y6116310D01*
X1750000Y6116310D02*
X1464286Y6116310D01*
X1607143Y6116310D02*
X1607143Y6616310D01*
X1607143Y6616310D02*
X1559524Y6544881D01*
X1559524Y6544881D02*
X1511905Y6497262D01*
X1511905Y6497262D02*
X1464286Y6473453D01*
%TO.C,C3.2*%
X559524Y7263929D02*
X535715Y7240120D01*
X535715Y7240120D02*
X464286Y7216310D01*
X464286Y7216310D02*
X416667Y7216310D01*
X416667Y7216310D02*
X345239Y7240120D01*
X345239Y7240120D02*
X297620Y7287739D01*
X297620Y7287739D02*
X273810Y7335358D01*
X273810Y7335358D02*
X250001Y7430596D01*
X250001Y7430596D02*
X250001Y7502024D01*
X250001Y7502024D02*
X273810Y7597262D01*
X273810Y7597262D02*
X297620Y7644881D01*
X297620Y7644881D02*
X345239Y7692500D01*
X345239Y7692500D02*
X416667Y7716310D01*
X416667Y7716310D02*
X464286Y7716310D01*
X464286Y7716310D02*
X535715Y7692500D01*
X535715Y7692500D02*
X559524Y7668691D01*
X726191Y7716310D02*
X1035715Y7716310D01*
X1035715Y7716310D02*
X869048Y7525834D01*
X869048Y7525834D02*
X940477Y7525834D01*
X940477Y7525834D02*
X988096Y7502024D01*
X988096Y7502024D02*
X1011905Y7478215D01*
X1011905Y7478215D02*
X1035715Y7430596D01*
X1035715Y7430596D02*
X1035715Y7311548D01*
X1035715Y7311548D02*
X1011905Y7263929D01*
X1011905Y7263929D02*
X988096Y7240120D01*
X988096Y7240120D02*
X940477Y7216310D01*
X940477Y7216310D02*
X797620Y7216310D01*
X797620Y7216310D02*
X750001Y7240120D01*
X750001Y7240120D02*
X726191Y7263929D01*
X1250000Y7263929D02*
X1273810Y7240120D01*
X1273810Y7240120D02*
X1250000Y7216310D01*
X1250000Y7216310D02*
X1226191Y7240120D01*
X1226191Y7240120D02*
X1250000Y7263929D01*
X1250000Y7263929D02*
X1250000Y7216310D01*
X1464286Y7668691D02*
X1488095Y7692500D01*
X1488095Y7692500D02*
X1535714Y7716310D01*
X1535714Y7716310D02*
X1654762Y7716310D01*
X1654762Y7716310D02*
X1702381Y7692500D01*
X1702381Y7692500D02*
X1726190Y7668691D01*
X1726190Y7668691D02*
X1750000Y7621072D01*
X1750000Y7621072D02*
X1750000Y7573453D01*
X1750000Y7573453D02*
X1726190Y7502024D01*
X1726190Y7502024D02*
X1440476Y7216310D01*
X1440476Y7216310D02*
X1750000Y7216310D01*
%TO.C,D1*%
X16530952Y4916310D02*
X16530952Y5416310D01*
X16530952Y5416310D02*
X16650000Y5416310D01*
X16650000Y5416310D02*
X16721428Y5392500D01*
X16721428Y5392500D02*
X16769047Y5344881D01*
X16769047Y5344881D02*
X16792857Y5297262D01*
X16792857Y5297262D02*
X16816666Y5202024D01*
X16816666Y5202024D02*
X16816666Y5130596D01*
X16816666Y5130596D02*
X16792857Y5035358D01*
X16792857Y5035358D02*
X16769047Y4987739D01*
X16769047Y4987739D02*
X16721428Y4940120D01*
X16721428Y4940120D02*
X16650000Y4916310D01*
X16650000Y4916310D02*
X16530952Y4916310D01*
X17292857Y4916310D02*
X17007143Y4916310D01*
X17150000Y4916310D02*
X17150000Y5416310D01*
X17150000Y5416310D02*
X17102381Y5344881D01*
X17102381Y5344881D02*
X17054762Y5297262D01*
X17054762Y5297262D02*
X17007143Y5273453D01*
%TO.C,R1*%
X13716666Y7416310D02*
X13550000Y7654405D01*
X13430952Y7416310D02*
X13430952Y7916310D01*
X13430952Y7916310D02*
X13621428Y7916310D01*
X13621428Y7916310D02*
X13669047Y7892500D01*
X13669047Y7892500D02*
X13692857Y7868691D01*
X13692857Y7868691D02*
X13716666Y7821072D01*
X13716666Y7821072D02*
X13716666Y7749643D01*
X13716666Y7749643D02*
X13692857Y7702024D01*
X13692857Y7702024D02*
X13669047Y7678215D01*
X13669047Y7678215D02*
X13621428Y7654405D01*
X13621428Y7654405D02*
X13430952Y7654405D01*
X14192857Y7416310D02*
X13907143Y7416310D01*
X14050000Y7416310D02*
X14050000Y7916310D01*
X14050000Y7916310D02*
X14002381Y7844881D01*
X14002381Y7844881D02*
X13954762Y7797262D01*
X13954762Y7797262D02*
X13907143Y7773453D01*
%TO.C,C1.3*%
X20559524Y6663929D02*
X20535715Y6640120D01*
X20535715Y6640120D02*
X20464286Y6616310D01*
X20464286Y6616310D02*
X20416667Y6616310D01*
X20416667Y6616310D02*
X20345239Y6640120D01*
X20345239Y6640120D02*
X20297620Y6687739D01*
X20297620Y6687739D02*
X20273810Y6735358D01*
X20273810Y6735358D02*
X20250001Y6830596D01*
X20250001Y6830596D02*
X20250001Y6902024D01*
X20250001Y6902024D02*
X20273810Y6997262D01*
X20273810Y6997262D02*
X20297620Y7044881D01*
X20297620Y7044881D02*
X20345239Y7092500D01*
X20345239Y7092500D02*
X20416667Y7116310D01*
X20416667Y7116310D02*
X20464286Y7116310D01*
X20464286Y7116310D02*
X20535715Y7092500D01*
X20535715Y7092500D02*
X20559524Y7068691D01*
X21035715Y6616310D02*
X20750001Y6616310D01*
X20892858Y6616310D02*
X20892858Y7116310D01*
X20892858Y7116310D02*
X20845239Y7044881D01*
X20845239Y7044881D02*
X20797620Y6997262D01*
X20797620Y6997262D02*
X20750001Y6973453D01*
X21250000Y6663929D02*
X21273810Y6640120D01*
X21273810Y6640120D02*
X21250000Y6616310D01*
X21250000Y6616310D02*
X21226191Y6640120D01*
X21226191Y6640120D02*
X21250000Y6663929D01*
X21250000Y6663929D02*
X21250000Y6616310D01*
X21440476Y7116310D02*
X21750000Y7116310D01*
X21750000Y7116310D02*
X21583333Y6925834D01*
X21583333Y6925834D02*
X21654762Y6925834D01*
X21654762Y6925834D02*
X21702381Y6902024D01*
X21702381Y6902024D02*
X21726190Y6878215D01*
X21726190Y6878215D02*
X21750000Y6830596D01*
X21750000Y6830596D02*
X21750000Y6711548D01*
X21750000Y6711548D02*
X21726190Y6663929D01*
X21726190Y6663929D02*
X21702381Y6640120D01*
X21702381Y6640120D02*
X21654762Y6616310D01*
X21654762Y6616310D02*
X21511905Y6616310D01*
X21511905Y6616310D02*
X21464286Y6640120D01*
X21464286Y6640120D02*
X21440476Y6663929D01*
D13*
%TO.C,U1*%
X10800000Y7460000D02*
X9000000Y7460000D01*
X10800000Y7460000D02*
X11600000Y7460000D01*
X10800000Y4340000D02*
X10000000Y4340000D01*
X10800000Y4340000D02*
X11600000Y4340000D01*
%TO.C,C2*%
X16484165Y7160000D02*
X16715835Y7160000D01*
X16484165Y6440000D02*
X16715835Y6440000D01*
%TO.C,USB1*%
X18430000Y23670000D02*
X18430000Y24190000D01*
X18430000Y24190000D02*
X3570000Y24190000D01*
X17660000Y9970000D02*
X17660000Y12040000D01*
X17660000Y9970000D02*
X15350000Y9970000D01*
X17660000Y23670000D02*
X18430000Y23670000D01*
X17660000Y23670000D02*
X17660000Y15560000D01*
X15350000Y8680000D02*
X15350000Y9970000D01*
X13670000Y9980000D02*
X12850000Y9980000D01*
X11170000Y9980000D02*
X10830000Y9980000D01*
X9150000Y9980000D02*
X8330000Y9980000D01*
X6650000Y9970000D02*
X4340000Y9970000D01*
X4340000Y9970000D02*
X4340000Y12040000D01*
X4340000Y15560000D02*
X4340000Y23670000D01*
X3570000Y23670000D02*
X4340000Y23670000D01*
X3570000Y24190000D02*
X3570000Y23670000D01*
%TO.C,F1*%
X2228733Y5410000D02*
X2571267Y5410000D01*
X2228733Y4390000D02*
X2571267Y4390000D01*
%TO.C,C3.3*%
X3115835Y8140000D02*
X2884165Y8140000D01*
X3115835Y8860000D02*
X2884165Y8860000D01*
%TO.C,L1*%
X6138748Y6810000D02*
X6661252Y6810000D01*
X6138748Y4590000D02*
X6661252Y4590000D01*
%TO.C,C1.2*%
X18884165Y6060000D02*
X19115835Y6060000D01*
X18884165Y5340000D02*
X19115835Y5340000D01*
%TO.C,C1.1*%
X18484165Y4960000D02*
X18715835Y4960000D01*
X18484165Y4240000D02*
X18715835Y4240000D01*
%TO.C,C3.1*%
X3115835Y5940000D02*
X2884165Y5940000D01*
X3115835Y6660000D02*
X2884165Y6660000D01*
%TO.C,C3.2*%
X3115835Y7040000D02*
X2884165Y7040000D01*
X3115835Y7760000D02*
X2884165Y7760000D01*
%TO.C,D1*%
X16310000Y4250000D02*
X16310000Y5950000D01*
X16310000Y4250000D02*
X13650000Y4250000D01*
X16310000Y5950000D02*
X13650000Y5950000D01*
%TO.C,R1*%
X14032379Y7180000D02*
X14367621Y7180000D01*
X14032379Y6420000D02*
X14367621Y6420000D01*
%TO.C,C1.3*%
X18884165Y7160000D02*
X19115835Y7160000D01*
X18884165Y6440000D02*
X19115835Y6440000D01*
%TD*%
%LPC*%
D14*
%TO.C,U1*%
X9662500Y6850000D03*
X9662500Y5900000D03*
X9662500Y4950000D03*
X11937500Y4950000D03*
X11937500Y6850000D03*
%TD*%
D15*
%TO.C,C2*%
X16032500Y6800000D03*
X17167500Y6800000D03*
%TD*%
D16*
%TO.C,USB1*%
X14499999Y10119999D03*
X11999999Y10119999D03*
X9999999Y10119999D03*
X7499999Y10119999D03*
D17*
X17570000Y13800000D03*
X4430000Y13800000D03*
%TD*%
D18*
%TO.C,F1*%
X1525000Y4900000D03*
X3275000Y4900000D03*
%TD*%
D19*
%TO.C,C3.3*%
X3567500Y8500000D03*
X2432500Y8500000D03*
%TD*%
D20*
%TO.C,L1*%
X5237500Y5700000D03*
X7562500Y5700000D03*
%TD*%
D15*
%TO.C,C1.2*%
X18432500Y5700000D03*
X19567500Y5700000D03*
%TD*%
%TO.C,C1.1*%
X18032500Y4600000D03*
X19167500Y4600000D03*
%TD*%
D21*
%TO.C,J1*%
X20250000Y1100000D03*
D22*
X11000000Y42000000D03*
D21*
X19750000Y1100000D03*
X19250000Y1100000D03*
X18750000Y1100000D03*
X18250000Y1100000D03*
X17750000Y1100000D03*
X15250000Y1100000D03*
X13750000Y1100000D03*
X12250000Y1100000D03*
X10750000Y1100000D03*
X9250000Y1100000D03*
X7750000Y1100000D03*
X6250000Y1100000D03*
X3250000Y1100000D03*
X2750000Y1100000D03*
X2250000Y1100000D03*
X1750000Y1100000D03*
%TD*%
D19*
%TO.C,C3.1*%
X3567500Y6300000D03*
X2432500Y6300000D03*
%TD*%
%TO.C,C3.2*%
X3567500Y7400000D03*
X2432500Y7400000D03*
%TD*%
D23*
%TO.C,D1*%
X15750000Y5100000D03*
X13650000Y5100000D03*
%TD*%
D24*
%TO.C,R1*%
X13602500Y6800000D03*
X14797500Y6800000D03*
%TD*%
D15*
%TO.C,C1.3*%
X18432500Y6800000D03*
X19567500Y6800000D03*
%TD*%
G36*
X4213000Y1983387D02*
G01*
X4258387Y1938000D01*
X4275000Y1876000D01*
X4275000Y124000D01*
X4258387Y62000D01*
X4213000Y16613D01*
X4151000Y0D01*
X1199000Y0D01*
X1137000Y16613D01*
X1091613Y62000D01*
X1075000Y124000D01*
X1075000Y1876000D01*
X1091613Y1938000D01*
X1137000Y1983387D01*
X1199000Y2000000D01*
X4151000Y2000000D01*
X4213000Y1983387D01*
G37*
G36*
X15963000Y1983387D02*
G01*
X16008387Y1938000D01*
X16025000Y1876000D01*
X16025000Y124000D01*
X16008387Y62000D01*
X15963000Y16613D01*
X15901000Y0D01*
X5599000Y0D01*
X5537000Y16613D01*
X5491613Y62000D01*
X5475000Y124000D01*
X5475000Y1876000D01*
X5491613Y1938000D01*
X5537000Y1983387D01*
X5599000Y2000000D01*
X15901000Y2000000D01*
X15963000Y1983387D01*
G37*
G36*
X20863000Y1983387D02*
G01*
X20908387Y1938000D01*
X20925000Y1876000D01*
X20925000Y124000D01*
X20908387Y62000D01*
X20863000Y16613D01*
X20801000Y0D01*
X17349000Y0D01*
X17287000Y16613D01*
X17241613Y62000D01*
X17225000Y124000D01*
X17225000Y1876000D01*
X17241613Y1938000D01*
X17287000Y1983387D01*
X17349000Y2000000D01*
X20801000Y2000000D01*
X20863000Y1983387D01*
G37*
M02*
